<mxfile host="65bd71144e">
    <diagram id="HIP3nbAZw_EuaXWnEj3U" name="Page-1">
        <mxGraphModel dx="1163" dy="516" grid="1" gridSize="10" guides="1" tooltips="1" connect="1" arrows="1" fold="1" page="1" pageScale="1" pageWidth="850" pageHeight="1100" math="0" shadow="0">
            <root>
                <mxCell id="0"/>
                <mxCell id="1" parent="0"/>
                <mxCell id="7" value="http://ics2o.mths.ca" style="swimlane;whiteSpace=wrap;html=1;" parent="1" vertex="1">
                    <mxGeometry x="43" y="50" width="764.44" height="494" as="geometry"/>
                </mxCell>
                <mxCell id="17" value="" style="shape=image;verticalLabelPosition=bottom;labelBackgroundColor=default;verticalAlign=top;aspect=fixed;imageAspect=0;image=data:image/png,iVBORw0KGgoAAAANSUhEUgAAAMkAAAD7CAMAAAD3qkCRAAAAmVBMVEX/////AAAAAAD/+vr/7e3/ysr/1dX/2tr/vb22trbs7Oz/6ur/Pz//oKD/0ND/3d3Hx8d/f3//cXH/uLj/bGz/xsaJiYk9PT3/jY3/sLD/XFz/h4f/8fH/kpL/MDD/JSX/mpr/YmL/U1P/Zmb/RUXc3Nz/enr/GRn/V1f/4+P/ODj/dnb/nZ3/FRX/ISEPDw//TEz/qKj/gYG6Os0qAAALIUlEQVR4nO1d6VojKxDtbqMmRk3iFp2bMYtxH9f3f7jbK81SQEGDoWc4P2b8MBacsFQBVUWSlJjO5lk/MZ9NkxbTj123pxM+CJernNnoKOknjkb5aLqqfs6JjHbbmo4Y1VSmWXa/67Z0xH2WFQPso+c9UmCUfRRdMt91OxxgnnfK7C/okqJTZjmbvq5aNI7ykZVlu26FE+Q0IpPAEJmEh8gkPPwjTAYHP9mUjgCZnF7/LrC6fdtFkywBMlmmNW520SRLQEz2GyLpTppkCYjJZ0NktYMGWQNgcpimz7tpTCcATNbp027a0g0ik3ExrtY3e8CHhw/Hb7dnQ6ZssNo8Lp9WnXrxefW0fNysFmxlZ7dvxw9DyZ+IEJk81JPkP/6jN2QhuBQ/nW7Ghs0nGG8aGQ9t4ZBUhl0/RSZExDvbLaS+HGd12YQqS8/tiJzTMpquvaDKNrZMhifftT5Z0sUvdIXptiw7ZcrstM8NK+O0LNwyZS+WTAoMVvwAu2ArTD+TcpFjMTEnAsr45Mou7Jkkyd6vQgQZX6d8hel1sieULQFBGiwFIXvJf0LZaQcm1bwgK8exIDwdv4pll6AkBYaijNexWLbtxGSQS/iqf34WhacAufSXKZMnpGDEwqiw6l9ac+ULEA7ClAlW7pdelILJWSsAGEgwDOf8RC+xwoNeloLJRTvuN/q6KuybMbnEykXoFAWTZbt2QUMXBN64KAFMeBiIKS9nMqHWcX6Bl8Jw8UL3yacFk4tmnuf9sKAKcTg0YyLoRRnO9LJ4Jovi75YHe6cvdLP+YGuELGgFROUqwR9zJslb88cv1BouqngYt2ZEkuQWKRih5AUmi2okXbAjHlnhb1Mm10jBCFHQjF+MhUGCnCiG0wQ9UTAmJPIMcl9fW453UyJJ8o4SjFFTwP5kffw9yP+fnB1ftMMTVSHCpuCBsoNQB4gCk7v6S6iqIAP/BFOjORHc6oX6hngmzXfUrLukXxEVXlswQc15lCCeyRsnhNjpK32FhsqkAqJTVjZMRLnkV9oKjZfgCr+1gnFy8ExugDosKhShk4s86OBHFy+GMt3ELbdNhSI0XxH2cIBnwu+pTtpfHSgrxB3lgHhRCsbeRvFM+ObSJ5xnqgo7HKcqd44IKxhmwh2aMbtO1TIjnL2aQDwWaoFeEAUmrCXEHTpL63vsQkRc+1t0OeGmxxC/LbiTVWhsOrKQTsE7vAyRCTWGhO2GbHxZaXcaMk1voGwBW7i1e8XzMnjLZbzBEgFvuTCnqA0gq/67lgNpCHByDjpQqAEcoRouI+D+pDoUgrc3wOJveXHC4lyUa6aiQCbldJDo1oVQIXrFV0PUVgv9H1GA94yHCjn8GZXFVQMM3hoyPDuT7H5vFEYCt844mCQVBqxc0/VQto9XrRrMiaTxlYkcTG8jTh1Z2HhF0VrFclMCg+5t422blX9XezHk2AehvRgyN0jtPNUaA6yjuSXisRZseOZfwNLn7trxbG8wsJvtBWy9B8urYRNjAonSHDK+rixg7Qe5tDqo0+PLVkNZM1m40u08zgx1ewN731Rv3p6Wgv8RL9teITIJD5FJeIhMwkNkEh4ik/AQmYSHyCQ8RCbhITIJD5FJeIhMwkNkEh4ik/AQmYSHyCQ8RCZaTFbr4+0rdxs9fN0er7vF0kvhicmEOIZSTmLEMXhrEeqshR8mtBN+E4q4R7u7rJxX6YcJ65hXZQxYPDKFnbxyQfhgwrvPlaFCj1yhE0c9Gh6YiA6sT1C8rVWMhwIemABhGEPAZ9qpP1XihYnY6PQWcqJ1W6sHJuhIccdLsXsm2oibBo4TUblnoo9WquF4orhngg2Ada1Sdsikc1gBC/dM0NkzHDu6uWeCCxFOjXNO6OCeCTp637GS96AZkekzMHltTOCBCSrYmYkvdAIPTMS4DhB2fpty+LDqf2GIWPkEq+CDCSp/hnOvaS97RnX4a4kOwbUSeGGCSG3jWJkkvk4ktAvxsfMqPTFRh22nnWNSIXg675KG1VYwCIJFwxMTjU5xrUsK+DpNVSp6L+Ee3s6FFbmTHIQJA/DGBEpXWKNXJ9yJIkHLykt1Pu9PJJrevXav4JHJAGbiPN6uhs87LSBQ3MPJdgOvt3NA/jJUWlor+L1n5K8a3AeltvDLRFiKPSZd93z3y00Vb5Mk8X+L/UATQeRxtYf3+3hqq+JhU0LBOxPqIM/1fRwL/z4S5GbIxyU8hR/w9jj3P9sL/ITfSnkP4fiOQcSPeOA8OU84AeBnfIkePer2Bj/D5PkHHlSJ/l3hITIJD5FJeIhMwkNkEh4ik/AQmYSHyCQ8RCbhITIJD5FJeIhMwkNkEh4ik/AQmYSHyCQ8RCZJsvaU9Plgbfd31kxO/PjKFv65dpEptkyKaCwvPqaFT6uV070lk+oJGQ+u2JXzN+IZbAGWTOpno1YWNSpRO7SinpbkYMeERLs7Dr4g4R4b/Wd5WDGhsivYjAMpqGePzENpbZjQYftOnR9ot0nFaxsH4OsFFkxY50aHkWNspJq0t/fgEAMLJtwjcYiHnnHgnqyWzvrCNxzQyuZMhBg/R7peiCOS6PrqtSpRKxszAUKtnXgFAuHCYJhKnRJB9M43ZQIFY1gsmSKgJ+oBDyRSv7C4mTIBX1J0EMILxhABU6V9PowP7TRkInkAtLP7liTu5pX/HJ0QgfuVGRNZyKXF094sZA99c++OMS8GcuPLiIk8iL9jdgv5Q6bsasLmBGIjWYyYKKIUO4VaKl6Rv1N8jlX1JkxU4bydXgRUPSJP26h8PAvTYSZMFPV1MvDVj4crGsBk0TFgokmkYr0X1sSjti7TghXALG14JuBLoxQsDxL0KQ7IxBZGN2O94plocypY2l/auG3SXiELFRPPgmaiWF9qWIaX6BMckHWxKWgMDUbboJlAdhEHq60wImUOeT6z3uJdj7lyIyb6LrHsFEyeGdIpJZXcynsuzC8uoBDLRBO6z9WIh3aWFKDU4+l+pUQO9/m1EskElw3G4nVAIHgTAGaFRzL5o6+tgPGeC5mOCbNtQDJRxO3TMI5gAkODRfDntofDoeXokoRVCzA+XkVNv5Q1ew/WVdkvdgTgmCC/OvMcj1i5VGcXm71q58gGeuKYyPcPHAyPJHUWEEG7/9mWCvGwOORj7SMcE1T2pwKGeZPQmeSIxfLd1HGy3bB7bhwTZJo04xeHgXSqMJoEbGN5FB6OyVZfl18mjWGykqf2xDFZY2s0HF2oTF8FmimxkVt3OCbobJWG2y1kIrl2u7XsygSRkKuE8R0EeBAI4LL9vEzfI3U8IPxESBJhEdwLdPY7dBzZfP5FfvaBZCLW+AhNV+O9PGA8XAIdRb6hQi1KztaQTERLL1/MXzt3CaBzX6GjVWKXlMP8DjRUsfsTXoeVA5fbR1rdz3O26Ya0lwK1IlZ75e8uN0Gs6VXPQEb3L63uUfaWtIx6tWWp0BY2We22a0534c9WqN3dktgJ1L7FOrsNtdki69IzxY/9/ltT7duWSZJ8Vaee77SWHdSTpYs/TmOmv9K2+01dmXix1aTH5lI1md06jC/Ph8Jdyen5sPNV48HwXDAPnofnl7BtvX/9KY6Bnvp3DcRUIX1jspgUeF6Ll5s9Y9LqNWEw9owJsWRE3dUzJsSQETdC/WIySW/2S1yKv+sXk0Rx4tEzJgpEJuHhr2Iyz4523QoHOMrmySwb7boZDjDKZsk0Z9N/zLNpknz8BZ0yyj7yf6dZdr/rlnTEfVZ0SZJcZT3vlVGWXVU/5VTmo76uYEejOSGSD7CPrM/4mFLMprP5rttjifms5vE/6sB7Z/Si+AEAAAAASUVORK5CYII=;" parent="7" vertex="1">
                    <mxGeometry x="67" y="67.32" width="114" height="142.36" as="geometry"/>
                </mxCell>
                <mxCell id="19" value="" style="shape=image;verticalLabelPosition=bottom;labelBackgroundColor=default;verticalAlign=top;aspect=fixed;imageAspect=0;image=data:image/png,iVBORw0KGgoAAAANSUhEUgAAAMkAAAD7CAMAAAD3qkCRAAAAmVBMVEX/////AAAAAAD/+vr/7e3/ysr/1dX/2tr/vb22trbs7Oz/6ur/Pz//oKD/0ND/3d3Hx8d/f3//cXH/uLj/bGz/xsaJiYk9PT3/jY3/sLD/XFz/h4f/8fH/kpL/MDD/JSX/mpr/YmL/U1P/Zmb/RUXc3Nz/enr/GRn/V1f/4+P/ODj/dnb/nZ3/FRX/ISEPDw//TEz/qKj/gYG6Os0qAAALIUlEQVR4nO1d6VojKxDtbqMmRk3iFp2bMYtxH9f3f7jbK81SQEGDoWc4P2b8MBacsFQBVUWSlJjO5lk/MZ9NkxbTj123pxM+CJernNnoKOknjkb5aLqqfs6JjHbbmo4Y1VSmWXa/67Z0xH2WFQPso+c9UmCUfRRdMt91OxxgnnfK7C/okqJTZjmbvq5aNI7ykZVlu26FE+Q0IpPAEJmEh8gkPPwjTAYHP9mUjgCZnF7/LrC6fdtFkywBMlmmNW520SRLQEz2GyLpTppkCYjJZ0NktYMGWQNgcpimz7tpTCcATNbp027a0g0ik3ExrtY3e8CHhw/Hb7dnQ6ZssNo8Lp9WnXrxefW0fNysFmxlZ7dvxw9DyZ+IEJk81JPkP/6jN2QhuBQ/nW7Ghs0nGG8aGQ9t4ZBUhl0/RSZExDvbLaS+HGd12YQqS8/tiJzTMpquvaDKNrZMhifftT5Z0sUvdIXptiw7ZcrstM8NK+O0LNwyZS+WTAoMVvwAu2ArTD+TcpFjMTEnAsr45Mou7Jkkyd6vQgQZX6d8hel1sieULQFBGiwFIXvJf0LZaQcm1bwgK8exIDwdv4pll6AkBYaijNexWLbtxGSQS/iqf34WhacAufSXKZMnpGDEwqiw6l9ac+ULEA7ClAlW7pdelILJWSsAGEgwDOf8RC+xwoNeloLJRTvuN/q6KuybMbnEykXoFAWTZbt2QUMXBN64KAFMeBiIKS9nMqHWcX6Bl8Jw8UL3yacFk4tmnuf9sKAKcTg0YyLoRRnO9LJ4Jovi75YHe6cvdLP+YGuELGgFROUqwR9zJslb88cv1BouqngYt2ZEkuQWKRih5AUmi2okXbAjHlnhb1Mm10jBCFHQjF+MhUGCnCiG0wQ9UTAmJPIMcl9fW453UyJJ8o4SjFFTwP5kffw9yP+fnB1ftMMTVSHCpuCBsoNQB4gCk7v6S6iqIAP/BFOjORHc6oX6hngmzXfUrLukXxEVXlswQc15lCCeyRsnhNjpK32FhsqkAqJTVjZMRLnkV9oKjZfgCr+1gnFy8ExugDosKhShk4s86OBHFy+GMt3ELbdNhSI0XxH2cIBnwu+pTtpfHSgrxB3lgHhRCsbeRvFM+ObSJ5xnqgo7HKcqd44IKxhmwh2aMbtO1TIjnL2aQDwWaoFeEAUmrCXEHTpL63vsQkRc+1t0OeGmxxC/LbiTVWhsOrKQTsE7vAyRCTWGhO2GbHxZaXcaMk1voGwBW7i1e8XzMnjLZbzBEgFvuTCnqA0gq/67lgNpCHByDjpQqAEcoRouI+D+pDoUgrc3wOJveXHC4lyUa6aiQCbldJDo1oVQIXrFV0PUVgv9H1GA94yHCjn8GZXFVQMM3hoyPDuT7H5vFEYCt844mCQVBqxc0/VQto9XrRrMiaTxlYkcTG8jTh1Z2HhF0VrFclMCg+5t422blX9XezHk2AehvRgyN0jtPNUaA6yjuSXisRZseOZfwNLn7trxbG8wsJvtBWy9B8urYRNjAonSHDK+rixg7Qe5tDqo0+PLVkNZM1m40u08zgx1ewN731Rv3p6Wgv8RL9teITIJD5FJeIhMwkNkEh4ik/AQmYSHyCQ8RCbhITIJD5FJeIhMwkNkEh4ik/AQmYSHyCQ8RCZaTFbr4+0rdxs9fN0er7vF0kvhicmEOIZSTmLEMXhrEeqshR8mtBN+E4q4R7u7rJxX6YcJ65hXZQxYPDKFnbxyQfhgwrvPlaFCj1yhE0c9Gh6YiA6sT1C8rVWMhwIemABhGEPAZ9qpP1XihYnY6PQWcqJ1W6sHJuhIccdLsXsm2oibBo4TUblnoo9WquF4orhngg2Ada1Sdsikc1gBC/dM0NkzHDu6uWeCCxFOjXNO6OCeCTp637GS96AZkekzMHltTOCBCSrYmYkvdAIPTMS4DhB2fpty+LDqf2GIWPkEq+CDCSp/hnOvaS97RnX4a4kOwbUSeGGCSG3jWJkkvk4ktAvxsfMqPTFRh22nnWNSIXg675KG1VYwCIJFwxMTjU5xrUsK+DpNVSp6L+Ee3s6FFbmTHIQJA/DGBEpXWKNXJ9yJIkHLykt1Pu9PJJrevXav4JHJAGbiPN6uhs87LSBQ3MPJdgOvt3NA/jJUWlor+L1n5K8a3AeltvDLRFiKPSZd93z3y00Vb5Mk8X+L/UATQeRxtYf3+3hqq+JhU0LBOxPqIM/1fRwL/z4S5GbIxyU8hR/w9jj3P9sL/ITfSnkP4fiOQcSPeOA8OU84AeBnfIkePer2Bj/D5PkHHlSJ/l3hITIJD5FJeIhMwkNkEh4ik/AQmYSHyCQ8RCbhITIJD5FJeIhMwkNkEh4ik/AQmYSHyCQ8RCZJsvaU9Plgbfd31kxO/PjKFv65dpEptkyKaCwvPqaFT6uV070lk+oJGQ+u2JXzN+IZbAGWTOpno1YWNSpRO7SinpbkYMeERLs7Dr4g4R4b/Wd5WDGhsivYjAMpqGePzENpbZjQYftOnR9ot0nFaxsH4OsFFkxY50aHkWNspJq0t/fgEAMLJtwjcYiHnnHgnqyWzvrCNxzQyuZMhBg/R7peiCOS6PrqtSpRKxszAUKtnXgFAuHCYJhKnRJB9M43ZQIFY1gsmSKgJ+oBDyRSv7C4mTIBX1J0EMILxhABU6V9PowP7TRkInkAtLP7liTu5pX/HJ0QgfuVGRNZyKXF094sZA99c++OMS8GcuPLiIk8iL9jdgv5Q6bsasLmBGIjWYyYKKIUO4VaKl6Rv1N8jlX1JkxU4bydXgRUPSJP26h8PAvTYSZMFPV1MvDVj4crGsBk0TFgokmkYr0X1sSjti7TghXALG14JuBLoxQsDxL0KQ7IxBZGN2O94plocypY2l/auG3SXiELFRPPgmaiWF9qWIaX6BMckHWxKWgMDUbboJlAdhEHq60wImUOeT6z3uJdj7lyIyb6LrHsFEyeGdIpJZXcynsuzC8uoBDLRBO6z9WIh3aWFKDU4+l+pUQO9/m1EskElw3G4nVAIHgTAGaFRzL5o6+tgPGeC5mOCbNtQDJRxO3TMI5gAkODRfDntofDoeXokoRVCzA+XkVNv5Q1ew/WVdkvdgTgmCC/OvMcj1i5VGcXm71q58gGeuKYyPcPHAyPJHUWEEG7/9mWCvGwOORj7SMcE1T2pwKGeZPQmeSIxfLd1HGy3bB7bhwTZJo04xeHgXSqMJoEbGN5FB6OyVZfl18mjWGykqf2xDFZY2s0HF2oTF8FmimxkVt3OCbobJWG2y1kIrl2u7XsygSRkKuE8R0EeBAI4LL9vEzfI3U8IPxESBJhEdwLdPY7dBzZfP5FfvaBZCLW+AhNV+O9PGA8XAIdRb6hQi1KztaQTERLL1/MXzt3CaBzX6GjVWKXlMP8DjRUsfsTXoeVA5fbR1rdz3O26Ya0lwK1IlZ75e8uN0Gs6VXPQEb3L63uUfaWtIx6tWWp0BY2We22a0534c9WqN3dktgJ1L7FOrsNtdki69IzxY/9/ltT7duWSZJ8Vaee77SWHdSTpYs/TmOmv9K2+01dmXix1aTH5lI1md06jC/Ph8Jdyen5sPNV48HwXDAPnofnl7BtvX/9KY6Bnvp3DcRUIX1jspgUeF6Ll5s9Y9LqNWEw9owJsWRE3dUzJsSQETdC/WIySW/2S1yKv+sXk0Rx4tEzJgpEJuHhr2Iyz4523QoHOMrmySwb7boZDjDKZsk0Z9N/zLNpknz8BZ0yyj7yf6dZdr/rlnTEfVZ0SZJcZT3vlVGWXVU/5VTmo76uYEejOSGSD7CPrM/4mFLMprP5rttjifms5vE/6sB7Z/Si+AEAAAAASUVORK5CYII=;" parent="7" vertex="1">
                    <mxGeometry x="587" y="267.32" width="114" height="142.36" as="geometry"/>
                </mxCell>
                <mxCell id="20" value="" style="shape=image;verticalLabelPosition=bottom;labelBackgroundColor=default;verticalAlign=top;aspect=fixed;imageAspect=0;image=data:image/png,iVBORw0KGgoAAAANSUhEUgAAAzMAAAQACAQAAAB/68+wAAAABGdBTUEAALGPC/xhBQAAACBjSFJNAAB6JgAAgIQAAPoAAACA6AAAdTAAAOpgAAA6mAAAF3CculE8AAAAAmJLR0QA/4ePzL8AAAAHdElNRQfoBhELBBbNy2mhAABunUlEQVR42u3dd4BU1d2H8WepUgWkiICKoBQpFuwVxN4L1lhijdHEXpKYxBTfJLZoNMYWE1vsBcUuoqLYULoFBEGUptJ72/cPV2R3Z3an3Jk5d+b55I/gzN07Z3733Pneem4Z2epMb7qxFVvRmsZsSDPqIUmKp9UsYgFL+JaJTOQzxjE1uxmWZfyXm7Av/enPpi4VSSpi03id13iFmfmLmUYcwikc4F6LJJWMtbzDffyPxbmOmc25nFNoYsUlqQQt5l6uY1quYqYHV3Ki+zCSVNJW8SB/5bOoY6YJv+USI0aSBKzmNn7Lwuhi5kSup711lSStM4NLeDiKmGnOnRxnPSVJ1TzFGczLLmZ24BE61zxJXXrSna3Yig1pQkvLLkkxNo8lLGAiE/mUj1lT2+STOY4PM4+Z0/kXDZK/vRlH0Z89aOFykaQiNJ83eY2n+LKmiVZwDvdmFjNX8n/J3m/MCZzMnlnc3SlJioe1DOc+HmJZsgnKuYLr0o2ZMm7kwsRvbch5XEgbKy9JJWQOf+e25BeX3cillCd6o26SP/h74pCpy/kM5mDvz5SkEtOEgZzDIj5KnCa70JSXU4+ZK7kq0cs78Ayns4HVlqSS1IiDOZiPEg9vtitLGZFazPyUf1Q/mFbGpfyPDlZZkkraJpzGEt5L9NZApjC2enpU32V5q/rVZRvyAIdYXUkSAM9wcqLzNCvYlY9qjpkWfMgWVf9uY55nW6sqSVpnHAcwo/rLk9meBeu/UKfKBHdXD5kteNuQkSRV0ps3E92934U7a9qbOZEHq/5FW95iS+spSapmCrsxq/rLx/Fo4phpxqdsUnna5rzunowkKYlx7Mn8qi/OovuPB87Wv9LsWvatuqvzOHtZRUlSEu3owSNVX2xK/R/vofkxZnrwn6pnai7lfGsoSapBdxbwbtUXd+QRvqsaMzdUPTq2A/9LOkiAJEnf688LVW/YrENTBn//zx/OzWzK59Rff5q6fOBZGUlSCj5kp6qPDFjFlkz7PnG+d2XlkIGfGzKSpJRsz1lVX6rPpevvzTRlVuXRMFvwhU+RkSSl6Ds6s6jyS4toz5If9maOqjrk8nmGjCQpZRtxbtWXmnH4j3szrzBw/fca8wVtrZokKWWz6Vz1wWcvcND3ezOb0L/yOycYMpKktLTj+Kov7Uu772Nmv6rXLZ9ivSRJafpJ1RfqMfD7mKmyL7MZu1stSVKa9qZT1Zf6fx8ze1d+9ahqwzZLklSbOhxR9aUBUIfObFotfCRJSlu1/OjMZnXoXfm1uuxhpSRJGdir+tGwXnXYqvIrPb1jRpKUkVb0qPpStzp0q/xKD+skScpQ96ovbFWn6qMxu1klSVKGuiXYm2ld+ZWuVkmSlKFqGdK6Ds0qv9LCKkmSMtSy6gtNq8VMM6skScpQtQxpVqfq2MxNrZIkKcKYaVD5lfpWSZKUoQbVXnBcGUlSDhkzkiRjRpJkzEiSZMxIkowZSZIxI0mSMSNJMmYkScaMJEnGjCTJmJEkGTOSJBkzkiRjRpJkzEiSZMxIkowZSZIxYwkkScaMJMmYkSTJmJEkGTOSJGNGkiRjRpJkzEiSjBlJkowZSZIxI0kyZiRJMmYkScaMJMmYkSQpOvUK+eEz2YxVefmkxTRxWUtSqe3N3JWnkJEklWDMrOHf1l+SjJlceYEvrb8kGTO5cmfePqkB9V3SklRaMfMVz+ftswbSwCUtSaUVM3exJm+fdbTLWZJKK2bW8N+8fVY9DnM5S1JpxcyQPJ7+35vWLmdJKq2YuTOPn3WUS1mSSitmpvFSHr/gkS5lSSqtmLk7j6f/d2Njl7IklVLMrOaePH6ah8wkqZAKMHTms8xI+l5DWtOUpmnPczGfJXy9zJiRpFKLmTsSxsHBHMuubE7djOZ5MxcmfH0HNnUZS1IpxcwXvFLttS25j52zmutjSV73xkxJKrGYuYu1VV7Zg6dpldU8v+YdY0aSjBlYzb1VXunJYFpmOdfHqkXX97ahi0tYkgoqz1eaPV3l9H9Lns86ZODxJK97+l+SSixmqt79fxebZT1PD5lJkjEDwGRerfTfp0cSBE8kOWTWg54uX0kqpZi5i/L1/qsd10cyV68ykyRjBoAOlcZKviGCszLwNSOMGUkyZgB+wVRuogMAe3NiJPN8PMkhs85s49KVpNKKGWjCBUzhXnpyO2WRzDHZIbNjXbaSVHoxA9CAU5hAt0jmlfwqM4f/l6QSjZkoJTtk1pEdXbaSZMxkK9khs2MiOiQnSSrhmJnpjZmSFLh6cW58srHM2rFLiS3G2UznK+awhJUsYjVLaEJ9mtKQxmxMJzpVupRcCsO3TGc6s1jKChaziiU0oR7NaEAT2tKJjrSzSMZMoWMm2b5M3RJYdHMZyUhGMp7pLK916kZsRh/60Y/taW6/V8Es4EM+ZCRjmcayWqfegE70ph/96BfJfXYqhLJKN+YDo2Jzv8lMOibZmxnKgCJeZKsZzhCeS/K80NrVYWsO4VB2ivuJOcXKGt7jWYYwoepPTsq6cwgHs3u8t41LwGi2LZ6Y+QcXJHx9I2YVbUd8g7t5jnmRzKsth3E2O7hWKOfe4y6e4ZtI5tWKgzmTPS1qjGImxhu0yQ6ZHVGUIbOQW9mavXkgopCBOdzNjuzAPSkcupAys4S72Z6d+XdEIQNzuZ+96M1tLLK8MRHbmJlVQmOZLec6NucXfJyDeY/kDLpwO6tdFxSxVdxGF87ioxzMezznsTk3ssIyGzO53JdJfF5mQ/YpqgVUzr104/LI9mESmcm59OJJ1wZF6HG25jxm5/AT5nIJ3bg/43M9MmZqjZnEDqNBES2e6ezHaXyZh0/6jKM5mm9dIxSBORzBICbl4ZOmcQr787UlN2aiN4u3k7xTTIfMHqBPlQfB5daT9GaI64SyNJjeDM7j571Cbx6y7MZM9PsyiQ+ZNWW/Ilkwazifk5mf9/g+lAs8CKGMlXM1RzAnz586jxM52/OLwYrpRVnJDpkdRKOiWCxLOL5g+xX/YD53FdWhR+XLCs7gwQJ99l3M5n80cSG4NxPVNndxX2U2n70LevDqPg7yImelbSkHFixkAJ5hAAtcDMZMVPsyaxK+vgEHFsXKeigjC9yGoRznIQilZRWDGFbgNrzPYW4gGTNRxUxiB9CsCFbWY3krgHY8y2lJzn9J1ZVzNs8H0I43OdYNJGMme8V9yOwSngukJQ/yV9cPpeiP/DeQlgzhcheHMZOtx5McMqvPwbFfHEO4NaDW/D6I/SqF7w3+FFBrbsrr5dQqyphJdshsYOwHCp/GKUFdTLyaE/jOdUS1+IYTk2z6FUY5pzPdxWLMZK6Yb8w8L6dDymTiK65wHVEtLmVGYC2ayy9cLMZM5pIdMqvLYTFfFC8Hc1Zmff/hfdcS1eAd7g+wVYN5wUVjzGQq2SGzvWkT6wWxgvODbNdafumoAKqhf/wi0P5xEStdPMZMJor3kNl/8zLQYCbe41nXEyXxJB8G2rLPeMDFY8xkItkhszocHvNtwhsDbt3fXE+UxPUBt+067/wyZjKR7JDZrmwS68XwFBMDbt0IL2xWQq/zXsCt+5RnXETGTLqK95DZbbZP9lv7rTFTeE8kOWRWxpGxXghf83rgLRzMYtcVVbEw+KcTvcZMF5Mxk55kh8x2YLNYL4SHgz+GvNT7qlXNk8EPU7mGR11Mxkw6ZiU9QxD3Q2aP2UbZb+23xkzhPZF0QIsjYr0I5hd82P9UvO64t6pkFW/GoJXvs8hFZcxkv13Sl61ivQjeCGo8qGQWBHt/hArjvVicr1vFcBeVMZOq2UV7yOz1mLRzmGuL7Lcq5phJfsgs7jHzke2U/dZ+a8wUXrJDZt3oGfNFMMF2KobG229VXDEzO+kR1kExXwAzYvNEl4mscH1RhWVMiUlLZ/ONi8uYSUXxHjL7PDYtXc001xdVmBKLC1fito4ZMwWV7JBZZ7aJ+QKYFaO2eke17Lcq0phJfsjsGFdXV1fZb+23xky2iveQGbE6bjzb9UX2WxVnzCQ7ZNaRHWO/AJbGqK3LXF9UYUmM2rrcxWXM1L4tMjzpvkxZ7BdAnB4ku8r1RTHsCz6s2Zip1ZNFfMjMmJH91n5rzBRcskNm7di1CBZAmX1Q9lsZM4X0TdJDZkdStwgWQBPbqhhqHKO2NnVxGTM1ezzpAPRHF8UCaGpbZb9188iYKaRkh8w2Ym9XV9uqAmlmv1WxxEzyQ2aHU68oFsDGMWrrJq4vst+q2GLmiSI/ZAadYtTWjq4vst+q2GLmsaS77AOKZAF0tK2y39pWY6ZQvkn6tPHD2KBotgrjcvCvdayOxyu3WtIiJi1tQAcXlzGTXPEfMoOGbBmTlvZ2bdF6esWknd2p78IyZpJLdsisMfsV0SLo48+K7Lf2W2OmEJIfMju4qK6E7207Zb+13xozhVAKh8wAdo5JO3d1bZH9VsUVM8kOmTXkwCJbXeNw7LgVPVxbtJ4+bBiDVjagn4vKmEnm26SHzPaneVEtgiaxeND07nF5nrfy9tOxSwxauUOsRl8zZvKsVA6ZAQyMQRv3cV2R/VbFFTPJDpnV55CiWwiHxqCNB7muqIrDXbcU55j5ljeSbp20KrqFsBNtA29hT7q6rqiKrnQLvIUbs52LyZhJppQOmUGd4Le5DndNUQz7xWGeUTRmkns8yet1OawoF8NJgbfvRNcUJXBK4O37iYvImEnmW15P8s6ewR9eysxebBZw67b3TmoltHXQV0l2ZncXkTGTzJNJD5kdVbSLIeTtrlNcTxTDvnEyZS4gYyaZx5M29siiXRDnBnuTZlNOdT1REj8N9tmU9TnLxROIAEehX8Q0tkj4Tu8iHtK7A0fyaJAtOzUWd3urMFpwMv8KsmVH+5yZYJRRXvmFUbG4J70YvRPk6Et1+Dj4y1ZVSJ+yNWsDbNeIWIxSUIxGs221XxEFYpcgnwh6jCGjGnUP8iaDfQyZoDZWFYw/BdeiulztYlEtrg7wZ+T3LpaA1LME4diV/XkpqBadmGRc5nKmMInpTGc2C1hQcWVgfVrSko3pQhd6+EjnktGT4/lfUC06iD2SvDOViUxnOrNYwAJWVWxM/dBvt6BHbB4+HSeemwnKeLZNejF3/jXh00qnUVcxntGMYjRjWFjrflBPdmIfDvQCghIwjZ4sDaY19RlTafNoDRMYXfG/ebX+IHZnJ/pzMBu5WDNU/dyMMZNzi1jIiop/N6dBLY8xuIibgmn5X7hy3Tbgi7zEUBalPY8G9OdUjqaBHSFmlrCQZRX/bkrDWjYX/sxvg2n5pVxX8a+veZGXeLXWcKmuHntwMsfTyI5gzIRoIWMZyySm8gWzmcvKKu9vQDs2oS0daMdW9GXLSkcuF9CTGUF8j26MpT4jeJwX+CzLeW3M2VxISztH0LEyjjFM4gumMpO56zaNftCQtnSgLZuwMV3pQ/dKd3qtoDeTgvgeHfiEZozkUV5kXJbz2ojTubRIRx4xZmJpFq8xjDeZVLWktdiAXvSlD7uwHXWB5zkkzTnkQj3uZSIPMDmyObbiSn7BBnaUwHzL67zG63yW5mXJDdiaPvRhZ3akHvAOe7Cm4N+mjDv5hvv5JLI5NuNSLg72JlRjpmRM5wke492s7x5oxQAGMpDruCOAmFmTg7Dryn1eaBrQhtGTPMbwrMOhOf0ZyEDu5/8K/p3qUp6Du3g6cU8sHuJmzERgMauAOgGdVF7Ly9zKCxF37I2ZVbRdsC5X8AcvcCy4YdzG0xFfblLM/baM87jOffFijZmVvM5wRvI509cdLa7HJmzBduzCfrWcUM9txDzEn7I+a1GK9ufRAi63UlfOYH7PWAuRtl0ZTGvLUGwxM4rbeLTGS2cbcBDnsl8B2jaEXzHeHpWhPjzniFMF2ou5nJGWIUNdeJ6tLEPaMRPsKABfcizbc3ct92es5Gn2Z3c+yGvbZjGIQw2ZLIxlH+ZYhjyby0/Zx5DJwmQGMNUypC3QmHmIPjyW8inot9mVP+Tt6qxH6Zn0UQVK1UQOYIFlyKMX6Ml/A7iGMd6+Zj9mW4ZiiJm/clKaP0GruZoT83D//Gou5rgMbvZSdaMYFOTIvsVoLX/gEH8eIzGJQ6vdC6fYxcz9/Cqjba6HuTTHLVvIfvzdPhOZV/iLRciD5RzJ1UZ6ZD7gCosQ75h5J4tn3t3MXTls2Tz2ZZg9JlJX85ZFyLElHMIzliFSN/OsRYhvzKzi5GqDXKTjl3yZo5bNpT/v218itpozPACR45DZn6GWIWLlnJPB+H7GTCDuznJwk+U5embLSo5mjL0lByYGNFRo8VnLSbxtGXJgJn+2CPGMmeURLLr/5mAAv3LO5nX7So78mZkWIUcuZbBFyJGbmGgR4hgzr0YwNvFqHoq8Xbdxrz0lZxbxV4uQEw97wUoOreQPFiGOMTMkkrlEfXJukteV5Ng9zLUIkZvBeRYhpx7N2ZlgYyaHno9kLh9Gen/AGk5jif0kpxZzu0WI3FmGd46t9rxi/GJmEdMjmU95hM+agP8ywl6Sc7cG8KSS4vJ0RBttqsndboLGLWa+iGxOUyKb01J+bx/Jg5m8ZhEi3c7+lUXIy6axdyTFLGamRzanaZHN6Wa+to/kxUOWIEL38KlFsN8aM4m2wKIS1bAaK7xSJ2+eYLlFiKz/e+1evrzIdxYhTjETXVPqRjSfR/jGHpInC3nDIkTkhQgPQKtmq3jRIsQpZhoGN6fb7B959LolsN/ab42Z3NossjltHslcxvKe/SOP3JuJxnS3r+23xkwynakX0Zy6RjKXp+0deTWSxRYhAs845H9eTfIyoTjFTAO6RDKfunSLaHVVPq3K86O2izdmlF/eWRejmIG9I5nLdjSPYC5f8ZG9I8/GW4KsLfRcQd5NsARxipmBkcxl30jm8ppPTc+7jy1B1ob7/B5jxpipOWYaRTCXgyNpy0j7hqtrDHng0X5rzNSoBcdkPY+e7Orq6upastw8yr9J7kHWol5YzTmb+7Ocw1lMZTTjmMYclgEb0pFe7EDftOayitH2jbyby2KaWgZjJmZWMyOimyiMmYgt5SM+ZDqzmEMT6tOY9nSgF9tk+QP/f1yU8PUenMy5tEhxLlMc+qQgZkV0MXqp+jbSh2Ao9X5rzAQWMwt5jPsYEeEYZutLNjzMJ/yaf3A9J6U0l2n2DGMmhuy3heq3qkmez80s5fdswpm8maOQqa0z/ISTU/pkn4rn6hpH9lv7bcnvzbzIWXxV4C/8AMv5H/VrmWq6PaMgPORjzNhv3ZvJwu0cWvCQAXicy2qdZoY9oyB8FmF2ZloC+20px8zfOLcgB8oSuYW37TZB8sILf+7iaIUlCCFmhvKbgL70Ws6oJfKW2TNcXWPIfuvmUcnGzGxOZE1QX/sznnd1NWaMGdlviyVmrmNOcF/8LrdO/Jl0q1r22+KImbncEeAXf6HG0/xl9oyCqGsJsmK/td+WaMzcGeTjqtbwZg3vNrFnFIR1t37W3ZjJQKiPjB1ptwlOY0vgz5391phJ13LeC/Srv+/q6s+k9ZN1j3/MjAj2tOQEu41bhf7cyX4b/5j5ItivPp+1Sd9rYc8oCOtu/ay7MZO2b4P96mtZmPS9zvaMgtjMEmTFfmu/LcmY+S7gL78g6Ttd7Bn+TMaQ/dZ+W5IxszDgL78o6Ttb2DMKoBHtLEKWP3feOVMIm1uCwsZMg4C/fMOk73So4T3lbmX1RzI7TQzqAmjjo8VrUS/3HT/klTJ5+m7FuFgswPY8W/GvXVmZZCV4AYBydg987KWtXB+z1j0mj9hqxPCKfx2Y5Im3DRhR8a+DAhysyn4bVMx0CPirt63h3d1iEjPd2B6A75KEDMxjm4rBMLbgk6C/y86uj1nbjddj0c6uFf12NXOTTLGSzrSq+BmfY7+NtZwfNAv3LEenGjN2t9hsvX4v+fM+V6972FXoW127uD5GEDPx0K3i/2fWMHb79CrT2m+NmSS2Dfar963x3d1jsgB3rzVmfnxv18B3rPu5PmZt13w+EDcLe1T8/5ex77fGTAAx0z7Yiyxr3tXdnE6xWIB7p7G67hX0N+nrPewR2JDesWjngDQ2j8Lut5uxid2u0DEDhwT61Q+s5f0DYrD4eqw791VTzPzw3vY0C/i77OfamJd+HYJ2bJ1Gv+0S9Caf/TaImDkhyC/ejT61THF8DBbfPuv+9XkNU/3wXj32DPi7HO3aGIk49NsB6y5dT6XfQn/7rTFTs53YMcBmnlvrFHuxcfCL78R1/5pcw1Q/vndssN9kc7ZzbYxE33WXhcSh336eUr89Lthv0nLd4T8VNGbgN1nPofoJ+S2zuvGzDafXOk1dBgW+8HqsO/lYXmPM/LgqHxXs+Y+jvDWzZPZn2q93QDq1zaP9gr3t9FDq2+HCiJnDsjzPcSptqr22gsuymOMfUzpLcUrgC++n6/41q8YnlE5fd09NU44MfvtW2fpJ4A8NPmXdrQTL+aqG6Rauu1+mXqCH3u23AcUM3EHrjP92S27iswQ/nRdlfLH0XpyV0nT9gj4mvAEnp7RNCGvWexzD6UF+l90rbtZTFLoEuzHx/VGCH/vgFzU8jKNyv/5pkHu7PbwAIKSY2ZT/ZXiQqy2DacKkaq+XM40nMrqUsD0PpLy1d0XAi+7s9c4dfV7LtD+urv2DvGf5ItfESIXcb49f7zbh2vrtj+/34eAAv8uFHuoNKWZgXx7I4CjmFrxND8YlHItrJJ0ZnvYQ3C14no4pT71/sLeXNuZXCWOkttUVfhvcd9mCw10TI9VvvWsQw1KP36fRbycH3W9br3c8QUHEDAzieVqmubK8TVfgg4TvfgBswfC0bkfrxHC2SasNvwt0wf280nVwn9Uy9cT1/n1QcHfbXx74uYQ4+l2g29kns2Ua/Xb993dk/+D2ZRrZ0UKLGRjImJSPZTbn77xT8VOaOGZGAtCBD/hdigfkjmAUvdJs8xHBdW6A9vy60n9/XMv0Eyr91/VB/QT15kzXw8jtGeRJ8xb8KYt++7fcj/Sbhs242G4WYsxAJ15iaK2DRzTnXD7hwnWd6v2EU41nKQAN+QMfcXQtXXA3XucpNsqgzbeyQXCL7Z+V9gtXJTh3RQ2r816cFtB3ud59mZy4gQ2Da9ONVUZsry1mJrJ6vf/qG9Q5vL+5LxNqzAAM4HXe4qKEN5E1ZyD3MIPb1ju5/22VbZofrOatdf/emseZxtX0TfCT1ZGf8SpvZTwyUlcuDWyhnVDlSqKJSR8C8IM5VZ7pcV2CS8QL4zCv1cmRjbk6sBbtX2XzZhbf1vIXK6pcJHB1MM+p3C3gW53DU0Z55RdGpXnuIhvTGMfXzGAxzWhGW7ajR4LceyzpAr2Cv1Z7bRHv8RkLWcBqOtGJLSMYSnAFu/FhMItsUz6scnn4oyncJT1s3SCbtVU1nzZidBoXZCg9a9iP14JpTRs+rDI22VAG1vpXj1cZzGUo+9fw6IB8acLIGIy1UCijq104VdCDnZuxWQpTDU36TqJVqBkDU+i86WnIk2zHd0EswkY8Ue0epAkp/N2EKjEziIv4e8G/zd2GTA7V5SG24+sg2lKfR6sNgJlav60cM/vwxwhGFcnWzYZMWmLwcIrk22MfMS9vexD/DeK0eRn/SXCdWGqra1XXFnyA9Z9zhGtgTrXlsUAGQ7mlymZO5v32VwUfrPJozrBrFVfMfFLD6e01PJu3dhzCHwKoxjUJD499nNHqWo9H6FrA77IL17v+5aHKNwXQiks4J7J+W8a/83hgv7qtudtuVWwx878a3304jy35LZcXuBZ/rHRL5g9W1nqdWbItx3a8lvbtrVHpytNeqZOnfcZrCtyCi5NsUKQSM4kub9mQl9c9rybfOvA8LexUxRYzj9T47ivrBtfLh79ydgEr8Zck90FXvugzme+YleDVTrxckGf/tecV2rr25cmvubKAn34pNyR8fQZzU/jrxBfrt+HlguyJt+QlNrVDFVvMjKxlS301T+axNWX8i/MKUocG3JH0p+KjFOfxUZK9ijfWG2MqPzrySjAXppaGv3BVQT63LtdyXZL3RmXVbzfh9bwPBNWaFwq2F2XM5NA/U5iiPK/lupWb8n47YRterWE/6oOUI5skQfNOXi8G2JoRrqx59yf+m9UTmjKxIc/U8LiObPttB97M6wPgO/MWO9mRii9mvuahWqcZz0t5btUFPE3zPH7ejnzAHjW8n+rqmny6VryctwFf9mR40E92L16n8nIWj+NIXy/e5aCc9tumPM0leboCdFveppudqBhj5oqEIzNXdQmr8tyuQxjNnnn5pIb8hbdrvLtoFWOyXl2hAXfxeEZD8aTX2X7F0DSHT1V09mIsB+blk+rx61pvYByZ4rxG17B+1+V6XszD2cXzGEF7O1Axxsy7tVxl9oOPuSPvbevMMK6jYY4/ZRc+5Mpa7qAdy/IU5zabL2t8/+gc/wi152X+L6jBD0tPe57jdprm+FP68g7X1LJ2TE354p1ljK/x/f0Ym9MRLVrxVJDjGhozESjngpTPuvyu1rGRclG4SxnHUTmbfxce4e0UzmF8kMY8a9t+3ITneabSQO3Rbd2ez/hgn4FSSso4hwmcnLMVvyP/4aMUHjURZb/diEcYGsGgUonW8p8ywZuIizdm7k8yLnMi8wo0SOCWPMFbOXgaZSdu5mOOTemo88g05pvKqn0o47medpF+n30YxS20cm0LxKbcxwcMiHy+G/NXJnJaSj8qUffbAYziXxFfbLwz73JPpec6KdONmwIOnVmTxWmdcalT0EHPh3Ezz9byVPNU7chFHJPGoaW+jE3j5/7VFKdczr1cX+sjdFPpXgdzeY0XMKhw3uFmnkjprqva9eEiTkjjMPIAhqU87TYpX/y8ioe4NqVBbGpfVy537PAMVR86M9iYiZvJ3M5jTMtiDh04lhPTfLLlEjZMY7zaFsxN47qcNbzE/QxmWYbfpzWDOJ+edo2gTecOHslqg6ItgziB3dL6m7W0ZGHKU9dnQRojRpQzjPt4kkUZfp8WHMn5bGfXMGbCVM4HPM7zfJzWvTx12Jb+HMIeGRzBfCvNPYXP0r4VcyFP8iJD0zr71Y79OY59Axm0Uan8MDzOEMaltUdeRi8GcBD7ZHAf2Sdpbn6MYJc0P2Epg3meVxOOfZHMRgzkeA7M+aU9xowxE4HveIvhjGUi05OuuHXoTB96sT17ZnGJ741cktb09/OTjD5nLaMZzhjGMD7pI9Qa040e7Mbe7sHE1ALe4i1GMYlpNewjd6ZXRb/N/NF496b5/NabuCDDDb/xvMkYRjEh6V55Q7rRnV3pT684DFhvzKiq5XzObOYxj3mUAxtShza0ZWM2iWTgyCMYnNb0Z3Fnlp+4itl8xRxms4YFQD1a0opWbMpmQTwqQVFYwRRmVvTbtUBz6rIR7WhLRxpHMP8zuCet6Y/iiSw/cQ2zmMEsZrOG+UAdWtGKVnRkcx8Sbsyopm21Nmk+bK0bn1o2FVxXJqc1fRtmuxET45hxLzHGxqX9RM/PmGnZVGBfpxky8A2fWLYYM2Zi7I0M/uYty6YY9ts3LZsxo0J4M0+ruGS/lTFTgtakcYPbj161cCqwTPrgaxHd/ixjRmkYmfaZGYDPmGLpVECfp31mBmBOyiMByJhRZDJ9zs4rlk4x7LcvWbrYclz2Elxdz7F4aZrLNyxmBUtZxnI2oBGNaUhT2jggaB777a8tnjGjfJqfxgjWlQ1llcPA1GopoxnJOKYznaksTTpdEzajE53oQz+2ieSW2+K2ktcz/MsRLCjoALkyZkpwmzDTkXUX8hb9LWASyxjKEN7h4xTru4SP+XjdyrQ1u3AIA4ybpN7MeEjL1bzK0RbQmFH+PJXV3xoziQLjEQbzag17LrX/EI5hDLfTmIEcwbE0saiR9tsnjZmYcrCZWFpBm4y3CqED0x26o5KP+Rf3syDSeW7IqfyMHhZ3PWvpmMU4FBsyhwYWMXgONlMkXs4iZODrtB6RW+w+ZH+25taIQwYW8A+25kAvxF3Pu1kNdrSAoZYwloyZWHqqwH9fLKZwIjvwcs7mX86L9OMnfGGp7bfGjOJkJc9kOYfH03rwWnFaw1/pyUM5r8RaHqQH13oXO+VZD+f/dFqPbpcxo4w9l9H9/+v7nBElXsPJ7MWvWJGnT1vBFexd8vs0w7OuwDe84OpvzCgf7o1gHveVdAWfYhvezvuPbN+s90Ltt/e5+hszyr3vItmieyTpQ2uL380cw+ICfO4ijuKWkq36sqwPmQE8y7f+BBgzyrUHWRnBXBaU6JZ1ORdxYcHOk6zhl1xSoufFnozkWr6VPOpPgDGjXLs7ovncWZLVu4KbCtyCG0t0bK6o+u1d/gQYM8qtoYyLaE6vMabkqvcXrgugFX8NohX5NSrjscyqGp3Rc5ZkzCiNbeHo3FRitfsfvwlmn6rUDv38PdB5KR8cbCZWJtIjwvMKDZnKxiVTu8/ZnoXBtKYpH7JVydR+JptHckbxhx+tj+nuj0GwHGwm9vsyUZ68XsE/S6ZyyxkUUMjAYk7M2107hXdrhCED5fzDn4JYMWZi5DPuiXiONzGjRGr3R0YH1qIPuaZEav81N0c8x7uZ6M+BMaNcuCzyoTYWc1VJVG5ypOe0onItk0qi+lexJOI5ruIyfw6MGUVvKM/mYK73lsQIwhcEeYBqBZeXQO0/ysmd+8/wmj8JxoyitTZHP0lrubjoa/c6zwXasqfzPuRN/l2eo5thL2aNPwvGjKL0Hz7K2Y/w4CKv3d9sWwGDNFfPiBkTyRhpygcvaI6FxWyV1QOharYl44v4qYTj6Bvw8C5ljGProq39Snrl8PxTeybS1B+H4FS/oLmeRYmDt9g9p/P/gN2KtnY3Bz2GWDk3F/GwPx+wTU43W9/iAH8c3JuRCms5G0f++OVotWQmDV1QKuK9Gc/NqKgNCTxkYB4vuphU1IwZFbWHbaNkzEi5siZn1zlF6ZWCPf9GMmakrHzI/Bi08jvGuqhkzEhxFJcnkwx1UcmYkeLofdspGTNS7oyPSTsnuKhkzEjxs5zJMWnpxEifxyIZM1KefrzjMrjiqtgEomTMSOvMsK2SMSPlzuwYtXWmi0vGjBQ3c2LU1lkuLhkzUtwssq2SMSPlTpyu3lrl4pIxIxkzxoxkzEjrrLGtkjEj5U7jGLW1iYtLxowUN01sq2TMSLnTLEZtberikjEjxU3rGLW1rYtLxowUN51i1NaOLi4ZM1LcdLStkjEj5U4H6sakpfXZxMUlY0aKm4Z0jUlLu1HPxSVjRoqf3rZTMmYkf763dlHJmJHiaIeYtHMnF5WMGSmOdovFRQD1jBkZM1I8NY/FYbNtYzVegWTMSOvZ2zZKxoyUO4fYRsmYkXJnTzYMvIUt2dXFJGNGiqv6HBh4Cw/01kwZM1KcnRB4+050EcmYkeLsQNoE3Lq27O8ikjEjxVl9jgt6X8tDZjJmpJj7GWWBtqyMc1w8MmakuNuafQJt2b70cPHImJHi7wLbJRkzUu4cFOSgM304wEUjY0Yqjm5+dYCt+oOrn0qCl7moJBzJtowKqkX9ODzpe8v4kunMYQELmA/AhrSkJe3oQsdgL2iQjBmVsDKuZd+gWnRdtbiYwuiK/02v4e8a0pOd2Yn+bOpiVUzWvvLKL4xiG6uionQsjwXTluN5aN2/P+NFXuQdFqQ5j+04gpPYwgWroIxmW2NGcbaKz/icL5jKTL5jLguBZSynJdCc1mxMOzrQlk3oSqcqfzudHiwJ4ls05VM6sIyXeZGX+CKLOdXhQM73UgIZM1K2ZvAab/ARE1iR8t+0ZBv60Ie+9KYBAP/k/CC+zW1szX08nvb+SzK7cC2720lkzEiZddrHeIpPsppHE/ZiIAPpxQG8XPBv1IBNmBr5XI/hn7S1u8iYkVI3j3u4k4kRznFjevJa0darLXdxmN1GwcWMF+4rSNM4h45cGmnIwKwiDhmYw+H8qup2o1RwxoyCM4tfsBV3stRSpO2vnMByy6CgeN+MglLOHVwZ2anxUvQIcxlSccmD5N6MVMkU9uJcQyZLr3ASayyDjBmpqufox3DLEIHHHftZxoxU1R85jHmWISL/5BGLIGNG+kE5F/J71lqICJ3NZIsgY0YCWMs53GwZIraQU724WcaMBPAb7rIIOfA2D1oEGTPSv/mrRciRK1hsEWTMqLSN4FyLkDMzuNEiyJhRKVvKaayyDDn0j0AefSBjRiqIy5hkEXLqO+63CDJmVKre4V8WIedu9HozGTMqVZf7A5gHk3jHIsiYUSl6hrcsQl48ZAlkzKgU/d4S5MljDqQpY0al521GW4Q8me2ApDJmVHpuswR59JolkDGj0vINj1uEPHrDEsiYUWl5hpUWIY/eY5lFkDGjUvKsJcirFbxvEWTMqHQs41WLkGfjLIGMGZWO4Y6zlXcTLIGMGZUOD+AYMzJmJGOmqIy3BDJmVDo+tAR5N4/5FkHGjErDN8ywCAUwyxLImFFpmGoJjBkZM1LufGkJjBkZM1LuTLcExoyMGcmYKTYLLYGMGZWGxZagIFZYAhkzKg0O4lgYyy2BjBmVhqWWwJiRMSO5N1NsPGgmY0YlotwSFMQaSyBjRqWhkSUoiCaWQMaM/LmTdZcxI/lzF0uNLYGMGRkzsu4yZqQsNbMEBdHUEsiYUWnYzBIUxKaWQMaMSsMWlqAgOlsCGTMqDV0sQQGUuRcpY0alYhM2sAh519YrzVQw9SyB8r1d3YUJsWhpI26q+NelLEo4RTOur/jXBYGPGeY+pIwZlZCdYxIzW3I2AKs4N8kUS/kp9QG4iU+C/i472u1UMB40U97tFpN2blnx/zNYm2SKNcysMm240S4ZMyoZu8eknTtV/P+XNUzzw7NAdwj8u+xqt5Mxo9KxJe1i0c4BFf//VQoxs3fQ36QDnex2MmZUSgbGoI2t2DaNvZkdg76Sq79dTsaMSstxMWjjXutWjsk1TPXDew2CPix1lF1OxoxKy/60Cr6NR6/71+cpxAwcHuw3acz+djkZMyotDTgi8Ba2WG8PoKaY+fG9E2gQ6Hc52FszZcyo9JwUePuOX/eUz+V8XcN001lZ8a+NOCjQ7zLI7iZjRqWnP32Dbt/p6/41JeldMwBr+GLdv08J8pt0DH7PUcaMlANlXBFw6waudx/M57VM++P7h9EtwO9yfsU4BZIxoxIzKOBHAvwpYYwk9uNFAHX5dXDfpEnFgDmSMaOSU4/LA23ZQZWGZplUy9Trv39icENUnklLu5qMGZWqM9kmwFbV5/8q/ffHtUz/caXo/GNQ36UlV9nNZMyodNXln5QF16orq1ycUNto0pXfP5F9A/ouv6O13UzGjErZrpwWWIt68ptK/z2L72r5i9l8W+m/76RJIN+lG+fZxWTMqNRdR8eAWtOQ+2hY6ZWPU/iryvszm/O7QFbtf3mNmYwZaSMeD+ju+VvYvsor49OOGbgsiDHErnTATBkzEsBO/DWQllzEWdVeS39vBsr4L90L/F124Gq7lowZ6XsXcnwArTiQa1OIEFKaphmPsmEBv0trHvGAmYwZ6cet//s4uMBt2I8nqJfg9Uz2ZgB68wJNC/RdGjGYznYrGTPSj+rzGHsV8PMPYPC6oTLXN5O5Kfz1t8xO8OouPM0GBfgu9XjMRzLLmJGqb4E/y54F+uxBPJUkEMakOIfE0+3DYJrlPWTuKfieoWTMKEjNeJmT8/6pZfyRR5LudXyQ4lySTbcfb9Epj9+mCU8XoIaSMaOYaMi9/DGv4wI050l+W8MnZhsz0If31hvtObdaM9Q9GRkzUs37Fr9lCO3z9Gn7Mq6WZ7GkGjMja3ivPW9xRR5WtF0ZyU52IRkzUm0OYlwenvfYjNt5iU1rnGY6s1Kc29fMqOHdBvyV12r5rGxX41/zBpvZeWTMSKnYiEd5LIdPo6nHOUzknFoPz32Qxjxrm3YvPuY3ObryrDfDuCbh5diSMSMlcQwfc0MOnpVSxuGM5XY2jiA61jey1ima8Gc+ZlDE555acSsfFewaPcmYUYw15GIm8390iGyOjTibCTxNj4j2UNKftjOPMp5TI7pDvw1/YBLnuR+jwJVRXvmFUUE+akqlaxWP809GVO2oadqWEzktraevlNOK+SlPvRHfpLGfMp07eYCpWXyfHpzPaTS2eyg4o9nWmFEcTedJHmcEa9P8u7psx8EcT7e0P3Fimn8zOc2zSeUM50FeYHqa7dqU4zjRtVQxihn3txULnbiAC5jH2wxnOGNYWsv0rejNtvRnT1pk+Invpz19ejFTxp7sCXzKq7zJaCbXEqEd2ZW92TvlQ35SKIwZxUhLDuGQir2biUxiNvOYxzzq0ACoR1va0Z5N2DqCMzpvpT19ZuNMd6c75wOLGc9k5vA1s1kBrKScVrSiJZvSne40d/ErpjxoJiXUg0/Tmr43Yy2alOCgmVeaSQnM4bM0/2I831k2KQFjRkrgjbSvbCtP+zCbZMxIJevNjKJJkjEjpeS1PP2NZMxIJWh6Sg9nrmosMy2dZMxItXspo78q5xVLJxkzxW91xb0kayxFnmMm878TrKnot6stRdHx9sxYW8U4xjON6XzFNGaxmoWV3m9BPTZmMzrRic3oQw8XeEo/eJmeZXmZtW65pbQp9DHjmMZ0plf02/mV3t+QurRnUzrRkc3oTa+IBhuVMaOUfcsLvMtIxrCixunmA98yft1/N2Zb+rEr+7OhRUzqXeZmvFw+8AmWNfbHlxjBSEbXMljQAmAuE9b99wb0pR+7cAAbWcQYchSAmPmUwTzLu1keEqvPHhzK4XS2oAlcxvUZ/+2V/MUCJjCFwTzL8CwPidVlFw7l8AwGQlX+OEJzjK1kMHcyNMsB8Ssv/H04myPdpa2iC1My/tstmWgBK1nLa9zMcxH2W9ieszklR88ilTFTohZyA7czJyfz7sQvOY9GFnndGrBdVn8/nq0tYoWl3MItfJ2TebfjXC6mmUWOQcx4vjIGezH/oCt/zFHIwHQuoxv/8cq0Ck9l+fdPWkIA1nA3W3FljkIGZnM1XbmVVZY6eMZM4IbSkwv4JsefMp3T2TbtJ6wUpycL/PfF4V36clbOIuYHc/gFPRlmuY0ZZWo5V7Ifk/P0aePYjStZWeI1H7Xe9U2ZHjIYV+I1XM3f2DPrOqbqc/bhnFofcydjRgl8zHb8Le2HEmf787A7X5Z01e+NYB73lXQFp7ITV+b1UFY5d7Jjmk8HkjEjhrE7nxTgcz9gZz4q4e3whyOYy/0lfCf7B+xSkP4zgd0cIduYUToe4ADmFeizZ7IXz5Vo3Z9ndgRzmc3LJVq/Z+nPrAJ99lz253/+dBgzSjVkTi3oOZLFHMkLJVn5/0Q0n3+XZPWGcDRLCvj5KzjZoDFmlNrKenpez8gksoqjGV5ylZ/CsxHNaTBTS65673B8wS8uXstpJbsnbswojZX12CDuBFjG4QU5N1RIN0d279Aabimx2o3nwILuyfy4gXSsF+YbM6rJPE5kWTBtGVRSl4ku5L8Rzu0uFpRQ7ZZwXDDfdynHZDz0qYyZolfO6UEdbJnARSVU/burPEQhO4siO88TB+dn9LTRXJnOqZGOoCZjpojcwdOBtejOrIdeiYtFXBfxHP8SaWyF7LFI9wOjMIS7/TkxZlTdXK4KsFUXBHHEPff+EvmFuHP4W0lUbimXBdiqK/nWnxRjRlX9mu8CbNX0yLfyQzSNv+dgrn8viREVrmFakBttV/uTYsyosvHB7uZfm/MBEEPY9l2eg7ku48qir9yX3BBoy24vuSsljRnV4m/BDsS/jJuKvPbv8kiO5vww7xZ57W6s5THhhbOGa/1ZCYSPNQtkm7BrwM/NaMaXtCja2pezG+/kbO678DZlRVu7uWzG4mBb14DJdPTHJe+qP9bM5/MG4eagH860iDu4omhrP4RPaZmzuX/KEA4t2trdHnDIwEpuLokzi+7NKKXd+44FG3AwNT2Cui9CoejOZ0G3rz3TqetiKvjejOdmAvBq4CEDnzDaxaQqRgYeMjDTJ2sGwZgJQBxGlX3IxST7rYyZeCqPxaD7z7ugVMVzsWijw84YM2Is38SglROCP7Cn/JrBxBi0crZ3zxgzgtdiss/lUW6t71XXLxkzcTEiJu1820Ul+62MmTgabztlv7XfGjPKlRV8HpOWTnBhaZ3y2PSHz1jp4jJmSttnrI5JS79ltotLFWYwPyYtXRWbDTljRjnylW2V/da2GjPKnThdJjzTxSX7rYwZV1fbKvuC/daY0TrzY9TWeS4u2W9lzMTNStuqGFoRo7aucnEZM8aMq6viZpXrmIyZuFgdo7YaM7LfypiJnYYxamsjF5fstzJm4qZpjNraxMWlGPaFpi4uY8aYsa2Km2ZGooyZuGhpW2W/ta3GjHKnY4za2snFJfutjBlXV1dX2W/tt8aMYrgK1Kedi0sVNqGukShjJh7a0CYmLd0qRj8syv1GR5eYtHRjz80YM9o6Ju3s7aJSDPuD/daYEX2MQxkzOdPLRWXMaLuYtHN7F5Vi2G+3c1EZM9otJh1lFxeV1rN7TH489nBRGTPqSvsYtLIPLVxUWk9LesSglZ3YzEVlzCge21t7upgUwz5hvzVmBMBBMWjjwS4m2W9lzMTVwcHfkdKUvVxMqmIfGgfewnrs72IyZgTQmp0Db+G+sXq+iPKjEQMDb+GutHIxGTP63rGBt+84F5HstzJm4uwE6gfcuuYc5iJSAkcG/dyZBsaMMaMftQn6GPIgH3OrhBpzVMCtO4iNXETGjH50ZsBtO8PFI/utjJm4OzTYEW938P5/JbV7sIMQdY3FBdfGjPK6IM4PtGUXunBUgwsCbdcv/XEzZlTV6UFefLkpx7hoVIPjgnw0XytOc9EYM6qqOZcE2KqraOCiUQ0a8JsAW3VZ0NfAlZoyyiu/MIptrEqBLGILvg2qRVvwaY2XWi/nGxawgGUANKIlLWkd9MXZit5KujE1qBa1ZQpNanh/RUW/XQrABhX91g2qaIxm2yqv1LMo4WjGb7goqBb9OUFkzGE0oxjN50xndoK/qcemdKEXO7Gzo+OWyP7MHzklqBb9NkHIzGUUoxnNRKYzq+rWNVCXTnShJzuxE11dqO7NFK9VbMuEYFqzJ69TVvHvtXzEi7zDaGakMYcuHM7hsXkyiTJVzh68HUxr+vDhuu3ncsbyIiMYzZdpzGFTDuNw+gc/1mBc9maMmRz5li+YyizmMpflLGAtUI9m1Kctm7AxG9Oetgn2FYYxIJBvUI8P6QPM4WVe5GW+yXhOXTiX02lpp4iBuUzlC2Yyl7ksYxGrgbo0px5taU972tKBtgkOL42mH2sC2XJ+nT2BubzKi7zIzIzn1IlzOIu2dgpjJixTeYOPGMMY5qe0QnSmL33pQ186r9tvOJ3/BPFdruDXPMF9vMnaCObWhAu5nOZ2kSB9zTBGMYZRzE1p+s3pQx/60pcu6/ZUL+P6IL7LmdzMU9zPq5HEXkN+zm8cTcCYCcFKXuUphvJFxnNozs4MZCB9WUzfAE6obsDBPF9xaj8qrfkT56yLUxXeal7nSYYyMYvNhx0ZyEC2ZzX9GB/APvjhvMyiSOe5Ib/lQg+gGTOF9A53MDilvZdUtGEfGnBf0VZrP/5NRztNAEZxB09EdmVjSwbQmjuKtlq7cl+w43QYM0W+LfgAt/CRhUjzB+lh9rMMBbSWx/gHIyxEmvtt//VW5QxjxkuAMl5VH6QHPzVk0jaPg7nbMhRIOU/Rl+MNmbQt4TiutQwZ8b6ZjIzkbEZZhoz3As9idpD3jhe7jznLgMli0/IKZvJ3C5E292bStoxL2dmQydJV3GoR8molV7OtIZOlm/iDRXBvJtcmczRjLEMELmAjTrAMefI1xxoxkbia1pxnGdybyZ0h9DNkIrKWMwMa8aC4vcH2hkxkLuIdi2DM5Mp9HBHZhcuCpRxfMXihcmkw+yccfU6ZWcUJzLMMxkwu3MFPAxlOo3iM53KLkGOPMIgVliFS0zjXIhgz0bufcyMZdEWV3e7FFDk1hJNYZRlyEN6vWQRjJlpvclaCocOVvTX80srmzChOcA88Ry5gtUUwZqIzhaM87JAzb/G4RciJWRzKYsuQI+O5yyIYM1FZy0/5zjLk0DXuz+TEz/naIuTQte7PGDNRuYE3LUJOjWGYRYjcPTxlEXJqKk9aBGMmCpP4rUXIuestQcRmBva4b/utMaOkfuVZmTx4kWkWIVJXs9Ai5NwHjLUIxky23nO3OC/KvQwgUp9yj0XIi4csgTGTrV97ctrVNYZ+58npPHnYXwhjJjvjvQUrbz7kc4sQka88+Z83U3nPIhgz2fiXJcijVy1BRO50X8Z+a8zEwyLutwh59LoliMQqbxu03xozcfEsiyxCHr1hCSLxGrMsQh69w0qLYMxkHjPKp1l8ZhHst7GzlA8sgjGTmVW8aBHyzLGas1duzNhvjZm4eMsHmOWdz9LM3ji+tAj2W2MmHt61BK6u9lvZb42Z3HnfEri62m+VgvGWwJjJzIeWIO+m+Agu+20MzfNBIcZMJuYw3SLk3Wq+sQhZWeGWdUHMtATGTPq+sAQF4R0f2Znu/f/2W2MmLhyW3q1C+63st8ZMDnlRqFuF9lvZb42ZHPrKEhTEPEtgv7XfGjN2G+XOcktgv7XfGjOlYZklKAgfiG2/td8aM66ucqvQfiv7rTGTraWWwK1C+63st8ZM7qyyBAXhkzvst/ZbY6ZENLIEBdHYEthv7bfGTGloYglcXe23st8aM3YbfyZlv7XfGjN2G/kzab+17saMKmtqCVxd7bdy88iYyZ0OlqAgNrEE9lv7rTFTGrawBAXR2RLYb+23xoyrq3KljM0sgv02hja3BMaMq2s8tGcDi5CVTbxzpgAa0t4i1KieJUikKe2YHZMufljFv55Ocg94Ew4CoJzH3SYs+v3Bznwck5YeU/Gv51mScIr6HFHxr8GB32W/mVvrxkxm+vFcLNrZnUcBWJF0O7ZOxRSwceDRuZ3dLoJ+G4+Y2WRdr2yeZIrV3E9DAHoxwX4ba8ZwErvFpJ1bVvz/V5QnmWIRCyv+1TXw77Kz3a7k+u18FiWZopwZ9ltjprjtHpN2blvx/9NrmOaH97YJ/LvsYrez39pvjZnSsUPFDnvo+qexuu4V9Ddp54UXEejBRrFo54Ci6beNgo9BYyZYG7BTDFrZnB3SWl3LAv4ue9jpIlDGnjFoZb11rUyl3+4c9CbfTjSw2xkzmTomBm3cY901HFNqmOqH99rSI+DvcoRdrmT6bb91J/5T6beNgt7ks98aM1kYRN3g23joun9NrmGqH987KNhv0pBD7HKROCwGI2wVT78t4yi7nDGTuY3ZO/AWNuK4df/+vIbpfnzv5GC/y0A2tMtFomnwgV2XU9LstycF+0O1I53scsZMNo4PvH1H0aLiX8v4OqWtwj70DfS7HG13K5l+uy8dK/5VXuPezFesqPhXx3WXuthvjZkicyKtg27f6esFSXkN0y3km8D3Z1oyyO4WmUMDH0/hx347i8U1TLeWLwLvtw3X2y+TMZORxpwXcOu2XW8Lb3It0/54+OGnSe+6LqSzfVJKhOpxccCt22K9k+ap99tjgxw37Ce0s7sZM9k6P+AHbf1hvcuTa1tdf3y/VYDRWZ/z7WqROiPg/fDfUj+DftuIS4P7JmVcaFczZrLXmjMCbdmO612tU/OJ1KrvXxzcnsOx647VK6r98F8E2rKt+EmG/fZntA3su+xHL7uaMROFq2gVZLuuqfRftQ2X+HGl6Axr36Ehf7CbRe7iQKP7T5VG602n3zbm8sB+Oq+xmxkz0WgTZGc6lYFpxcyEKtEZ0uPDfkkXu1nkmnJjgK06hGOz6Le/pHdQ6+D2drMUlVW9RGmUI/RUsZZdeS+oFrVnAi3X++85tZ6IrM/iSkNivBDMDW9tmegdMzlyEC8E1Z4NGV9pH2sFTVldy998U+ks0/vswtpAYnyiDzNLYvS6gVHdm0ljh++fgY1adHulkCGFp3GsYmKl/z6wylZl4VxryOTMTYFdwPL3KgfyPqs1ZKr27R05J5DvcrUhk9ZvqGq1PdcF1JrL1j0vM/WYqT7N7UGMh3wcp9q9cmYr7gioNafz0wj67fVB3GA8kIvsXsZM1H7JSYG0ZH/+UuuqmEjVo+AteargY1914ja7Vk6dxM8CacmuCZZ1Jv22MYML/qiDNtzrD6cxkwu30T2AVnTnkQQDeqbyWN7x1V7pw+0F/S4NeDjQq/iKyd/pF0ArNuXJBIP5Z9ZvN+Pegg5qW4f/sokdy5jJhea8XPAhPLbklYRnMlJZXRNNczJ/L9h3KeNOdrVb5dwGPE/PArdhY15MeJHK+BT+NtEez8H8u4A/XDcEPF60MRN7nXipoENLbMWwhPdCzOLbFP7683XDEK7vQn5foG9zrWdl8qQNLxV0A6kTwxM+52h5jc+a+cG3zEnw6qncXKBvc4V3/hszuf6hf7lgg3j0YhgdEr4zLqW/X51kn+dqfl2Ab3NJgEOHFK+OvFqwmzW3YBhdk+xfr0lpDmMTvno+NxTgWbCnJTgzKmMmYn14l24F+NzDGJH0ePDIFOeRbLpruL3Sndm5VsafuN6ulFddeJftCvC5A3g/6c232fbbi3mIDfL6bS7i30E/5tyYKaIV9p08P/uijN/wFM2Svv9BivNJPt05DMnbuM31uJur7EZ514E3q10In2vn8VINV4Vl32+P4zXa5G0tvJ4b/bk0ZvKlJS9ycd4K15Hn+XONn5bq6lrT1uP+jGTHPHybdjy/3tNGlE9NeJLf522/tQ2PcmuNnxZFv92FjxiQh2/Tgse5xC5kzORTA25gaF7GBfsp4zmgxilm8lWK8xrPshre3ZK3+W2OLxTdl9Hsa/cpmLpczdt5Oeh7DBNqeVDd0pTumgH4ktk1boa9wnUJLpaO0i6M4ii7jzGTf3szlnNy+rO8Da9yT61DsXyQ8vxWMbrG9+vxR95h5xx9m6Zcz4tsbMcpsB0ZxcU5HTypO4N5rNaDWaNSGGgmtT5eh0v5kH1y9G024Pe8GfjTSI2ZItac2xnDgTmZ96bcl+Kq80Eac6192h0Ywf1JrmjLXBk/4TMusbMFoRE3MIFjcnIye2P+xbiUzgGl029rv1hga17lqRyM9H0kE7g6rxfIGDNK0L2f59WIt6R6828mcnKKiyba1fX7SJjIrXSOLGL2523u977poHTlMd7ikEhX/634J5/zsxR/lKPdPAI4go/5d4RjdezJqzwZxMh/8eeDACIxjn/wAMuznEtDDuS8Kk+SqVk5bfgujcMZn6Q87Woe5TZGVO0eaanPsVwWxFCHSmwS/+C/LM5yLvXYl3M5OK3Q2opJKU/bJuEtmomt5Rlu4fWsHhdQhyO4nJ3sHhmq/iAAYyYyC3iWx3kpo7CpT3+O50hapPl3k5Pc+pZs9ZmX5oXLk7mf/6Xxg/Bjt9qVExgU3GN1Vd0SnuNxnmNpBn9bl905nmPSvml5HhultQHzRZpnR6bzAA+mfJHB+vpxAsdFftjYmDFmIrWI13iTt/gopVOcDdiGvenP7jTN6NMe4fi0pn8to3t+JvMKrzCcb1KYtgN7szf7saldIVaWMozhDGckK1PaLOrF3vRnzwyfFvQK+6U1/WMck8GnfMkrvMKbzExh2nbsxd7s55NccxIznt2KWDMO53BgMZ8wkc+YxGzmMY+FFanegha0pw2d2JrebJXlAng77ekziZkudOFnwAzGMIapzGA23zK/YgulFa1oxaZ0oyfdIzuno/xqzMEcDCzjYybxGZOYxTzmsqDi/RZsyCa0oSM96UUP6mf1aSPSnj6TmNmUMzgDmMMYRjOVr5nNHBZUHFBrQSs2oiPd6EGPtI4KKP2jG+7NxFjfJCM+JbMfL1k0FdwAhqU1/fYpD02jEPdmvNIsxuamNJR65a3CVZZNBbaS99L+4Zpv2WLMmImx4WlfT7OYjyybCuz9tC83WJP2YTYZM4rEmxn8zRuWTTHst29aNmNGhfB6nv5GKnS/HWbZjBnl35xaxihLtjez3NKpgJYyPIO/GpnGbcgyZhSRlzO603kpb1k6FVBmGzpredXSGTPKt5fy/HeS/VbGTAkpZ6irq0ooZl7Manw9GTNK2+iUhtBIZHzKD0KTovYln2b4lzMZZ/mMGeXT4Cz2g56xfIpdv83ub2XMKG1PZPG3T1o+2W9lzKgmk9IeZmZ9b/CtJVQBfJv2YK/rG80US2jMKA7bhLCaIZZQBfBUSo/HqOnvZcwoT57OenWX7LcyZpTE57yf5Rxe9LCZ8m4Or2Q5hxEeNjNmlB/3ZX0HwUoetozKs4eyfgxFOfdbRmNGuVfOg5FElZRf90YyD2/SNGaUc29EcuDgg6yuVZPSNYFREczli6yuVZMxo7xtE7o/o3y7J6L5/MdSxk5Z1X3QUWxjVQL2DZtGNJR/S6bTxIIqL5bSibmRzKkRX9LaggZsNNu6NxNvt0f2vJh5nk5V3vwnopCBZdxhOWPGmImVFdwW4dz+ntETa6R0lXNrhHO7hRWW1JhRrjzErAjnNpEXLanyYEjG4zInMptHLakxo9xYxd8inuOfvTxUediXuSbiOf4ly0FrZMwoiTsi3SYEeIdHLKtyvg/+XsRz/MTzM7HilWaxMZ8tczBETEc+o7HFVc4spzvTIp9rKybRyuIGySvNYuxPORmH7CtutrTKoRtzEDIwl/+ztO7NKFpT6Jmj62uaMpH2Flg5MYctWZiTOTdgPFtaYPdmFJ3LcnYR52J+b3mVI1flKGRgJVda3pgwZmLhzZw+oPYexlpi5cDYyIaYSeRJ3rTEsVDPEsTB5ozM6fwdvEO56Vfv5XT+bSyxMaOobMqmFkGxswmbWAR50EySZMxIkowZSZKMGUmSMSNJMmYkSTJmJEnGjCTJmJEkyZiRJBkzkiRjRpIkY0aSZMxIkowZSZKMGUmSMSNJkjEjSTJmJEnGjCRJxowkyZiRJBkzkiQZM5IkY0aSZMxIkmTMSJKMGUmSMSNJkjEjSTJmJEnGjCRJxowkyZiRJBkzlkCSZMxIkowZSZKMGUmSMSNJMmYkSTJmJEnGjCTJmJEkyZiRJBkzkiRjRpIkY0aSZMxIkowZSZKMGUmSMSNJMmYkSTJmJEnGjCRJxowkyZiRJBkzkiQZM5IkY0aSZMxIkmTMSJKMGUmSMSNJkjEjSTJmJEnGjCRJxowkyZiRJBkzkiQZM5IkY0aSJGNGkmTMSJKMGUmSjBlJkjEjSTJmJEkyZiRJxowkyZiRJMmYkSQZM5IkY0aSJGNGkmTMSJKMGUmSjBlJkjEjSZIxI0kyZiRJxowkScaMJMmYkSQZM5IkGTOSJGNGkmTMSJJkzEiSjBlJkjEjSZIxI0kyZiRJxowkScaMJMmYkSTJmJEkGTOSJGNGkiRjRpJkzEiSjBlJkowZSZIxI0kyZiRJMmYkScaMJMmYkSTJmJEkGTOSJGNGkiRjRpJkzEiSZMxIkowZSZIxI0mSMSNJMmYkScaMJEnGjCTJmJEkGTOSJBkzkiRjRpJkzEiSZMxIkowZSVIJq2cJ4uAVHs/p/E9jF4usyL3Df3M6/2PY1yLHQBnllV8YxTZWJThz2ZK5OZv7pnxKI4usyC2jG9NzNveNmERLixyc0Wxb5RUPmsVCK36fw7n/xZBRTjTiLzmc++8NmZgwZmLi5/TM0Zx34gTLqxw5kV1zNOfu/MzyGjOKUj3+mpP5lnEjZZZXOVLGtTnqX9dR3/IaM4rWoQzIwVyPy9nWpgSwG8fkYK77coilNWYUvRupG/EcN8jpsXMJ4G9sEPEc63KDZTVmlAt9OSniOZ7P5pZVOdaZcyOe4yn0tqzGjHLjskiPc9fnl5ZUeXBxxOdRLrSkxoxypVek52cG0cmSKg86cmSEc9ufPpbUmFHuRLkdd4HllP1WxowqO4itIprTbuxoOZUnu7BzRHPqwQGW05hRbhfYmRHN6WyLqTw6K7L5eJ+XMaMcOyWS8U6bcJSlVB4dS9MI5lLPMSuMGeVeOwZGMJdBkaz0UqqacngEczmQjS2lMaPcOzWSfSLJfitjRgkdzoZZzmEz9rKMyrN96JjlHFpyqGU0ZpQPjbJe2Y5xwasAPzZHZ72B1dAyGjPKjyML/PeS/VbGTFE7gCZZ/HU7H8msgtgjqxP4TX0kszGj/GnM/ln89REudhXo5yabw70H+JRXY0b5lM1dLx56UKEcab81ZhQXB2X87Jkm7G35VCADMj7cW9dBZowZ5VdLts/wL/t7tY4KpiF7ZviXO9LK8hkzyq/98/x3kv1Wxoyrq6ur7LcyZhSNnWiRwV9twZaWTgXUnc0y+KtW7GDpjBnlW72MTuUPtHAqsEz64ICML3mRMaMsZHIydW/Lphj2W8fgM2ZUEJmsertbNhVY/zxFk4wZZa1v2mdnutDJsqnAOqV9dqYVvSxbjNWzBLk1g9nMZz7zWE0jNqCMNrRlY1pGMO+67MZzed8mXMIMZjGHtSxjOQ1pSUta0YnmLuwiMovZzGM+81nJBjQCWtOOdmwU0X74fWnug2e/PbyMGcxkDmtYzjIa0JKWtKRjJGti1BawNo2p6wf/iEJjJgeW8wFvMo6JTGRJkmka05M+9GI7ds7idsk98xYzUxjOWMYwhm+TTNGB7vRgN/aivV0gllYykrcZxSQmsjDJNBvQk170Yjt2oXEW/fa+PPXb6bzJWEYzlllJpmhHD7qzK3sHtKf/Z65PY+o7OSvwnlVGeeUXRrGN61vGJvI4zzOSFWn8TSN2oz+H0CeDz3s9zePcE+iZ9k/PS7zAy0xO42+6sT/HszNldoiYmMrjDOF9lqXxNw3Zmf4cTL8MPm9cmr39TfZI8xPW8CrP8wqfpPE3W7Avx7NnAGcSFrIVs1Ocdjs+COzcx2i2NWZyYzb38AhjsphDT47nBLqm9TeLaJHG7nUz5qfVIUfwAI8wN8Pv05kTOcdzQYGby395mJFVfwbS0JXjOZ6t0wyBDZPu51dXlwVpjYT2EffzcNK9l9p05DjOpUuBl8u/OTPF/YQ3g7usx5jJiVHczMNp7cEk7zT7cRH7pbEfsDUfpzzt3gxL+Wfgcf7GqKy/T32O5zJ620WC9DH/4H6WRjKvvbiQw9LYiNmT4SlP25uxKU5ZzrP8jRFZf5u6HMll7FjAZbOWnfkghelO4H/B9avqMeOVZlkaywFsx72RhAyU8xIH0Iv7Ut5HSefe6H4pdvB/043jIwgZWMX99OUYptpRAjORo+jFHRGFDLzBkWzFHawuWL8t52F6cXgEIfP9ZtZOHMinBVs+dbguhaka8LdY9DZjJgszOIPteCkHW5mnsh0vR766pjLtm/TjzLTOxNS++j9BT34X2Q+asvUtv6QXT2VxoCyxyfyMXjxVkH47kj04IY09+1S8SB8uYUGBltJe7JTCvkw8DkobMxn7N925hzU5mvsY9ufAFPYColxd53Iie0WyF1PVMv5En5QOAijXHqU7t7AqR3P/jKPYM4W9gCj77WLOYSfezsG3WcWNbJ3yoeao/azWKc6JSZ8zZjIym8M4k0U5/pQX6cOdtWxz9qVBinNrTeca3x9KHx7K4beZzG5cF/kWtNIxjxM5ju9y/CnD2Y4bajnsu0XKT49pWMtVae+xLXemdZ9Jer5mIFelfDAwSkfV8lDqzuxszBSvN+nNs3n5pEWcwwHMqXElTPUEe01HuNdwJfvxdY6/zSou51AW24EK5MMcb0isv/d6KXsyvYYpylK+ELpPDRtS5fyF3fk8x99mLdcwIOMrLjPXvJbnhR4Xm1sGjJm03c++fJPHz3uZHRkdweGHHWo46HAkf8vh9uD6nmNAXqunHwxmL77K4+e9zQ41HsjKvt+u4BR+naf9jOHsUWNs5sbxNb57Qmz6njGTpt9zKivz/JnT2I1Hs15d+yU9KLBHnvbNvvcBu/GFHSnPbuKoNO5UicZsBnB3zvrttwzkgTx+m4/ZlQl5ruBB1E/63uYZ3dBtzMTAlfyxIGcXlnI8tyd5b7sU55F4uq/Yo8Z9pVyYxD4Z3zynTFzHRXnaW61sJWfxfznpt98xgLfy/G2+Yh+m5PUTm9Zw784+Mep/jmmWhj8X8Cr1cn7OKn6R4J3u1E3hercN6ZDg1W/YryB7Fl+wH29m9PRPpe8erijgp/+G1fwuwesd2TCFi4Xr0T3Bqws5gHEF+C6z2Y+3aRfBnNYyhknMYDqraEZz2rMD3ROca9kn6YHHfRIemXiHKSxiEXXZlE70oIcxEy//4LcF/fxyLqAuP6/2+gZ0YWKtf711gi48j33SGvMpSuM4hudTvkpOmbufswp8fd/vqcNV1V4toyfv1Pq3XRIMLLuUAxlZoO8ymUN4Pa2hb6paw9MM5qUEF/ZsyO6cwhGV1ooB/DHhXMoYUOm/R3M7L/BlgvodygkFHc8APGiWsmFcXPA2lPMLhiR4PZXhMHsl2J76SUG2CH8wNMFPj6I2krMKcrisst8lHBIls34LP4/kTv/MK/qLjP92NffSg2O4P+HVowt4juPoyJXr7eUlG7+9+3r7VC+yK9tyR4KQgcncxE4cmvcD48ZMRjvLJ+XsRsz0drVPTHAaMpVhC6tP8weeL/C3ub7gLSh28zkuomGQst1AOoP3I+q3t3Bvgb/NfzIcR+xdenEak2qZ6hv+Ro91n9CQvgmn2mHd1D/hwFr3CoewHeemNf62MZN3qzmWmYG0ZRFHVXsWSCqra9Utxxf4cwA/PmfWeE+Qsq3vqXk+ZZ3cco6uNrR9Jv32HS4J4Nv8PINR+m5hDz5LcdqZnMThFcMz7VhDzLzH1jyYYl+4nV0L9itmzKS01f1mQK2ZyKVZbxUuDOJQCszkQrtXztzNMwG15qtq5xVT6beVD5qt4PScDZOTjgWcneZfXMUv07zD5xn24TuSXfjdDxjGwLTuQRvN7swwZsI0nWuC+/moPFxnt1qv5GhV5YmWv8n5Hf+pejiNAeGVjrn8OrAWPVnl7q8OtT4guT5bVvrvvxRwzOTKXknrXrPrMvoNeZfd+ZbtE7xTl214jYPSHlFjCgcVZAhbY6ZWFwY3PEo5P6s0nlrDWh+GVnm78X3+FdB3uSSI/aric2XSx2kXzvlVtr5ruwhgy0pXXX3GXwP6LpekfJv2MH6V4Wd8yiC2SLARuQVzOI7lGcxxTEGOHxgztXiJJwNs1dQqT6Oo7fDD1lVWkDUBfZcP8novd6l4n38H2KpvuDqtmNm6SnCuCOi7TOLWlKZbyulZrG+vcwtbVHu1Gz/LeCPiLt4wZkLzh0Db9fdK24Vb1TJ1t/X+/Vre756uzTXuz+Sg34ZZ07sq3Q5cW79d/9bMCUGdaQK4NqX9iWuzfKjf1TSr9trnvJDFHC/O+31UxkyN3kjhBrLCWMz16/1XbQfN1n+y+Z+C+y4TedGuFqlxWf0M5dKqSmcptkyj314dXHDOrmGkwR/X01uy/JRlfFTttezOUH3EUGMmrO2VcP1zvd3mLrVM+2MMjeD1IPfNFKWQn+tz73r7M7X12y7r/bCGePD6plqneDCCBwhEvyzzfW7WmInlNiHAkvWumO9ay0L+8YFm9wT5XYYy3u4Wmek8HHDrVvOf9WKkLMWY+W+QBwFH1Xqe46Egl8ELeb6syZipwX2BP+vxx9V1ExrXMF1HNli3A/5YkN+kPMWbzJSKB4K4t6Sm/ZkfIqMRm9QwXRM2rvjX2mD7R83tWhDcedAffgfyexmAMZPUWh4JvIVj+LDiX2UJrkZJtE04uNoIAqF40g4XmdD77ZfrnRvoWmO//WFf57W8PpAtHU/XeBXZO0Fd07m+d42ZMIwowNPy0vW/lFbXrjH4AZpY0GE8i8knjAm+jQ8m2ASKZ7/9psYRQkYF2+6xxkwYHo5BG19NaXX94b01QZ7+/8ETdrkS7LddU9oLfy2m/XZKsK3O71OmjJmknotBG8etG3pysxqm+uG9McwP+Lt4UXPp9Nuv112Sm0q//TLgn+ua++2MYFud30E0jZkkvsrypqr8KF+3f9Kphql+eO/1oL/LqIwGz1Bli2JwyGz9/ZP499vJ1Uae/tGSYFvtlWZBeCsm7XwzjdU17O+0ct0FDcrcu2mOA2y/jaLmyft0uGubMROAt2PSzk9rXV3rrhud+bPAv8s7druS67cdavgJ6hj7frthsG1untdPq+eKGe/VdSLzKhZkwyQDC7ap2EEuD/oId81bhSq2fvt5Rb+FtsxKOEVD6lZM83ls++1GwbY5vwFozCRUHsxzLWoznVa1TDGr1ilC28JV5j6OSTuX1NorVwT8I51qvzVmvudBs4RmFPC52aVrqiXI0rJgHiZeSuYkfVRYl2DbnN9NT2MmoSmWoCBbuHMsQla+CHx4pOJUnnQDaa9g29zbmCm8yZbA/Rn7rbLst71pHWiL+xkzIWwVypix3yq7fluH/QNt8Q7GTOHNswTW3fop67pfHGR7N6n0PF1jpkAWW4KCWGIJ7LcxtDTpO9txQIDtPT3PP/zGTJrdRtbd+in1zaNraBhYa+twRt4/UW5V+zNpv1WO+u123BBYa49mc2PG1dW6y/oVT93P47SA2tqSmwuw/6QE1liCglhlCey3MVTbcKX/5rJg2nrTujEOjZkCa2QJrLv1U4o2qPVn9lruCWLQpz9xSgE+1ZhxdY3R6ir7bVz77U+ZyHk0KGAr63ADVxXok+XqGoyGlsB+W7T9diNuZQb/YEfqFqCNfXmrYHfxOEJzQo0tgTFjv1Xk/XYjfsEvWMwHjOFrZlc8MbYt7diczTmS77JoRRntEz4Wug57chonFfDH3phJqL0lKIgmliArG1uCWPTbpvSnf7VXb80qZKCce+nCaMYyk9ksphkN6Uofdln3gDhjJiidLEFBtLMEWdnUEsS4396Z9Rzu4hE6c2Rw9fHcjKurW+P2WxW8377LuKzn8TTfBlkfY8bV1Zix36rg/fa5COaxkpeNmfjoUtALD11dlZm2sXmwsf22qlciaclQYyY+GtLHIuTdhjSzCFkpy/PjqgRQN4JLhhYzMpK2DDNm4mQHS5B3W1sC+20MdYngtuKJEQ0UNJVlxkx8uFVozNhvla9+OymitpQH+aBuYyaJ/pbAmImhPbxHIZb99svIWjPVmImPzvS2CMZM7LRid4sQw367IrLWrDRm4uQwS5BXddnRIthvY2iXCOaxNrLWhPgwCGMmqcMtQV5tS3OLEEnMlFmEPNqczSKYS3SHOkP8STdmktqBvhYhj/a2BJHo4nnFGPbb6G6s3dyYiZefW4I82ssS2G9Ltt9uEVl7tgiwRsZMDX5CS4uQJ80YYBEicnjBR+QtHfU4KJL5dIvop3iTIH+zjJkaNOY8i5C3n0aflRLdT98lFiFPBtI2kvlsxM6RzOegIKtkzNToMtpYhLw43hJE6Fw6W4SY9dtDI5lLmNcZGjM1as5vLUIetGE/ixChhvzZIuRB4wif7XJ8BMP1tmegMRNHP2Mbi5CHre/6FiHirWwvqci90yK8CH9zzsx6HlfRKMg6lVFe+YVR/qxWMY4dIrxHV9U1YmpER7j1oy/oyyLLkEN1+ZSuEc5vJluyJIu/34JPgniAyWi2dW8mXb35g0XIqVMMmRzozI0WIaeOiDRkoD13ZHFrbUMeCPYpWcZMCi4L8OnaxbQv8yuLkBNncrpFyJl6/D7yeZ7EFRn/7Z2RDHpjzBSwSA84wHrOXBHJYB1K5HbvRsqZn+VkcN1r+GkGf1XGXzgl6F9QpaAxz0S8g6zvbc7lFiFn6vO4QyblRGv+mKMf5H9zbZoHv1rwCFcGvqGulLTnTXpahsi7352BXhtTLFrymiNf58AtObvbvozL+IB9Ul6DTmIcg4Jfz5Vy0LzhobOIXc6+FiHHWvGKw5JG7Mwc307ch1d5k+Nq2QRrwc8YywMxGFrIC5rTsoyf81/LEJFdeMP7ZfJiFZdxs2WIyNa8n6ehkZbyGiMYyRdMX3dTRWM2oyv92CPYJ6VWv6DZmEnbnVzEUsuQtW4MdyifPHqYn7HAMmStE8MLctHKCpYCzWLwEG7vm4nA2YwLdEiHeK2sLxsyeXU8E3xUX9Za83KBroxsSEtaxiBkEjFmMrAFL3Ofl+FmoSuvRfggJ6WmA0/zBFtZiCwq+CrdLYMxkx9lnMxEbqG9pcjAbrzj5eEFchQT+LebSBnpy7teHm7M5FcDzmcqD7Jr5HNuWtQBfS6v0truUzD1OJ3PeYIBWQxsUnr9Fn7CcB8XZ8wUJmpO5G3G8Vt6RDC3hvTn/3ifM4KIg9wcdHiB29jAjlPwqDmKoXzKnyPZOq/H7vyBt7msaPttax7nfprZcTJeKl5pFpFPeZVhvMF3aS+CzvShD7uwJ42B19mHtQX/Ng35F6N5iG8im2NjLuRyNrSjBGYyrzKM15md9l9uRm/6sDN70wwYzU6sDGC7+Va+4EFmRLgmnMtVbGRHSZkXNOfBNEYzlklMZRqzEz5CoBkdaEsH2rEVfehd6ZkVS9maqUF8j76MpJwXeYyXM/gJqqw5p3Ilm9g5AvYVYxjDRKYxlVksTzBFEzrQjk3YmK70pi8t1ntvFdszLojvsQXjacCrPMaLfJ31ptFJ/MonkRozoVvCdyxat9I2owFta7y16yquCabtN/NLAMoZxUu8xAhWZbB1uSOn8pMiP25ffJYyl4Usq/ivpjSgLU1qmP5GLgmm7b9b9+iOcbzESwzP6HlR23Eyp1WKUhkzReFzegX0CLUWfEq79f57ESMZzShG8wmra/3rTuzEPhzu1XglYBbdWBhMazZgAltUiswPGcVoRjMhhcN67dmJARzuBffGTLE6kqeDas/Z3JHw9RWMYxJf8RWzWcD8ir2c+rSkBRvTla708hBZCTmDe4Jqz9E8nvD1VUxgIl/xZUW//T506tGClrSjC13Z2ngxZorbR/SrujgKrD6fVtoulKqbTPcU9m7zqYz32MEFE0zMeEFzQH4XWMjAKv7kYlEt/hhYyEC5/TYoxkxA+zLPBdiqB/jCRaMaTOHBAFv1LKNcNMaMqvp7kK1aza0uGtXgH6wJsl0++CAcnpsJxEw2D+DmtkSaM73SnT3SjxbRKdDHCzRkKhsXVa1f4MYk7/yMowNqZ/VzM/VcUcJwV6AhAwt5kHNdQErovmCfYbOCu7mqqGp9D68meSf0Iw4eNAtCOfcF/VMiJXav/TZPlvJCknd6082YUe1GMDng1r3LZy4iJTCRDwJu3STeLaJav8CSJO8cG3zbjZkgPBB4+/7nIlIM9xceKKJaP5n0nWOMGdWunGcCb+HTLiTFsF8MDu5OtEytYEiSd/rE4HmexkwARkY4bHlujA1k1GiFZAoTAm/hV4wuklq/knTMuEExaL0xE4BnY9DG511MquKZGLRxSJHU+omk7xwdg9YbMwF41TYqhobab/NkVdJI7x3Jc3uNmaK3jA9j0Mq3iuYot6KxlhExaOX7AT1YI3PDmJvknUGxaL8xE8CKsDIGrfzGi5pVycdJf/pCspyRRVDr5IfMjolF+42ZgnsnJu0c4aKS/bYg+43xPmRmzARgnO2U/dZ+m9RwZiV5Z1BMvoExU3BjY9LO8S4q2W8LIO6HzIyZglvJRLcKFUNx+fn+JLiHrqWnPOlNsHE5ZGbMFNxXsbgAAGA2i11cqjCf72LS0uV8HetKv8v0JO8Mis13MGYK7MtYRaL0ven22zyJ/yEzY8ZVoEh/WmS/LY5++1SS13vF5pCZMVNws2LU1pkuLtlv8+ojpiR5Z1CMvoUxU2CLYtRWz83IfptfxXDIzJgpuCWuroqhxa5jeZHsKTO96GnMqBhXV2NGcfzpXhTbKo/n0yTvDIrV9zBmCqzctsp+a1sTKo5DZsZMwTWIUVvru7gUw37bILZVThYzW8fqkJkx4ypQEqurSnmTI66bR5OSjrwxKGbfxJgpsEYxausGLi5VaGy/zbnHk75jzCgtbWPU1o1dXLLf5k2xHDIzZgqunaur7Lf222qm8lGR7MsYM64CxozstwF6MukVcsaM0rRFbFpal81cXKrQOUY/HV1jWeFkh8y6x+6QmTFTcJ1oEZuVtZGLSxWasHlMWto6Vgf4fjCLd5O8c1wMv40xU3Bb207FUC/7bQ49ztok7xxrzCh929pO2W/tt5UU0yEzYyYAe8eknf1dVLLf5sW3vJXkneNi2VeMmQBW1zgshKbs6KLSenaJxbm6uuwZw9o+xeok7wyKZV8xZgpuI7aJQSv3dEQzVdKQ3WPQyu1jc4nN+pIfMovnmSZjJgBHx6CNx7iYZL/Ni/kMS/LOcTHtKcZMAE6kLPAWbsCRLiZVMSj4wVTrcHwM6zqYlUkrbswoQ5uza+AtPDiWhx6UW604IPAW7kGnGNY12SGzbrG9qcCYCcK5tk/2W/stsJhXkrxzXGz7iTEThOOCvqd6e/ZxESmB/ekbcOu2iOWZmSEsT/LOoNj2E2MmCPW4KODWXeECUkJlXBZw6y6lbgxrmvyQWa/Y9hNjJhBnsmmgLevLUS4eJd0PD/V8QWd+GsN6LuOFpJWOL2MmEI25PtCW3RzLbULlaz/8H4G27IZYPjXzBZYkeWdQjHuJMROMQewXYKtOYC8XjWowIMgzIPvE9BL8YjxkZswE5RaaBtaittzgYlEtbqJ1YC1qxu2xrOQKnkvyznGx7iHGTEC24u7AOsd9tHexqBYduC+wG4xvi+mjzF5lQZJ3BsW6hxgzQTmO0wJqzeXs7yJRCg7k4oBacyY/iWkdi/OQmTETnNuCGVH2MP7k4lCK/hbM9Yh7c0tMa7iaZ5O8c2zMe4cxE5hGPBPEiM178wj1XBxKUV0eYI8A2rEdg2N5hRnAML5N8s6gmPcOYyY4G/Ii3Qvchh1jvLKqUBtIz9KvwG3owQs0j20Fkx8y623MKGrteLugh84O47UYr6wq3AbSMA4u6B7427SNbfXW8kySd46Nfc8wZoLUilcKdhrzbJ6giYtAGWjKYM4v0Gcfywu0jHHt3mJmkncGxb5fGDOBasB93ELjPH9qC+7nDs/JKGN1uYX/5n1fuDH/5OGYH+ZNdshsq9gfMjNmAlbG+XzEDnn8xH0YG9tLQRWOUxnL3nn8vJ0Yxc+DfzRgzcp5OuleWvwZM0Hrxog83WPdgbt5JZYPgVJ4NmMod7JJHj6pDTfzFlvFvmLv8WWSdwYVQX8wZgJXjwv4nF/n9PBZC/7CJM6I+fagwvphOYtJXMOGOfyMJlzF5/yyKA7yJj9k1seYUT5syDVM4U852dfoyg1M4UoaWWZFrDG/ZgrX0SUH8960Yp0olisin0ry+rFF8e3KKK/8wqggbg5UIqt5lrt4jRUR/QgcwNns65aGcmwtL3EnL7Eskrk1ZCBncUhRPZ5iFNsleWdMDPdmRrNtlVe8qChG6nEkR7KYlxjCc3yT8Xw6cAiHMsA9GOVFHQ7kQJYylCEMYUbG82nLwRzCfsGNY5694j5kZszEUFOO5mjgc0YykpGMY25Kf9eGPuxAP/qxmUVU3jXmUA4Fplb02zFJh1aprBW96ccO9MvJwbcwPJnk9UFF8v08aFYEljCN6UznOxawmgWsYjHNqUtL6tKctnSiE5u676LALGMaXzGdOSxkDfNYw0KaUp8W1GVDWtORTmye93vH8m9C0vGXR9M3ht/Hg2ZFqQk96WkZFDON6F7w0ftCkPyQWd8i+Yae/5WkAGNmUNF8Q2NGkgpmCmONGUlSrjyW5PUti+aQmTEjSQWU7JDZsUX0HY0ZSSqQLxmZ5J2jI/qE8/gz840ZSSrVfZnyhK9vWe2i4My8xG38lk25gFnGjCSVnmQ3Zh4TydyX8nMAFvEPtuRSFhkzklRKZjIiyTvRXGX2J6as+/di/lOw2ySNGUkqiKdZm/D1rpEcMhvDDZX+++SCjQRizEhSQeTyxsxlnMSqSq+cXbDvacxIUgF8yxs5jJmLmVDpv/co4IBUxowkFcDTrE74+hYRHDK7g9urvHJOAb+pMSNJBZDsKrPsb8x8kPOqvLJRZPfhGDOSFAvzGZrknewOma3gd5zMmiqvnsIGBfyuPghAkvJuCCsTvt4l6QOba1PO5wzmNr6o9k5ZAU//GzOSVBDJrjJbncFBs6UsYh6TWZrk/T0L/FwfY0aS8mwxLyV5ZxrTIv+0cwr8bT03I0l59jzL8vZZrTnKmJGk0vJEHj/rNBoaM5JUSpbxfN4+q4yzCv59jRlJyquXWJy3z+rPVsaMJJWWfB4yOyeA72vMSFIereK5vH1Waw43ZiSptLzCvLx91hkFP/1vzEhSng3J2yeVcWYQ39iYkaQ8yt++zD50NWYkSblydiDtMGYkqQi14whjRpKUK6dTP5CWOHSmJOXRzVyTl8/ZOJhvbMxIUh61pW2JfWMPmkmSjBlJkjEjSZIxI0kyZiRJxowkScaMJMmYkSQZM5IkGTOSJGNGkmTMSJJkzEiSjBlJkjEjSZIxI0kyZiRJxgzLK7+w3JpIkjK0rNoLdVhc+ZXFVkmSlKFF1V6oU/W1RVZJkpS7mJljlSRJGZqTIGZmVn5lolWSJGXos6ovzKhT9bXPrJIkKUPVdlU+qxYzE6ySJClD1TJkYp2q0TOVadZJkpSBaXyZYG9mFGsrv/a6lZIkZWBo1RfWMqYO3zGulskkScokZkYztw4wrPKrg1lqrSRJaVrKs1Vfeu37Mc2qxMzC6hNKklSLp6rfnDns+5gZWnWEmXutliQpTfdVfWEhr38fM0t4uvI7L1Y9XSNJUo3G8ErVl55g6Q8PAri/8jvl/NWKSZLScA3lVV96AKAMgLpMo8P679VlHD2smiQpJePpW/XumK/YjLU/7M2s4R+V313DudVzSZKkhH5ZNWTgpu9fKqv4zyZMY6PKUzzMcVZOklSrBzi56kvfsfn3l5f98JDmJfyz6jQXMtvaSZJqMZNLqr940w/XMJete6kVk2hVeap9eHldDkmSVN0a9q16+yV8w1bM//6fdde9uIwFHFJ5ui+ow97WUJKU1O+r3y8Dv+SdH/5Ztt7LdXibnStPWcbdnG4VJUkJPcAp1S8Y+4Cdf7wioKzSW9vzLvUqT12fpznISkqSqhnCkayu+uJqdmTUj/9Zt9KbM1nLgMrTr+UJutPTakqSKhnM8ays/vKveGL9/6xb5e232YUulV9aw5O0o58VlSSt8x9OThQyL3B+5aNoZdUmacsoNqn6YhkX8lcaWFdJEiu4jFsSvfEV2/Jt1fyorg9v0KL6y/14uOqOjiSp5EzjeN5N9MZC9l7/rMz3Et0WM5YjWV795ZH05epEu0iSpBKxmpvpkzhkVnJM9ZCpfm7me1OZyFHVI2gVbzCYru7TSFJJepGjuJ8VifPnBIYkeiPZTf6PcRTLEr0xjv3YlvuqD5ImSSpa5TzLzhzIhMRvr+CEyteX/aishrnuzJCqw2n+qBMncjpbWXtJKnLTeJi7+Tz5BPM5jOHJ3iyrcd69earmI2S9GUB/dqO1y0GSisw3vM0wXmN8zZNN4shkOzm1xww0524G1d6YjejGlrSkKU1dMpIUY4tZzDwmMpHvUpn8Yc5hYU0TlKUwk59zPY0svSSpkqVczB21TVQ3hRl9wL20oa8VlSStM4RDGFr7ZGUpz/AQbvJKZkkSMJELeSG1SVN/atkQunMqn1hdSSppH/MTtk41ZNLZm/khlo7kPPbyoZqSVHLW8jr/5On0bpwsy+ijOnEiP6GXNZekEjGWB/kfX6X/h2VZfGhH+jOAvehs/SWpSE3hDYbxGl9nOoOyCBrRlK3oxla0oQlNE43tLEmKjfksZglzmMhEJrI429n9P0zjTOyTAcmpAAAAJXRFWHRkYXRlOmNyZWF0ZQAyMDI0LTA2LTE3VDExOjA0OjIyKzAwOjAwK3ZDCgAAACV0RVh0ZGF0ZTptb2RpZnkAMjAyNC0wNi0xN1QxMTowNDoyMiswMDowMFor+7YAAAAASUVORK5CYII=;" vertex="1" parent="7">
                    <mxGeometry x="54.41" y="260" width="139.17" height="174" as="geometry"/>
                </mxCell>
                <mxCell id="21" value="" style="shape=image;verticalLabelPosition=bottom;labelBackgroundColor=default;verticalAlign=top;aspect=fixed;imageAspect=0;image=data:image/png,iVBORw0KGgoAAAANSUhEUgAAAzMAAAQACAQAAAB/68+wAAAABGdBTUEAALGPC/xhBQAAACBjSFJNAAB6JgAAgIQAAPoAAACA6AAAdTAAAOpgAAA6mAAAF3CculE8AAAAAmJLR0QA/4ePzL8AAAAHdElNRQfoBhELBBbNy2mhAABunUlEQVR42u3dd4BU1d2H8WepUgWkiICKoBQpFuwVxN4L1lhijdHEXpKYxBTfJLZoNMYWE1vsBcUuoqLYULoFBEGUptJ72/cPV2R3Z3an3Jk5d+b55I/gzN07Z3733Pneem4Z2epMb7qxFVvRmsZsSDPqIUmKp9UsYgFL+JaJTOQzxjE1uxmWZfyXm7Av/enPpi4VSSpi03id13iFmfmLmUYcwikc4F6LJJWMtbzDffyPxbmOmc25nFNoYsUlqQQt5l6uY1quYqYHV3Ki+zCSVNJW8SB/5bOoY6YJv+USI0aSBKzmNn7Lwuhi5kSup711lSStM4NLeDiKmGnOnRxnPSVJ1TzFGczLLmZ24BE61zxJXXrSna3Yig1pQkvLLkkxNo8lLGAiE/mUj1lT2+STOY4PM4+Z0/kXDZK/vRlH0Z89aOFykaQiNJ83eY2n+LKmiVZwDvdmFjNX8n/J3m/MCZzMnlnc3SlJioe1DOc+HmJZsgnKuYLr0o2ZMm7kwsRvbch5XEgbKy9JJWQOf+e25BeX3cillCd6o26SP/h74pCpy/kM5mDvz5SkEtOEgZzDIj5KnCa70JSXU4+ZK7kq0cs78Ayns4HVlqSS1IiDOZiPEg9vtitLGZFazPyUf1Q/mFbGpfyPDlZZkkraJpzGEt5L9NZApjC2enpU32V5q/rVZRvyAIdYXUkSAM9wcqLzNCvYlY9qjpkWfMgWVf9uY55nW6sqSVpnHAcwo/rLk9meBeu/UKfKBHdXD5kteNuQkSRV0ps3E92934U7a9qbOZEHq/5FW95iS+spSapmCrsxq/rLx/Fo4phpxqdsUnna5rzunowkKYlx7Mn8qi/OovuPB87Wv9LsWvatuqvzOHtZRUlSEu3owSNVX2xK/R/vofkxZnrwn6pnai7lfGsoSapBdxbwbtUXd+QRvqsaMzdUPTq2A/9LOkiAJEnf688LVW/YrENTBn//zx/OzWzK59Rff5q6fOBZGUlSCj5kp6qPDFjFlkz7PnG+d2XlkIGfGzKSpJRsz1lVX6rPpevvzTRlVuXRMFvwhU+RkSSl6Ds6s6jyS4toz5If9maOqjrk8nmGjCQpZRtxbtWXmnH4j3szrzBw/fca8wVtrZokKWWz6Vz1wWcvcND3ezOb0L/yOycYMpKktLTj+Kov7Uu772Nmv6rXLZ9ivSRJafpJ1RfqMfD7mKmyL7MZu1stSVKa9qZT1Zf6fx8ze1d+9ahqwzZLklSbOhxR9aUBUIfObFotfCRJSlu1/OjMZnXoXfm1uuxhpSRJGdir+tGwXnXYqvIrPb1jRpKUkVb0qPpStzp0q/xKD+skScpQ96ovbFWn6qMxu1klSVKGuiXYm2ld+ZWuVkmSlKFqGdK6Ds0qv9LCKkmSMtSy6gtNq8VMM6skScpQtQxpVqfq2MxNrZIkKcKYaVD5lfpWSZKUoQbVXnBcGUlSDhkzkiRjRpJkzEiSZMxIkowZSZIxI0mSMSNJMmYkScaMJEnGjCTJmJEkGTOSJBkzkiRjRpJkzEiSZMxIkowZSZIxYwkkScaMJMmYkSTJmJEkGTOSJGNGkiRjRpJkzEiSjBlJkowZSZIxI0kyZiRJMmYkScaMJMmYkSQpOvUK+eEz2YxVefmkxTRxWUtSqe3N3JWnkJEklWDMrOHf1l+SjJlceYEvrb8kGTO5cmfePqkB9V3SklRaMfMVz+ftswbSwCUtSaUVM3exJm+fdbTLWZJKK2bW8N+8fVY9DnM5S1JpxcyQPJ7+35vWLmdJKq2YuTOPn3WUS1mSSitmpvFSHr/gkS5lSSqtmLk7j6f/d2Njl7IklVLMrOaePH6ah8wkqZAKMHTms8xI+l5DWtOUpmnPczGfJXy9zJiRpFKLmTsSxsHBHMuubE7djOZ5MxcmfH0HNnUZS1IpxcwXvFLttS25j52zmutjSV73xkxJKrGYuYu1VV7Zg6dpldU8v+YdY0aSjBlYzb1VXunJYFpmOdfHqkXX97ahi0tYkgoqz1eaPV3l9H9Lns86ZODxJK97+l+SSixmqt79fxebZT1PD5lJkjEDwGRerfTfp0cSBE8kOWTWg54uX0kqpZi5i/L1/qsd10cyV68ykyRjBoAOlcZKviGCszLwNSOMGUkyZgB+wVRuogMAe3NiJPN8PMkhs85s49KVpNKKGWjCBUzhXnpyO2WRzDHZIbNjXbaSVHoxA9CAU5hAt0jmlfwqM4f/l6QSjZkoJTtk1pEdXbaSZMxkK9khs2MiOiQnSSrhmJnpjZmSFLh6cW58srHM2rFLiS3G2UznK+awhJUsYjVLaEJ9mtKQxmxMJzpVupRcCsO3TGc6s1jKChaziiU0oR7NaEAT2tKJjrSzSMZMoWMm2b5M3RJYdHMZyUhGMp7pLK916kZsRh/60Y/taW6/V8Es4EM+ZCRjmcayWqfegE70ph/96BfJfXYqhLJKN+YDo2Jzv8lMOibZmxnKgCJeZKsZzhCeS/K80NrVYWsO4VB2ivuJOcXKGt7jWYYwoepPTsq6cwgHs3u8t41LwGi2LZ6Y+QcXJHx9I2YVbUd8g7t5jnmRzKsth3E2O7hWKOfe4y6e4ZtI5tWKgzmTPS1qjGImxhu0yQ6ZHVGUIbOQW9mavXkgopCBOdzNjuzAPSkcupAys4S72Z6d+XdEIQNzuZ+96M1tLLK8MRHbmJlVQmOZLec6NucXfJyDeY/kDLpwO6tdFxSxVdxGF87ioxzMezznsTk3ssIyGzO53JdJfF5mQ/YpqgVUzr104/LI9mESmcm59OJJ1wZF6HG25jxm5/AT5nIJ3bg/43M9MmZqjZnEDqNBES2e6ezHaXyZh0/6jKM5mm9dIxSBORzBICbl4ZOmcQr787UlN2aiN4u3k7xTTIfMHqBPlQfB5daT9GaI64SyNJjeDM7j571Cbx6y7MZM9PsyiQ+ZNWW/Ilkwazifk5mf9/g+lAs8CKGMlXM1RzAnz586jxM52/OLwYrpRVnJDpkdRKOiWCxLOL5g+xX/YD53FdWhR+XLCs7gwQJ99l3M5n80cSG4NxPVNndxX2U2n70LevDqPg7yImelbSkHFixkAJ5hAAtcDMZMVPsyaxK+vgEHFsXKeigjC9yGoRznIQilZRWDGFbgNrzPYW4gGTNRxUxiB9CsCFbWY3krgHY8y2lJzn9J1ZVzNs8H0I43OdYNJGMme8V9yOwSngukJQ/yV9cPpeiP/DeQlgzhcheHMZOtx5McMqvPwbFfHEO4NaDW/D6I/SqF7w3+FFBrbsrr5dQqyphJdshsYOwHCp/GKUFdTLyaE/jOdUS1+IYTk2z6FUY5pzPdxWLMZK6Yb8w8L6dDymTiK65wHVEtLmVGYC2ayy9cLMZM5pIdMqvLYTFfFC8Hc1Zmff/hfdcS1eAd7g+wVYN5wUVjzGQq2SGzvWkT6wWxgvODbNdafumoAKqhf/wi0P5xEStdPMZMJor3kNl/8zLQYCbe41nXEyXxJB8G2rLPeMDFY8xkItkhszocHvNtwhsDbt3fXE+UxPUBt+067/wyZjKR7JDZrmwS68XwFBMDbt0IL2xWQq/zXsCt+5RnXETGTLqK95DZbbZP9lv7rTFTeE8kOWRWxpGxXghf83rgLRzMYtcVVbEw+KcTvcZMF5Mxk55kh8x2YLNYL4SHgz+GvNT7qlXNk8EPU7mGR11Mxkw6ZiU9QxD3Q2aP2UbZb+23xkzhPZF0QIsjYr0I5hd82P9UvO64t6pkFW/GoJXvs8hFZcxkv13Sl61ivQjeCGo8qGQWBHt/hArjvVicr1vFcBeVMZOq2UV7yOz1mLRzmGuL7Lcq5phJfsgs7jHzke2U/dZ+a8wUXrJDZt3oGfNFMMF2KobG229VXDEzO+kR1kExXwAzYvNEl4mscH1RhWVMiUlLZ/ONi8uYSUXxHjL7PDYtXc001xdVmBKLC1fito4ZMwWV7JBZZ7aJ+QKYFaO2eke17Lcq0phJfsjsGFdXV1fZb+23xky2iveQGbE6bjzb9UX2WxVnzCQ7ZNaRHWO/AJbGqK3LXF9UYUmM2rrcxWXM1L4tMjzpvkxZ7BdAnB4ku8r1RTHsCz6s2Zip1ZNFfMjMmJH91n5rzBRcskNm7di1CBZAmX1Q9lsZM4X0TdJDZkdStwgWQBPbqhhqHKO2NnVxGTM1ezzpAPRHF8UCaGpbZb9188iYKaRkh8w2Ym9XV9uqAmlmv1WxxEzyQ2aHU68oFsDGMWrrJq4vst+q2GLmiSI/ZAadYtTWjq4vst+q2GLmsaS77AOKZAF0tK2y39pWY6ZQvkn6tPHD2KBotgrjcvCvdayOxyu3WtIiJi1tQAcXlzGTXPEfMoOGbBmTlvZ2bdF6esWknd2p78IyZpJLdsisMfsV0SLo48+K7Lf2W2OmEJIfMju4qK6E7207Zb+13xozhVAKh8wAdo5JO3d1bZH9VsUVM8kOmTXkwCJbXeNw7LgVPVxbtJ4+bBiDVjagn4vKmEnm26SHzPaneVEtgiaxeND07nF5nrfy9tOxSwxauUOsRl8zZvKsVA6ZAQyMQRv3cV2R/VbFFTPJDpnV55CiWwiHxqCNB7muqIrDXbcU55j5ljeSbp20KrqFsBNtA29hT7q6rqiKrnQLvIUbs52LyZhJppQOmUGd4Le5DndNUQz7xWGeUTRmkns8yet1OawoF8NJgbfvRNcUJXBK4O37iYvImEnmW15P8s6ewR9eysxebBZw67b3TmoltHXQV0l2ZncXkTGTzJNJD5kdVbSLIeTtrlNcTxTDvnEyZS4gYyaZx5M29siiXRDnBnuTZlNOdT1REj8N9tmU9TnLxROIAEehX8Q0tkj4Tu8iHtK7A0fyaJAtOzUWd3urMFpwMv8KsmVH+5yZYJRRXvmFUbG4J70YvRPk6Et1+Dj4y1ZVSJ+yNWsDbNeIWIxSUIxGs221XxEFYpcgnwh6jCGjGnUP8iaDfQyZoDZWFYw/BdeiulztYlEtrg7wZ+T3LpaA1LME4diV/XkpqBadmGRc5nKmMInpTGc2C1hQcWVgfVrSko3pQhd6+EjnktGT4/lfUC06iD2SvDOViUxnOrNYwAJWVWxM/dBvt6BHbB4+HSeemwnKeLZNejF3/jXh00qnUVcxntGMYjRjWFjrflBPdmIfDvQCghIwjZ4sDaY19RlTafNoDRMYXfG/ebX+IHZnJ/pzMBu5WDNU/dyMMZNzi1jIiop/N6dBLY8xuIibgmn5X7hy3Tbgi7zEUBalPY8G9OdUjqaBHSFmlrCQZRX/bkrDWjYX/sxvg2n5pVxX8a+veZGXeLXWcKmuHntwMsfTyI5gzIRoIWMZyySm8gWzmcvKKu9vQDs2oS0daMdW9GXLSkcuF9CTGUF8j26MpT4jeJwX+CzLeW3M2VxISztH0LEyjjFM4gumMpO56zaNftCQtnSgLZuwMV3pQ/dKd3qtoDeTgvgeHfiEZozkUV5kXJbz2ojTubRIRx4xZmJpFq8xjDeZVLWktdiAXvSlD7uwHXWB5zkkzTnkQj3uZSIPMDmyObbiSn7BBnaUwHzL67zG63yW5mXJDdiaPvRhZ3akHvAOe7Cm4N+mjDv5hvv5JLI5NuNSLg72JlRjpmRM5wke492s7x5oxQAGMpDruCOAmFmTg7Dryn1eaBrQhtGTPMbwrMOhOf0ZyEDu5/8K/p3qUp6Du3g6cU8sHuJmzERgMauAOgGdVF7Ly9zKCxF37I2ZVbRdsC5X8AcvcCy4YdzG0xFfblLM/baM87jOffFijZmVvM5wRvI509cdLa7HJmzBduzCfrWcUM9txDzEn7I+a1GK9ufRAi63UlfOYH7PWAuRtl0ZTGvLUGwxM4rbeLTGS2cbcBDnsl8B2jaEXzHeHpWhPjzniFMF2ou5nJGWIUNdeJ6tLEPaMRPsKABfcizbc3ct92es5Gn2Z3c+yGvbZjGIQw2ZLIxlH+ZYhjyby0/Zx5DJwmQGMNUypC3QmHmIPjyW8inot9mVP+Tt6qxH6Zn0UQVK1UQOYIFlyKMX6Ml/A7iGMd6+Zj9mW4ZiiJm/clKaP0GruZoT83D//Gou5rgMbvZSdaMYFOTIvsVoLX/gEH8eIzGJQ6vdC6fYxcz9/Cqjba6HuTTHLVvIfvzdPhOZV/iLRciD5RzJ1UZ6ZD7gCosQ75h5J4tn3t3MXTls2Tz2ZZg9JlJX85ZFyLElHMIzliFSN/OsRYhvzKzi5GqDXKTjl3yZo5bNpT/v218itpozPACR45DZn6GWIWLlnJPB+H7GTCDuznJwk+U5embLSo5mjL0lByYGNFRo8VnLSbxtGXJgJn+2CPGMmeURLLr/5mAAv3LO5nX7So78mZkWIUcuZbBFyJGbmGgR4hgzr0YwNvFqHoq8Xbdxrz0lZxbxV4uQEw97wUoOreQPFiGOMTMkkrlEfXJukteV5Ng9zLUIkZvBeRYhpx7N2ZlgYyaHno9kLh9Gen/AGk5jif0kpxZzu0WI3FmGd46t9rxi/GJmEdMjmU95hM+agP8ywl6Sc7cG8KSS4vJ0RBttqsndboLGLWa+iGxOUyKb01J+bx/Jg5m8ZhEi3c7+lUXIy6axdyTFLGamRzanaZHN6Wa+to/kxUOWIEL38KlFsN8aM4m2wKIS1bAaK7xSJ2+eYLlFiKz/e+1evrzIdxYhTjETXVPqRjSfR/jGHpInC3nDIkTkhQgPQKtmq3jRIsQpZhoGN6fb7B959LolsN/ab42Z3NossjltHslcxvKe/SOP3JuJxnS3r+23xkwynakX0Zy6RjKXp+0deTWSxRYhAs845H9eTfIyoTjFTAO6RDKfunSLaHVVPq3K86O2izdmlF/eWRejmIG9I5nLdjSPYC5f8ZG9I8/GW4KsLfRcQd5NsARxipmBkcxl30jm8ppPTc+7jy1B1ob7/B5jxpipOWYaRTCXgyNpy0j7hqtrDHng0X5rzNSoBcdkPY+e7Orq6upastw8yr9J7kHWol5YzTmb+7Ocw1lMZTTjmMYclgEb0pFe7EDftOayitH2jbyby2KaWgZjJmZWMyOimyiMmYgt5SM+ZDqzmEMT6tOY9nSgF9tk+QP/f1yU8PUenMy5tEhxLlMc+qQgZkV0MXqp+jbSh2Ao9X5rzAQWMwt5jPsYEeEYZutLNjzMJ/yaf3A9J6U0l2n2DGMmhuy3heq3qkmez80s5fdswpm8maOQqa0z/ISTU/pkn4rn6hpH9lv7bcnvzbzIWXxV4C/8AMv5H/VrmWq6PaMgPORjzNhv3ZvJwu0cWvCQAXicy2qdZoY9oyB8FmF2ZloC+20px8zfOLcgB8oSuYW37TZB8sILf+7iaIUlCCFmhvKbgL70Ws6oJfKW2TNcXWPIfuvmUcnGzGxOZE1QX/sznnd1NWaMGdlviyVmrmNOcF/8LrdO/Jl0q1r22+KImbncEeAXf6HG0/xl9oyCqGsJsmK/td+WaMzcGeTjqtbwZg3vNrFnFIR1t37W3ZjJQKiPjB1ptwlOY0vgz5391phJ13LeC/Srv+/q6s+k9ZN1j3/MjAj2tOQEu41bhf7cyX4b/5j5ItivPp+1Sd9rYc8oCOtu/ay7MZO2b4P96mtZmPS9zvaMgtjMEmTFfmu/LcmY+S7gL78g6Ttd7Bn+TMaQ/dZ+W5IxszDgL78o6Ttb2DMKoBHtLEKWP3feOVMIm1uCwsZMg4C/fMOk73So4T3lbmX1RzI7TQzqAmjjo8VrUS/3HT/klTJ5+m7FuFgswPY8W/GvXVmZZCV4AYBydg987KWtXB+z1j0mj9hqxPCKfx2Y5Im3DRhR8a+DAhysyn4bVMx0CPirt63h3d1iEjPd2B6A75KEDMxjm4rBMLbgk6C/y86uj1nbjddj0c6uFf12NXOTTLGSzrSq+BmfY7+NtZwfNAv3LEenGjN2t9hsvX4v+fM+V6972FXoW127uD5GEDPx0K3i/2fWMHb79CrT2m+NmSS2Dfar963x3d1jsgB3rzVmfnxv18B3rPu5PmZt13w+EDcLe1T8/5ex77fGTAAx0z7Yiyxr3tXdnE6xWIB7p7G67hX0N+nrPewR2JDesWjngDQ2j8Lut5uxid2u0DEDhwT61Q+s5f0DYrD4eqw791VTzPzw3vY0C/i77OfamJd+HYJ2bJ1Gv+0S9Caf/TaImDkhyC/ejT61THF8DBbfPuv+9XkNU/3wXj32DPi7HO3aGIk49NsB6y5dT6XfQn/7rTFTs53YMcBmnlvrFHuxcfCL78R1/5pcw1Q/vndssN9kc7ZzbYxE33WXhcSh336eUr89Lthv0nLd4T8VNGbgN1nPofoJ+S2zuvGzDafXOk1dBgW+8HqsO/lYXmPM/LgqHxXs+Y+jvDWzZPZn2q93QDq1zaP9gr3t9FDq2+HCiJnDsjzPcSptqr22gsuymOMfUzpLcUrgC++n6/41q8YnlE5fd09NU44MfvtW2fpJ4A8NPmXdrQTL+aqG6Rauu1+mXqCH3u23AcUM3EHrjP92S27iswQ/nRdlfLH0XpyV0nT9gj4mvAEnp7RNCGvWexzD6UF+l90rbtZTFLoEuzHx/VGCH/vgFzU8jKNyv/5pkHu7PbwAIKSY2ZT/ZXiQqy2DacKkaq+XM40nMrqUsD0PpLy1d0XAi+7s9c4dfV7LtD+urv2DvGf5ItfESIXcb49f7zbh2vrtj+/34eAAv8uFHuoNKWZgXx7I4CjmFrxND8YlHItrJJ0ZnvYQ3C14no4pT71/sLeXNuZXCWOkttUVfhvcd9mCw10TI9VvvWsQw1KP36fRbycH3W9br3c8QUHEDAzieVqmubK8TVfgg4TvfgBswfC0bkfrxHC2SasNvwt0wf280nVwn9Uy9cT1/n1QcHfbXx74uYQ4+l2g29kns2Ua/Xb993dk/+D2ZRrZ0UKLGRjImJSPZTbn77xT8VOaOGZGAtCBD/hdigfkjmAUvdJs8xHBdW6A9vy60n9/XMv0Eyr91/VB/QT15kzXw8jtGeRJ8xb8KYt++7fcj/Sbhs242G4WYsxAJ15iaK2DRzTnXD7hwnWd6v2EU41nKQAN+QMfcXQtXXA3XucpNsqgzbeyQXCL7Z+V9gtXJTh3RQ2r816cFtB3ud59mZy4gQ2Da9ONVUZsry1mJrJ6vf/qG9Q5vL+5LxNqzAAM4HXe4qKEN5E1ZyD3MIPb1ju5/22VbZofrOatdf/emseZxtX0TfCT1ZGf8SpvZTwyUlcuDWyhnVDlSqKJSR8C8IM5VZ7pcV2CS8QL4zCv1cmRjbk6sBbtX2XzZhbf1vIXK6pcJHB1MM+p3C3gW53DU0Z55RdGpXnuIhvTGMfXzGAxzWhGW7ajR4LceyzpAr2Cv1Z7bRHv8RkLWcBqOtGJLSMYSnAFu/FhMItsUz6scnn4oyncJT1s3SCbtVU1nzZidBoXZCg9a9iP14JpTRs+rDI22VAG1vpXj1cZzGUo+9fw6IB8acLIGIy1UCijq104VdCDnZuxWQpTDU36TqJVqBkDU+i86WnIk2zHd0EswkY8Ue0epAkp/N2EKjEziIv4e8G/zd2GTA7V5SG24+sg2lKfR6sNgJlav60cM/vwxwhGFcnWzYZMWmLwcIrk22MfMS9vexD/DeK0eRn/SXCdWGqra1XXFnyA9Z9zhGtgTrXlsUAGQ7mlymZO5v32VwUfrPJozrBrFVfMfFLD6e01PJu3dhzCHwKoxjUJD499nNHqWo9H6FrA77IL17v+5aHKNwXQiks4J7J+W8a/83hgv7qtudtuVWwx878a3304jy35LZcXuBZ/rHRL5g9W1nqdWbItx3a8lvbtrVHpytNeqZOnfcZrCtyCi5NsUKQSM4kub9mQl9c9rybfOvA8LexUxRYzj9T47ivrBtfLh79ydgEr8Zck90FXvugzme+YleDVTrxckGf/tecV2rr25cmvubKAn34pNyR8fQZzU/jrxBfrt+HlguyJt+QlNrVDFVvMjKxlS301T+axNWX8i/MKUocG3JH0p+KjFOfxUZK9ijfWG2MqPzrySjAXppaGv3BVQT63LtdyXZL3RmXVbzfh9bwPBNWaFwq2F2XM5NA/U5iiPK/lupWb8n47YRterWE/6oOUI5skQfNOXi8G2JoRrqx59yf+m9UTmjKxIc/U8LiObPttB97M6wPgO/MWO9mRii9mvuahWqcZz0t5btUFPE3zPH7ejnzAHjW8n+rqmny6VryctwFf9mR40E92L16n8nIWj+NIXy/e5aCc9tumPM0leboCdFveppudqBhj5oqEIzNXdQmr8tyuQxjNnnn5pIb8hbdrvLtoFWOyXl2hAXfxeEZD8aTX2X7F0DSHT1V09mIsB+blk+rx61pvYByZ4rxG17B+1+V6XszD2cXzGEF7O1Axxsy7tVxl9oOPuSPvbevMMK6jYY4/ZRc+5Mpa7qAdy/IU5zabL2t8/+gc/wi152X+L6jBD0tPe57jdprm+FP68g7X1LJ2TE354p1ljK/x/f0Ym9MRLVrxVJDjGhozESjngpTPuvyu1rGRclG4SxnHUTmbfxce4e0UzmF8kMY8a9t+3ITneabSQO3Rbd2ez/hgn4FSSso4hwmcnLMVvyP/4aMUHjURZb/diEcYGsGgUonW8p8ywZuIizdm7k8yLnMi8wo0SOCWPMFbOXgaZSdu5mOOTemo88g05pvKqn0o47medpF+n30YxS20cm0LxKbcxwcMiHy+G/NXJnJaSj8qUffbAYziXxFfbLwz73JPpec6KdONmwIOnVmTxWmdcalT0EHPh3Ezz9byVPNU7chFHJPGoaW+jE3j5/7VFKdczr1cX+sjdFPpXgdzeY0XMKhw3uFmnkjprqva9eEiTkjjMPIAhqU87TYpX/y8ioe4NqVBbGpfVy537PAMVR86M9iYiZvJ3M5jTMtiDh04lhPTfLLlEjZMY7zaFsxN47qcNbzE/QxmWYbfpzWDOJ+edo2gTecOHslqg6ItgziB3dL6m7W0ZGHKU9dnQRojRpQzjPt4kkUZfp8WHMn5bGfXMGbCVM4HPM7zfJzWvTx12Jb+HMIeGRzBfCvNPYXP0r4VcyFP8iJD0zr71Y79OY59Axm0Uan8MDzOEMaltUdeRi8GcBD7ZHAf2Sdpbn6MYJc0P2Epg3meVxOOfZHMRgzkeA7M+aU9xowxE4HveIvhjGUi05OuuHXoTB96sT17ZnGJ741cktb09/OTjD5nLaMZzhjGMD7pI9Qa040e7Mbe7sHE1ALe4i1GMYlpNewjd6ZXRb/N/NF496b5/NabuCDDDb/xvMkYRjEh6V55Q7rRnV3pT684DFhvzKiq5XzObOYxj3mUAxtShza0ZWM2iWTgyCMYnNb0Z3Fnlp+4itl8xRxms4YFQD1a0opWbMpmQTwqQVFYwRRmVvTbtUBz6rIR7WhLRxpHMP8zuCet6Y/iiSw/cQ2zmMEsZrOG+UAdWtGKVnRkcx8Sbsyopm21Nmk+bK0bn1o2FVxXJqc1fRtmuxET45hxLzHGxqX9RM/PmGnZVGBfpxky8A2fWLYYM2Zi7I0M/uYty6YY9ts3LZsxo0J4M0+ruGS/lTFTgtakcYPbj161cCqwTPrgaxHd/ixjRmkYmfaZGYDPmGLpVECfp31mBmBOyiMByJhRZDJ9zs4rlk4x7LcvWbrYclz2Elxdz7F4aZrLNyxmBUtZxnI2oBGNaUhT2jggaB777a8tnjGjfJqfxgjWlQ1llcPA1GopoxnJOKYznaksTTpdEzajE53oQz+2ieSW2+K2ktcz/MsRLCjoALkyZkpwmzDTkXUX8hb9LWASyxjKEN7h4xTru4SP+XjdyrQ1u3AIA4ybpN7MeEjL1bzK0RbQmFH+PJXV3xoziQLjEQbzag17LrX/EI5hDLfTmIEcwbE0saiR9tsnjZmYcrCZWFpBm4y3CqED0x26o5KP+Rf3syDSeW7IqfyMHhZ3PWvpmMU4FBsyhwYWMXgONlMkXs4iZODrtB6RW+w+ZH+25taIQwYW8A+25kAvxF3Pu1kNdrSAoZYwloyZWHqqwH9fLKZwIjvwcs7mX86L9OMnfGGp7bfGjOJkJc9kOYfH03rwWnFaw1/pyUM5r8RaHqQH13oXO+VZD+f/dFqPbpcxo4w9l9H9/+v7nBElXsPJ7MWvWJGnT1vBFexd8vs0w7OuwDe84OpvzCgf7o1gHveVdAWfYhvezvuPbN+s90Ltt/e5+hszyr3vItmieyTpQ2uL380cw+ICfO4ijuKWkq36sqwPmQE8y7f+BBgzyrUHWRnBXBaU6JZ1ORdxYcHOk6zhl1xSoufFnozkWr6VPOpPgDGjXLs7ovncWZLVu4KbCtyCG0t0bK6o+u1d/gQYM8qtoYyLaE6vMabkqvcXrgugFX8NohX5NSrjscyqGp3Rc5ZkzCiNbeHo3FRitfsfvwlmn6rUDv38PdB5KR8cbCZWJtIjwvMKDZnKxiVTu8/ZnoXBtKYpH7JVydR+JptHckbxhx+tj+nuj0GwHGwm9vsyUZ68XsE/S6ZyyxkUUMjAYk7M2107hXdrhCED5fzDn4JYMWZi5DPuiXiONzGjRGr3R0YH1qIPuaZEav81N0c8x7uZ6M+BMaNcuCzyoTYWc1VJVG5ypOe0onItk0qi+lexJOI5ruIyfw6MGUVvKM/mYK73lsQIwhcEeYBqBZeXQO0/ysmd+8/wmj8JxoyitTZHP0lrubjoa/c6zwXasqfzPuRN/l2eo5thL2aNPwvGjKL0Hz7K2Y/w4CKv3d9sWwGDNFfPiBkTyRhpygcvaI6FxWyV1QOharYl44v4qYTj6Bvw8C5ljGProq39Snrl8PxTeybS1B+H4FS/oLmeRYmDt9g9p/P/gN2KtnY3Bz2GWDk3F/GwPx+wTU43W9/iAH8c3JuRCms5G0f++OVotWQmDV1QKuK9Gc/NqKgNCTxkYB4vuphU1IwZFbWHbaNkzEi5siZn1zlF6ZWCPf9GMmakrHzI/Bi08jvGuqhkzEhxFJcnkwx1UcmYkeLofdspGTNS7oyPSTsnuKhkzEjxs5zJMWnpxEifxyIZM1KefrzjMrjiqtgEomTMSOvMsK2SMSPlzuwYtXWmi0vGjBQ3c2LU1lkuLhkzUtwssq2SMSPlTpyu3lrl4pIxIxkzxoxkzEjrrLGtkjEj5U7jGLW1iYtLxowUN01sq2TMSLnTLEZtberikjEjxU3rGLW1rYtLxowUN51i1NaOLi4ZM1LcdLStkjEj5U4H6sakpfXZxMUlY0aKm4Z0jUlLu1HPxSVjRoqf3rZTMmYkf763dlHJmJHiaIeYtHMnF5WMGSmOdovFRQD1jBkZM1I8NY/FYbNtYzVegWTMSOvZ2zZKxoyUO4fYRsmYkXJnTzYMvIUt2dXFJGNGiqv6HBh4Cw/01kwZM1KcnRB4+050EcmYkeLsQNoE3Lq27O8ikjEjxVl9jgt6X8tDZjJmpJj7GWWBtqyMc1w8MmakuNuafQJt2b70cPHImJHi7wLbJRkzUu4cFOSgM304wEUjY0Yqjm5+dYCt+oOrn0qCl7moJBzJtowKqkX9ODzpe8v4kunMYQELmA/AhrSkJe3oQsdgL2iQjBmVsDKuZd+gWnRdtbiYwuiK/02v4e8a0pOd2Yn+bOpiVUzWvvLKL4xiG6uionQsjwXTluN5aN2/P+NFXuQdFqQ5j+04gpPYwgWroIxmW2NGcbaKz/icL5jKTL5jLguBZSynJdCc1mxMOzrQlk3oSqcqfzudHiwJ4ls05VM6sIyXeZGX+CKLOdXhQM73UgIZM1K2ZvAab/ARE1iR8t+0ZBv60Ie+9KYBAP/k/CC+zW1szX08nvb+SzK7cC2720lkzEiZddrHeIpPsppHE/ZiIAPpxQG8XPBv1IBNmBr5XI/hn7S1u8iYkVI3j3u4k4kRznFjevJa0darLXdxmN1GwcWMF+4rSNM4h45cGmnIwKwiDhmYw+H8qup2o1RwxoyCM4tfsBV3stRSpO2vnMByy6CgeN+MglLOHVwZ2anxUvQIcxlSccmD5N6MVMkU9uJcQyZLr3ASayyDjBmpqufox3DLEIHHHftZxoxU1R85jHmWISL/5BGLIGNG+kE5F/J71lqICJ3NZIsgY0YCWMs53GwZIraQU724WcaMBPAb7rIIOfA2D1oEGTPSv/mrRciRK1hsEWTMqLSN4FyLkDMzuNEiyJhRKVvKaayyDDn0j0AefSBjRiqIy5hkEXLqO+63CDJmVKre4V8WIedu9HozGTMqVZf7A5gHk3jHIsiYUSl6hrcsQl48ZAlkzKgU/d4S5MljDqQpY0al521GW4Q8me2ApDJmVHpuswR59JolkDGj0vINj1uEPHrDEsiYUWl5hpUWIY/eY5lFkDGjUvKsJcirFbxvEWTMqHQs41WLkGfjLIGMGZWO4Y6zlXcTLIGMGZUOD+AYMzJmJGOmqIy3BDJmVDo+tAR5N4/5FkHGjErDN8ywCAUwyxLImFFpmGoJjBkZM1LufGkJjBkZM1LuTLcExoyMGcmYKTYLLYGMGZWGxZagIFZYAhkzKg0O4lgYyy2BjBmVhqWWwJiRMSO5N1NsPGgmY0YlotwSFMQaSyBjRqWhkSUoiCaWQMaM/LmTdZcxI/lzF0uNLYGMGRkzsu4yZqQsNbMEBdHUEsiYUWnYzBIUxKaWQMaMSsMWlqAgOlsCGTMqDV0sQQGUuRcpY0alYhM2sAh519YrzVQw9SyB8r1d3YUJsWhpI26q+NelLEo4RTOur/jXBYGPGeY+pIwZlZCdYxIzW3I2AKs4N8kUS/kp9QG4iU+C/i472u1UMB40U97tFpN2blnx/zNYm2SKNcysMm240S4ZMyoZu8eknTtV/P+XNUzzw7NAdwj8u+xqt5Mxo9KxJe1i0c4BFf//VQoxs3fQ36QDnex2MmZUSgbGoI2t2DaNvZkdg76Sq79dTsaMSstxMWjjXutWjsk1TPXDew2CPix1lF1OxoxKy/60Cr6NR6/71+cpxAwcHuw3acz+djkZMyotDTgi8Ba2WG8PoKaY+fG9E2gQ6Hc52FszZcyo9JwUePuOX/eUz+V8XcN001lZ8a+NOCjQ7zLI7iZjRqWnP32Dbt/p6/41JeldMwBr+GLdv08J8pt0DH7PUcaMlANlXBFw6waudx/M57VM++P7h9EtwO9yfsU4BZIxoxIzKOBHAvwpYYwk9uNFAHX5dXDfpEnFgDmSMaOSU4/LA23ZQZWGZplUy9Trv39icENUnklLu5qMGZWqM9kmwFbV5/8q/ffHtUz/caXo/GNQ36UlV9nNZMyodNXln5QF16orq1ycUNto0pXfP5F9A/ouv6O13UzGjErZrpwWWIt68ptK/z2L72r5i9l8W+m/76RJIN+lG+fZxWTMqNRdR8eAWtOQ+2hY6ZWPU/iryvszm/O7QFbtf3mNmYwZaSMeD+ju+VvYvsor49OOGbgsiDHErnTATBkzEsBO/DWQllzEWdVeS39vBsr4L90L/F124Gq7lowZ6XsXcnwArTiQa1OIEFKaphmPsmEBv0trHvGAmYwZ6cet//s4uMBt2I8nqJfg9Uz2ZgB68wJNC/RdGjGYznYrGTPSj+rzGHsV8PMPYPC6oTLXN5O5Kfz1t8xO8OouPM0GBfgu9XjMRzLLmJGqb4E/y54F+uxBPJUkEMakOIfE0+3DYJrlPWTuKfieoWTMKEjNeJmT8/6pZfyRR5LudXyQ4lySTbcfb9Epj9+mCU8XoIaSMaOYaMi9/DGv4wI050l+W8MnZhsz0If31hvtObdaM9Q9GRkzUs37Fr9lCO3z9Gn7Mq6WZ7GkGjMja3ivPW9xRR5WtF0ZyU52IRkzUm0OYlwenvfYjNt5iU1rnGY6s1Kc29fMqOHdBvyV12r5rGxX41/zBpvZeWTMSKnYiEd5LIdPo6nHOUzknFoPz32Qxjxrm3YvPuY3ObryrDfDuCbh5diSMSMlcQwfc0MOnpVSxuGM5XY2jiA61jey1ima8Gc+ZlDE555acSsfFewaPcmYUYw15GIm8390iGyOjTibCTxNj4j2UNKftjOPMp5TI7pDvw1/YBLnuR+jwJVRXvmFUUE+akqlaxWP809GVO2oadqWEzktraevlNOK+SlPvRHfpLGfMp07eYCpWXyfHpzPaTS2eyg4o9nWmFEcTedJHmcEa9P8u7psx8EcT7e0P3Fimn8zOc2zSeUM50FeYHqa7dqU4zjRtVQxihn3txULnbiAC5jH2wxnOGNYWsv0rejNtvRnT1pk+Invpz19ejFTxp7sCXzKq7zJaCbXEqEd2ZW92TvlQ35SKIwZxUhLDuGQir2biUxiNvOYxzzq0ACoR1va0Z5N2DqCMzpvpT19ZuNMd6c75wOLGc9k5vA1s1kBrKScVrSiJZvSne40d/ErpjxoJiXUg0/Tmr43Yy2alOCgmVeaSQnM4bM0/2I831k2KQFjRkrgjbSvbCtP+zCbZMxIJevNjKJJkjEjpeS1PP2NZMxIJWh6Sg9nrmosMy2dZMxItXspo78q5xVLJxkzxW91xb0kayxFnmMm878TrKnot6stRdHx9sxYW8U4xjON6XzFNGaxmoWV3m9BPTZmMzrRic3oQw8XeEo/eJmeZXmZtW65pbQp9DHjmMZ0plf02/mV3t+QurRnUzrRkc3oTa+IBhuVMaOUfcsLvMtIxrCixunmA98yft1/N2Zb+rEr+7OhRUzqXeZmvFw+8AmWNfbHlxjBSEbXMljQAmAuE9b99wb0pR+7cAAbWcQYchSAmPmUwTzLu1keEqvPHhzK4XS2oAlcxvUZ/+2V/MUCJjCFwTzL8CwPidVlFw7l8AwGQlX+OEJzjK1kMHcyNMsB8Ssv/H04myPdpa2iC1My/tstmWgBK1nLa9zMcxH2W9ieszklR88ilTFTohZyA7czJyfz7sQvOY9GFnndGrBdVn8/nq0tYoWl3MItfJ2TebfjXC6mmUWOQcx4vjIGezH/oCt/zFHIwHQuoxv/8cq0Ck9l+fdPWkIA1nA3W3FljkIGZnM1XbmVVZY6eMZM4IbSkwv4JsefMp3T2TbtJ6wUpycL/PfF4V36clbOIuYHc/gFPRlmuY0ZZWo5V7Ifk/P0aePYjStZWeI1H7Xe9U2ZHjIYV+I1XM3f2DPrOqbqc/bhnFofcydjRgl8zHb8Le2HEmf787A7X5Z01e+NYB73lXQFp7ITV+b1UFY5d7Jjmk8HkjEjhrE7nxTgcz9gZz4q4e3whyOYy/0lfCf7B+xSkP4zgd0cIduYUToe4ADmFeizZ7IXz5Vo3Z9ndgRzmc3LJVq/Z+nPrAJ99lz253/+dBgzSjVkTi3oOZLFHMkLJVn5/0Q0n3+XZPWGcDRLCvj5KzjZoDFmlNrKenpez8gksoqjGV5ylZ/CsxHNaTBTS65673B8wS8uXstpJbsnbswojZX12CDuBFjG4QU5N1RIN0d279Aabimx2o3nwILuyfy4gXSsF+YbM6rJPE5kWTBtGVRSl4ku5L8Rzu0uFpRQ7ZZwXDDfdynHZDz0qYyZolfO6UEdbJnARSVU/burPEQhO4siO88TB+dn9LTRXJnOqZGOoCZjpojcwdOBtejOrIdeiYtFXBfxHP8SaWyF7LFI9wOjMIS7/TkxZlTdXK4KsFUXBHHEPff+EvmFuHP4W0lUbimXBdiqK/nWnxRjRlX9mu8CbNX0yLfyQzSNv+dgrn8viREVrmFakBttV/uTYsyosvHB7uZfm/MBEEPY9l2eg7ku48qir9yX3BBoy24vuSsljRnV4m/BDsS/jJuKvPbv8kiO5vww7xZ57W6s5THhhbOGa/1ZCYSPNQtkm7BrwM/NaMaXtCja2pezG+/kbO678DZlRVu7uWzG4mBb14DJdPTHJe+qP9bM5/MG4eagH860iDu4omhrP4RPaZmzuX/KEA4t2trdHnDIwEpuLokzi+7NKKXd+44FG3AwNT2Cui9CoejOZ0G3rz3TqetiKvjejOdmAvBq4CEDnzDaxaQqRgYeMjDTJ2sGwZgJQBxGlX3IxST7rYyZeCqPxaD7z7ugVMVzsWijw84YM2Is38SglROCP7Cn/JrBxBi0crZ3zxgzgtdiss/lUW6t71XXLxkzcTEiJu1820Ul+62MmTgabztlv7XfGjPKlRV8HpOWTnBhaZ3y2PSHz1jp4jJmSttnrI5JS79ltotLFWYwPyYtXRWbDTljRjnylW2V/da2GjPKnThdJjzTxSX7rYwZV1fbKvuC/daY0TrzY9TWeS4u2W9lzMTNStuqGFoRo7aucnEZM8aMq6viZpXrmIyZuFgdo7YaM7LfypiJnYYxamsjF5fstzJm4qZpjNraxMWlGPaFpi4uY8aYsa2Km2ZGooyZuGhpW2W/ta3GjHKnY4za2snFJfutjBlXV1dX2W/tt8aMYrgK1Kedi0sVNqGukShjJh7a0CYmLd0qRj8syv1GR5eYtHRjz80YM9o6Ju3s7aJSDPuD/daYEX2MQxkzOdPLRWXMaLuYtHN7F5Vi2G+3c1EZM9otJh1lFxeV1rN7TH489nBRGTPqSvsYtLIPLVxUWk9LesSglZ3YzEVlzCge21t7upgUwz5hvzVmBMBBMWjjwS4m2W9lzMTVwcHfkdKUvVxMqmIfGgfewnrs72IyZgTQmp0Db+G+sXq+iPKjEQMDb+GutHIxGTP63rGBt+84F5HstzJm4uwE6gfcuuYc5iJSAkcG/dyZBsaMMaMftQn6GPIgH3OrhBpzVMCtO4iNXETGjH50ZsBtO8PFI/utjJm4OzTYEW938P5/JbV7sIMQdY3FBdfGjPK6IM4PtGUXunBUgwsCbdcv/XEzZlTV6UFefLkpx7hoVIPjgnw0XytOc9EYM6qqOZcE2KqraOCiUQ0a8JsAW3VZ0NfAlZoyyiu/MIptrEqBLGILvg2qRVvwaY2XWi/nGxawgGUANKIlLWkd9MXZit5KujE1qBa1ZQpNanh/RUW/XQrABhX91g2qaIxm2yqv1LMo4WjGb7goqBb9OUFkzGE0oxjN50xndoK/qcemdKEXO7Gzo+OWyP7MHzklqBb9NkHIzGUUoxnNRKYzq+rWNVCXTnShJzuxE11dqO7NFK9VbMuEYFqzJ69TVvHvtXzEi7zDaGakMYcuHM7hsXkyiTJVzh68HUxr+vDhuu3ncsbyIiMYzZdpzGFTDuNw+gc/1mBc9maMmRz5li+YyizmMpflLGAtUI9m1Kctm7AxG9Oetgn2FYYxIJBvUI8P6QPM4WVe5GW+yXhOXTiX02lpp4iBuUzlC2Yyl7ksYxGrgbo0px5taU972tKBtgkOL42mH2sC2XJ+nT2BubzKi7zIzIzn1IlzOIu2dgpjJixTeYOPGMMY5qe0QnSmL33pQ186r9tvOJ3/BPFdruDXPMF9vMnaCObWhAu5nOZ2kSB9zTBGMYZRzE1p+s3pQx/60pcu6/ZUL+P6IL7LmdzMU9zPq5HEXkN+zm8cTcCYCcFKXuUphvJFxnNozs4MZCB9WUzfAE6obsDBPF9xaj8qrfkT56yLUxXeal7nSYYyMYvNhx0ZyEC2ZzX9GB/APvjhvMyiSOe5Ib/lQg+gGTOF9A53MDilvZdUtGEfGnBf0VZrP/5NRztNAEZxB09EdmVjSwbQmjuKtlq7cl+w43QYM0W+LfgAt/CRhUjzB+lh9rMMBbSWx/gHIyxEmvtt//VW5QxjxkuAMl5VH6QHPzVk0jaPg7nbMhRIOU/Rl+MNmbQt4TiutQwZ8b6ZjIzkbEZZhoz3As9idpD3jhe7jznLgMli0/IKZvJ3C5E292bStoxL2dmQydJV3GoR8molV7OtIZOlm/iDRXBvJtcmczRjLEMELmAjTrAMefI1xxoxkbia1pxnGdybyZ0h9DNkIrKWMwMa8aC4vcH2hkxkLuIdi2DM5Mp9HBHZhcuCpRxfMXihcmkw+yccfU6ZWcUJzLMMxkwu3MFPAxlOo3iM53KLkGOPMIgVliFS0zjXIhgz0bufcyMZdEWV3e7FFDk1hJNYZRlyEN6vWQRjJlpvclaCocOVvTX80srmzChOcA88Ry5gtUUwZqIzhaM87JAzb/G4RciJWRzKYsuQI+O5yyIYM1FZy0/5zjLk0DXuz+TEz/naIuTQte7PGDNRuYE3LUJOjWGYRYjcPTxlEXJqKk9aBGMmCpP4rUXIuestQcRmBva4b/utMaOkfuVZmTx4kWkWIVJXs9Ai5NwHjLUIxky23nO3OC/KvQwgUp9yj0XIi4csgTGTrV97ctrVNYZ+58npPHnYXwhjJjvjvQUrbz7kc4sQka88+Z83U3nPIhgz2fiXJcijVy1BRO50X8Z+a8zEwyLutwh59LoliMQqbxu03xozcfEsiyxCHr1hCSLxGrMsQh69w0qLYMxkHjPKp1l8ZhHst7GzlA8sgjGTmVW8aBHyzLGas1duzNhvjZm4eMsHmOWdz9LM3ji+tAj2W2MmHt61BK6u9lvZb42Z3HnfEri62m+VgvGWwJjJzIeWIO+m+Agu+20MzfNBIcZMJuYw3SLk3Wq+sQhZWeGWdUHMtATGTPq+sAQF4R0f2Znu/f/2W2MmLhyW3q1C+63st8ZMDnlRqFuF9lvZb42ZHPrKEhTEPEtgv7XfGjN2G+XOcktgv7XfGjOlYZklKAgfiG2/td8aM66ucqvQfiv7rTGTraWWwK1C+63st8ZM7qyyBAXhkzvst/ZbY6ZENLIEBdHYEthv7bfGTGloYglcXe23st8aM3YbfyZlv7XfGjN2G/kzab+17saMKmtqCVxd7bdy88iYyZ0OlqAgNrEE9lv7rTFTGrawBAXR2RLYb+23xoyrq3KljM0sgv02hja3BMaMq2s8tGcDi5CVTbxzpgAa0t4i1KieJUikKe2YHZMufljFv55Ocg94Ew4CoJzH3SYs+v3Bznwck5YeU/Gv51mScIr6HFHxr8GB32W/mVvrxkxm+vFcLNrZnUcBWJF0O7ZOxRSwceDRuZ3dLoJ+G4+Y2WRdr2yeZIrV3E9DAHoxwX4ba8ZwErvFpJ1bVvz/V5QnmWIRCyv+1TXw77Kz3a7k+u18FiWZopwZ9ltjprjtHpN2blvx/9NrmOaH97YJ/LvsYrez39pvjZnSsUPFDnvo+qexuu4V9Ddp54UXEejBRrFo54Ci6beNgo9BYyZYG7BTDFrZnB3SWl3LAv4ue9jpIlDGnjFoZb11rUyl3+4c9CbfTjSw2xkzmTomBm3cY901HFNqmOqH99rSI+DvcoRdrmT6bb91J/5T6beNgt7ks98aM1kYRN3g23joun9NrmGqH987KNhv0pBD7HKROCwGI2wVT78t4yi7nDGTuY3ZO/AWNuK4df/+vIbpfnzv5GC/y0A2tMtFomnwgV2XU9LstycF+0O1I53scsZMNo4PvH1H0aLiX8v4OqWtwj70DfS7HG13K5l+uy8dK/5VXuPezFesqPhXx3WXuthvjZkicyKtg27f6esFSXkN0y3km8D3Z1oyyO4WmUMDH0/hx347i8U1TLeWLwLvtw3X2y+TMZORxpwXcOu2XW8Lb3It0/54+OGnSe+6LqSzfVJKhOpxccCt22K9k+ap99tjgxw37Ce0s7sZM9k6P+AHbf1hvcuTa1tdf3y/VYDRWZ/z7WqROiPg/fDfUj+DftuIS4P7JmVcaFczZrLXmjMCbdmO612tU/OJ1KrvXxzcnsOx647VK6r98F8E2rKt+EmG/fZntA3su+xHL7uaMROFq2gVZLuuqfRftQ2X+HGl6Axr36Ehf7CbRe7iQKP7T5VG602n3zbm8sB+Oq+xmxkz0WgTZGc6lYFpxcyEKtEZ0uPDfkkXu1nkmnJjgK06hGOz6Le/pHdQ6+D2drMUlVW9RGmUI/RUsZZdeS+oFrVnAi3X++85tZ6IrM/iSkNivBDMDW9tmegdMzlyEC8E1Z4NGV9pH2sFTVldy998U+ks0/vswtpAYnyiDzNLYvS6gVHdm0ljh++fgY1adHulkCGFp3GsYmKl/z6wylZl4VxryOTMTYFdwPL3KgfyPqs1ZKr27R05J5DvcrUhk9ZvqGq1PdcF1JrL1j0vM/WYqT7N7UGMh3wcp9q9cmYr7gioNafz0wj67fVB3GA8kIvsXsZM1H7JSYG0ZH/+UuuqmEjVo+AteargY1914ja7Vk6dxM8CacmuCZZ1Jv22MYML/qiDNtzrD6cxkwu30T2AVnTnkQQDeqbyWN7x1V7pw+0F/S4NeDjQq/iKyd/pF0ArNuXJBIP5Z9ZvN+Pegg5qW4f/sokdy5jJhea8XPAhPLbklYRnMlJZXRNNczJ/L9h3KeNOdrVb5dwGPE/PArdhY15MeJHK+BT+NtEez8H8u4A/XDcEPF60MRN7nXipoENLbMWwhPdCzOLbFP7683XDEK7vQn5foG9zrWdl8qQNLxV0A6kTwxM+52h5jc+a+cG3zEnw6qncXKBvc4V3/hszuf6hf7lgg3j0YhgdEr4zLqW/X51kn+dqfl2Ab3NJgEOHFK+OvFqwmzW3YBhdk+xfr0lpDmMTvno+NxTgWbCnJTgzKmMmYn14l24F+NzDGJH0ePDIFOeRbLpruL3Sndm5VsafuN6ulFddeJftCvC5A3g/6c232fbbi3mIDfL6bS7i30E/5tyYKaIV9p08P/uijN/wFM2Svv9BivNJPt05DMnbuM31uJur7EZ514E3q10In2vn8VINV4Vl32+P4zXa5G0tvJ4b/bk0ZvKlJS9ycd4K15Hn+XONn5bq6lrT1uP+jGTHPHybdjy/3tNGlE9NeJLf522/tQ2PcmuNnxZFv92FjxiQh2/Tgse5xC5kzORTA25gaF7GBfsp4zmgxilm8lWK8xrPshre3ZK3+W2OLxTdl9Hsa/cpmLpczdt5Oeh7DBNqeVDd0pTumgH4ktk1boa9wnUJLpaO0i6M4ii7jzGTf3szlnNy+rO8Da9yT61DsXyQ8vxWMbrG9+vxR95h5xx9m6Zcz4tsbMcpsB0ZxcU5HTypO4N5rNaDWaNSGGgmtT5eh0v5kH1y9G024Pe8GfjTSI2ZItac2xnDgTmZ96bcl+Kq80Eac6192h0Ywf1JrmjLXBk/4TMusbMFoRE3MIFjcnIye2P+xbiUzgGl029rv1hga17lqRyM9H0kE7g6rxfIGDNK0L2f59WIt6R6828mcnKKiyba1fX7SJjIrXSOLGL2523u977poHTlMd7ikEhX/634J5/zsxR/lKPdPAI4go/5d4RjdezJqzwZxMh/8eeDACIxjn/wAMuznEtDDuS8Kk+SqVk5bfgujcMZn6Q87Woe5TZGVO0eaanPsVwWxFCHSmwS/+C/LM5yLvXYl3M5OK3Q2opJKU/bJuEtmomt5Rlu4fWsHhdQhyO4nJ3sHhmq/iAAYyYyC3iWx3kpo7CpT3+O50hapPl3k5Pc+pZs9ZmX5oXLk7mf/6Xxg/Bjt9qVExgU3GN1Vd0SnuNxnmNpBn9bl905nmPSvml5HhultQHzRZpnR6bzAA+mfJHB+vpxAsdFftjYmDFmIrWI13iTt/gopVOcDdiGvenP7jTN6NMe4fi0pn8to3t+JvMKrzCcb1KYtgN7szf7saldIVaWMozhDGckK1PaLOrF3vRnzwyfFvQK+6U1/WMck8GnfMkrvMKbzExh2nbsxd7s55NccxIznt2KWDMO53BgMZ8wkc+YxGzmMY+FFanegha0pw2d2JrebJXlAng77ekziZkudOFnwAzGMIapzGA23zK/YgulFa1oxaZ0oyfdIzuno/xqzMEcDCzjYybxGZOYxTzmsqDi/RZsyCa0oSM96UUP6mf1aSPSnj6TmNmUMzgDmMMYRjOVr5nNHBZUHFBrQSs2oiPd6EGPtI4KKP2jG+7NxFjfJCM+JbMfL1k0FdwAhqU1/fYpD02jEPdmvNIsxuamNJR65a3CVZZNBbaS99L+4Zpv2WLMmImx4WlfT7OYjyybCuz9tC83WJP2YTYZM4rEmxn8zRuWTTHst29aNmNGhfB6nv5GKnS/HWbZjBnl35xaxihLtjez3NKpgJYyPIO/GpnGbcgyZhSRlzO603kpb1k6FVBmGzpredXSGTPKt5fy/HeS/VbGTAkpZ6irq0ooZl7Manw9GTNK2+iUhtBIZHzKD0KTovYln2b4lzMZZ/mMGeXT4Cz2g56xfIpdv83ub2XMKG1PZPG3T1o+2W9lzKgmk9IeZmZ9b/CtJVQBfJv2YK/rG80US2jMKA7bhLCaIZZQBfBUSo/HqOnvZcwoT57OenWX7LcyZpTE57yf5Rxe9LCZ8m4Or2Q5hxEeNjNmlB/3ZX0HwUoetozKs4eyfgxFOfdbRmNGuVfOg5FElZRf90YyD2/SNGaUc29EcuDgg6yuVZPSNYFREczli6yuVZMxo7xtE7o/o3y7J6L5/MdSxk5Z1X3QUWxjVQL2DZtGNJR/S6bTxIIqL5bSibmRzKkRX9LaggZsNNu6NxNvt0f2vJh5nk5V3vwnopCBZdxhOWPGmImVFdwW4dz+ntETa6R0lXNrhHO7hRWW1JhRrjzErAjnNpEXLanyYEjG4zInMptHLakxo9xYxd8inuOfvTxUediXuSbiOf4ly0FrZMwoiTsi3SYEeIdHLKtyvg/+XsRz/MTzM7HilWaxMZ8tczBETEc+o7HFVc4spzvTIp9rKybRyuIGySvNYuxPORmH7CtutrTKoRtzEDIwl/+ztO7NKFpT6Jmj62uaMpH2Flg5MYctWZiTOTdgPFtaYPdmFJ3LcnYR52J+b3mVI1flKGRgJVda3pgwZmLhzZw+oPYexlpi5cDYyIaYSeRJ3rTEsVDPEsTB5ozM6fwdvEO56Vfv5XT+bSyxMaOobMqmFkGxswmbWAR50EySZMxIkowZSZKMGUmSMSNJMmYkSTJmJEnGjCTJmJEkyZiRJBkzkiRjRpIkY0aSZMxIkowZSZKMGUmSMSNJkjEjSTJmJEnGjCRJxowkyZiRJBkzkiQZM5IkY0aSZMxIkmTMSJKMGUmSMSNJkjEjSTJmJEnGjCRJxowkyZiRJBkzlkCSZMxIkowZSZKMGUmSMSNJMmYkSTJmJEnGjCTJmJEkyZiRJBkzkiRjRpIkY0aSZMxIkowZSZKMGUmSMSNJMmYkSTJmJEnGjCRJxowkyZiRJBkzkiQZM5IkY0aSZMxIkmTMSJKMGUmSMSNJkjEjSTJmJEnGjCRJxowkyZiRJBkzkiQZM5IkY0aSJGNGkmTMSJKMGUmSjBlJkjEjSTJmJEkyZiRJxowkyZiRJMmYkSQZM5IkY0aSJGNGkmTMSJKMGUmSjBlJkjEjSZIxI0kyZiRJxowkScaMJMmYkSQZM5IkGTOSJGNGkmTMSJJkzEiSjBlJkjEjSZIxI0kyZiRJxowkScaMJMmYkSTJmJEkGTOSJGNGkiRjRpJkzEiSjBlJkowZSZIxI0kyZiRJMmYkScaMJMmYkSTJmJEkGTOSJGNGkiRjRpJkzEiSZMxIkowZSZIxI0mSMSNJMmYkScaMJEnGjCTJmJEkGTOSJBkzkiRjRpJkzEiSZMxIkowZSVIJq2cJ4uAVHs/p/E9jF4usyL3Df3M6/2PY1yLHQBnllV8YxTZWJThz2ZK5OZv7pnxKI4usyC2jG9NzNveNmERLixyc0Wxb5RUPmsVCK36fw7n/xZBRTjTiLzmc++8NmZgwZmLi5/TM0Zx34gTLqxw5kV1zNOfu/MzyGjOKUj3+mpP5lnEjZZZXOVLGtTnqX9dR3/IaM4rWoQzIwVyPy9nWpgSwG8fkYK77coilNWYUvRupG/EcN8jpsXMJ4G9sEPEc63KDZTVmlAt9OSniOZ7P5pZVOdaZcyOe4yn0tqzGjHLjskiPc9fnl5ZUeXBxxOdRLrSkxoxypVek52cG0cmSKg86cmSEc9ufPpbUmFHuRLkdd4HllP1WxowqO4itIprTbuxoOZUnu7BzRHPqwQGW05hRbhfYmRHN6WyLqTw6K7L5eJ+XMaMcOyWS8U6bcJSlVB4dS9MI5lLPMSuMGeVeOwZGMJdBkaz0UqqacngEczmQjS2lMaPcOzWSfSLJfitjRgkdzoZZzmEz9rKMyrN96JjlHFpyqGU0ZpQPjbJe2Y5xwasAPzZHZ72B1dAyGjPKjyML/PeS/VbGTFE7gCZZ/HU7H8msgtgjqxP4TX0kszGj/GnM/ln89REudhXo5yabw70H+JRXY0b5lM1dLx56UKEcab81ZhQXB2X87Jkm7G35VCADMj7cW9dBZowZ5VdLts/wL/t7tY4KpiF7ZviXO9LK8hkzyq/98/x3kv1Wxoyrq6ur7LcyZhSNnWiRwV9twZaWTgXUnc0y+KtW7GDpjBnlW72MTuUPtHAqsEz64ICML3mRMaMsZHIydW/Lphj2W8fgM2ZUEJmsertbNhVY/zxFk4wZZa1v2mdnutDJsqnAOqV9dqYVvSxbjNWzBLk1g9nMZz7zWE0jNqCMNrRlY1pGMO+67MZzed8mXMIMZjGHtSxjOQ1pSUta0YnmLuwiMovZzGM+81nJBjQCWtOOdmwU0X74fWnug2e/PbyMGcxkDmtYzjIa0JKWtKRjJGti1BawNo2p6wf/iEJjJgeW8wFvMo6JTGRJkmka05M+9GI7ds7idsk98xYzUxjOWMYwhm+TTNGB7vRgN/aivV0gllYykrcZxSQmsjDJNBvQk170Yjt2oXEW/fa+PPXb6bzJWEYzlllJpmhHD7qzK3sHtKf/Z65PY+o7OSvwnlVGeeUXRrGN61vGJvI4zzOSFWn8TSN2oz+H0CeDz3s9zePcE+iZ9k/PS7zAy0xO42+6sT/HszNldoiYmMrjDOF9lqXxNw3Zmf4cTL8MPm9cmr39TfZI8xPW8CrP8wqfpPE3W7Avx7NnAGcSFrIVs1Ocdjs+COzcx2i2NWZyYzb38AhjsphDT47nBLqm9TeLaJHG7nUz5qfVIUfwAI8wN8Pv05kTOcdzQYGby395mJFVfwbS0JXjOZ6t0wyBDZPu51dXlwVpjYT2EffzcNK9l9p05DjOpUuBl8u/OTPF/YQ3g7usx5jJiVHczMNp7cEk7zT7cRH7pbEfsDUfpzzt3gxL+Wfgcf7GqKy/T32O5zJ620WC9DH/4H6WRjKvvbiQw9LYiNmT4SlP25uxKU5ZzrP8jRFZf5u6HMll7FjAZbOWnfkghelO4H/B9avqMeOVZlkaywFsx72RhAyU8xIH0Iv7Ut5HSefe6H4pdvB/043jIwgZWMX99OUYptpRAjORo+jFHRGFDLzBkWzFHawuWL8t52F6cXgEIfP9ZtZOHMinBVs+dbguhaka8LdY9DZjJgszOIPteCkHW5mnsh0vR766pjLtm/TjzLTOxNS++j9BT34X2Q+asvUtv6QXT2VxoCyxyfyMXjxVkH47kj04IY09+1S8SB8uYUGBltJe7JTCvkw8DkobMxn7N925hzU5mvsY9ufAFPYColxd53Iie0WyF1PVMv5En5QOAijXHqU7t7AqR3P/jKPYM4W9gCj77WLOYSfezsG3WcWNbJ3yoeao/azWKc6JSZ8zZjIym8M4k0U5/pQX6cOdtWxz9qVBinNrTeca3x9KHx7K4beZzG5cF/kWtNIxjxM5ju9y/CnD2Y4bajnsu0XKT49pWMtVae+xLXemdZ9Jer5mIFelfDAwSkfV8lDqzuxszBSvN+nNs3n5pEWcwwHMqXElTPUEe01HuNdwJfvxdY6/zSou51AW24EK5MMcb0isv/d6KXsyvYYpylK+ELpPDRtS5fyF3fk8x99mLdcwIOMrLjPXvJbnhR4Xm1sGjJm03c++fJPHz3uZHRkdweGHHWo46HAkf8vh9uD6nmNAXqunHwxmL77K4+e9zQ41HsjKvt+u4BR+naf9jOHsUWNs5sbxNb57Qmz6njGTpt9zKivz/JnT2I1Hs15d+yU9KLBHnvbNvvcBu/GFHSnPbuKoNO5UicZsBnB3zvrttwzkgTx+m4/ZlQl5ruBB1E/63uYZ3dBtzMTAlfyxIGcXlnI8tyd5b7sU55F4uq/Yo8Z9pVyYxD4Z3zynTFzHRXnaW61sJWfxfznpt98xgLfy/G2+Yh+m5PUTm9Zw784+Mep/jmmWhj8X8Cr1cn7OKn6R4J3u1E3hercN6ZDg1W/YryB7Fl+wH29m9PRPpe8erijgp/+G1fwuwesd2TCFi4Xr0T3Bqws5gHEF+C6z2Y+3aRfBnNYyhknMYDqraEZz2rMD3ROca9kn6YHHfRIemXiHKSxiEXXZlE70oIcxEy//4LcF/fxyLqAuP6/2+gZ0YWKtf711gi48j33SGvMpSuM4hudTvkpOmbufswp8fd/vqcNV1V4toyfv1Pq3XRIMLLuUAxlZoO8ymUN4Pa2hb6paw9MM5qUEF/ZsyO6cwhGV1ooB/DHhXMoYUOm/R3M7L/BlgvodygkFHc8APGiWsmFcXPA2lPMLhiR4PZXhMHsl2J76SUG2CH8wNMFPj6I2krMKcrisst8lHBIls34LP4/kTv/MK/qLjP92NffSg2O4P+HVowt4juPoyJXr7eUlG7+9+3r7VC+yK9tyR4KQgcncxE4cmvcD48ZMRjvLJ+XsRsz0drVPTHAaMpVhC6tP8weeL/C3ub7gLSh28zkuomGQst1AOoP3I+q3t3Bvgb/NfzIcR+xdenEak2qZ6hv+Ro91n9CQvgmn2mHd1D/hwFr3CoewHeemNf62MZN3qzmWmYG0ZRFHVXsWSCqra9Utxxf4cwA/PmfWeE+Qsq3vqXk+ZZ3cco6uNrR9Jv32HS4J4Nv8PINR+m5hDz5LcdqZnMThFcMz7VhDzLzH1jyYYl+4nV0L9itmzKS01f1mQK2ZyKVZbxUuDOJQCszkQrtXztzNMwG15qtq5xVT6beVD5qt4PScDZOTjgWcneZfXMUv07zD5xn24TuSXfjdDxjGwLTuQRvN7swwZsI0nWuC+/moPFxnt1qv5GhV5YmWv8n5Hf+pejiNAeGVjrn8OrAWPVnl7q8OtT4guT5bVvrvvxRwzOTKXknrXrPrMvoNeZfd+ZbtE7xTl214jYPSHlFjCgcVZAhbY6ZWFwY3PEo5P6s0nlrDWh+GVnm78X3+FdB3uSSI/aric2XSx2kXzvlVtr5ruwhgy0pXXX3GXwP6LpekfJv2MH6V4Wd8yiC2SLARuQVzOI7lGcxxTEGOHxgztXiJJwNs1dQqT6Oo7fDD1lVWkDUBfZcP8novd6l4n38H2KpvuDqtmNm6SnCuCOi7TOLWlKZbyulZrG+vcwtbVHu1Gz/LeCPiLt4wZkLzh0Db9fdK24Vb1TJ1t/X+/Vre756uzTXuz+Sg34ZZ07sq3Q5cW79d/9bMCUGdaQK4NqX9iWuzfKjf1TSr9trnvJDFHC/O+31UxkyN3kjhBrLCWMz16/1XbQfN1n+y+Z+C+y4TedGuFqlxWf0M5dKqSmcptkyj314dXHDOrmGkwR/X01uy/JRlfFTttezOUH3EUGMmrO2VcP1zvd3mLrVM+2MMjeD1IPfNFKWQn+tz73r7M7X12y7r/bCGePD6plqneDCCBwhEvyzzfW7WmInlNiHAkvWumO9ay0L+8YFm9wT5XYYy3u4Wmek8HHDrVvOf9WKkLMWY+W+QBwFH1Xqe46Egl8ELeb6syZipwX2BP+vxx9V1ExrXMF1HNli3A/5YkN+kPMWbzJSKB4K4t6Sm/ZkfIqMRm9QwXRM2rvjX2mD7R83tWhDcedAffgfyexmAMZPUWh4JvIVj+LDiX2UJrkZJtE04uNoIAqF40g4XmdD77ZfrnRvoWmO//WFf57W8PpAtHU/XeBXZO0Fd07m+d42ZMIwowNPy0vW/lFbXrjH4AZpY0GE8i8knjAm+jQ8m2ASKZ7/9psYRQkYF2+6xxkwYHo5BG19NaXX94b01QZ7+/8ETdrkS7LddU9oLfy2m/XZKsK3O71OmjJmknotBG8etG3pysxqm+uG9McwP+Lt4UXPp9Nuv112Sm0q//TLgn+ua++2MYFud30E0jZkkvsrypqr8KF+3f9Kphql+eO/1oL/LqIwGz1Bli2JwyGz9/ZP499vJ1Uae/tGSYFvtlWZBeCsm7XwzjdU17O+0ct0FDcrcu2mOA2y/jaLmyft0uGubMROAt2PSzk9rXV3rrhud+bPAv8s7druS67cdavgJ6hj7frthsG1untdPq+eKGe/VdSLzKhZkwyQDC7ap2EEuD/oId81bhSq2fvt5Rb+FtsxKOEVD6lZM83ls++1GwbY5vwFozCRUHsxzLWoznVa1TDGr1ilC28JV5j6OSTuX1NorVwT8I51qvzVmvudBs4RmFPC52aVrqiXI0rJgHiZeSuYkfVRYl2DbnN9NT2MmoSmWoCBbuHMsQla+CHx4pOJUnnQDaa9g29zbmCm8yZbA/Rn7rbLst71pHWiL+xkzIWwVypix3yq7fluH/QNt8Q7GTOHNswTW3fop67pfHGR7N6n0PF1jpkAWW4KCWGIJ7LcxtDTpO9txQIDtPT3PP/zGTJrdRtbd+in1zaNraBhYa+twRt4/UW5V+zNpv1WO+u123BBYa49mc2PG1dW6y/oVT93P47SA2tqSmwuw/6QE1liCglhlCey3MVTbcKX/5rJg2nrTujEOjZkCa2QJrLv1U4o2qPVn9lruCWLQpz9xSgE+1ZhxdY3R6ir7bVz77U+ZyHk0KGAr63ADVxXok+XqGoyGlsB+W7T9diNuZQb/YEfqFqCNfXmrYHfxOEJzQo0tgTFjv1Xk/XYjfsEvWMwHjOFrZlc8MbYt7diczTmS77JoRRntEz4Wug57chonFfDH3phJqL0lKIgmliArG1uCWPTbpvSnf7VXb80qZKCce+nCaMYyk9ksphkN6Uofdln3gDhjJiidLEFBtLMEWdnUEsS4396Z9Rzu4hE6c2Rw9fHcjKurW+P2WxW8377LuKzn8TTfBlkfY8bV1Zix36rg/fa5COaxkpeNmfjoUtALD11dlZm2sXmwsf22qlciaclQYyY+GtLHIuTdhjSzCFkpy/PjqgRQN4JLhhYzMpK2DDNm4mQHS5B3W1sC+20MdYngtuKJEQ0UNJVlxkx8uFVozNhvla9+OymitpQH+aBuYyaJ/pbAmImhPbxHIZb99svIWjPVmImPzvS2CMZM7LRid4sQw367IrLWrDRm4uQwS5BXddnRIthvY2iXCOaxNrLWhPgwCGMmqcMtQV5tS3OLEEnMlFmEPNqczSKYS3SHOkP8STdmktqBvhYhj/a2BJHo4nnFGPbb6G6s3dyYiZefW4I82ssS2G9Ltt9uEVl7tgiwRsZMDX5CS4uQJ80YYBEicnjBR+QtHfU4KJL5dIvop3iTIH+zjJkaNOY8i5C3n0aflRLdT98lFiFPBtI2kvlsxM6RzOegIKtkzNToMtpYhLw43hJE6Fw6W4SY9dtDI5lLmNcZGjM1as5vLUIetGE/ixChhvzZIuRB4wif7XJ8BMP1tmegMRNHP2Mbi5CHre/6FiHirWwvqci90yK8CH9zzsx6HlfRKMg6lVFe+YVR/qxWMY4dIrxHV9U1YmpER7j1oy/oyyLLkEN1+ZSuEc5vJluyJIu/34JPgniAyWi2dW8mXb35g0XIqVMMmRzozI0WIaeOiDRkoD13ZHFrbUMeCPYpWcZMCi4L8OnaxbQv8yuLkBNncrpFyJl6/D7yeZ7EFRn/7Z2RDHpjzBSwSA84wHrOXBHJYB1K5HbvRsqZn+VkcN1r+GkGf1XGXzgl6F9QpaAxz0S8g6zvbc7lFiFn6vO4QyblRGv+mKMf5H9zbZoHv1rwCFcGvqGulLTnTXpahsi7352BXhtTLFrymiNf58AtObvbvozL+IB9Ul6DTmIcg4Jfz5Vy0LzhobOIXc6+FiHHWvGKw5JG7Mwc307ch1d5k+Nq2QRrwc8YywMxGFrIC5rTsoyf81/LEJFdeMP7ZfJiFZdxs2WIyNa8n6ehkZbyGiMYyRdMX3dTRWM2oyv92CPYJ6VWv6DZmEnbnVzEUsuQtW4MdyifPHqYn7HAMmStE8MLctHKCpYCzWLwEG7vm4nA2YwLdEiHeK2sLxsyeXU8E3xUX9Za83KBroxsSEtaxiBkEjFmMrAFL3Ofl+FmoSuvRfggJ6WmA0/zBFtZiCwq+CrdLYMxkx9lnMxEbqG9pcjAbrzj5eEFchQT+LebSBnpy7teHm7M5FcDzmcqD7Jr5HNuWtQBfS6v0truUzD1OJ3PeYIBWQxsUnr9Fn7CcB8XZ8wUJmpO5G3G8Vt6RDC3hvTn/3ifM4KIg9wcdHiB29jAjlPwqDmKoXzKnyPZOq/H7vyBt7msaPttax7nfprZcTJeKl5pFpFPeZVhvMF3aS+CzvShD7uwJ42B19mHtQX/Ng35F6N5iG8im2NjLuRyNrSjBGYyrzKM15md9l9uRm/6sDN70wwYzU6sDGC7+Va+4EFmRLgmnMtVbGRHSZkXNOfBNEYzlklMZRqzEz5CoBkdaEsH2rEVfehd6ZkVS9maqUF8j76MpJwXeYyXM/gJqqw5p3Ilm9g5AvYVYxjDRKYxlVksTzBFEzrQjk3YmK70pi8t1ntvFdszLojvsQXjacCrPMaLfJ31ptFJ/MonkRozoVvCdyxat9I2owFta7y16yquCabtN/NLAMoZxUu8xAhWZbB1uSOn8pMiP25ffJYyl4Usq/ivpjSgLU1qmP5GLgmm7b9b9+iOcbzESwzP6HlR23Eyp1WKUhkzReFzegX0CLUWfEq79f57ESMZzShG8wmra/3rTuzEPhzu1XglYBbdWBhMazZgAltUiswPGcVoRjMhhcN67dmJARzuBffGTLE6kqeDas/Z3JHw9RWMYxJf8RWzWcD8ir2c+rSkBRvTla708hBZCTmDe4Jqz9E8nvD1VUxgIl/xZUW//T506tGClrSjC13Z2ngxZorbR/SrujgKrD6fVtoulKqbTPcU9m7zqYz32MEFE0zMeEFzQH4XWMjAKv7kYlEt/hhYyEC5/TYoxkxA+zLPBdiqB/jCRaMaTOHBAFv1LKNcNMaMqvp7kK1aza0uGtXgH6wJsl0++CAcnpsJxEw2D+DmtkSaM73SnT3SjxbRKdDHCzRkKhsXVa1f4MYk7/yMowNqZ/VzM/VcUcJwV6AhAwt5kHNdQErovmCfYbOCu7mqqGp9D68meSf0Iw4eNAtCOfcF/VMiJXav/TZPlvJCknd6082YUe1GMDng1r3LZy4iJTCRDwJu3STeLaJav8CSJO8cG3zbjZkgPBB4+/7nIlIM9xceKKJaP5n0nWOMGdWunGcCb+HTLiTFsF8MDu5OtEytYEiSd/rE4HmexkwARkY4bHlujA1k1GiFZAoTAm/hV4wuklq/knTMuEExaL0xE4BnY9DG511MquKZGLRxSJHU+omk7xwdg9YbMwF41TYqhobab/NkVdJI7x3Jc3uNmaK3jA9j0Mq3iuYot6KxlhExaOX7AT1YI3PDmJvknUGxaL8xE8CKsDIGrfzGi5pVycdJf/pCspyRRVDr5IfMjolF+42ZgnsnJu0c4aKS/bYg+43xPmRmzARgnO2U/dZ+m9RwZiV5Z1BMvoExU3BjY9LO8S4q2W8LIO6HzIyZglvJRLcKFUNx+fn+JLiHrqWnPOlNsHE5ZGbMFNxXsbgAAGA2i11cqjCf72LS0uV8HetKv8v0JO8Mis13MGYK7MtYRaL0ven22zyJ/yEzY8ZVoEh/WmS/LY5++1SS13vF5pCZMVNws2LU1pkuLtlv8+ojpiR5Z1CMvoUxU2CLYtRWz83IfptfxXDIzJgpuCWuroqhxa5jeZHsKTO96GnMqBhXV2NGcfzpXhTbKo/n0yTvDIrV9zBmCqzctsp+a1sTKo5DZsZMwTWIUVvru7gUw37bILZVThYzW8fqkJkx4ypQEqurSnmTI66bR5OSjrwxKGbfxJgpsEYxausGLi5VaGy/zbnHk75jzCgtbWPU1o1dXLLf5k2xHDIzZgqunaur7Lf222qm8lGR7MsYM64CxozstwF6MukVcsaM0rRFbFpal81cXKrQOUY/HV1jWeFkh8y6x+6QmTFTcJ1oEZuVtZGLSxWasHlMWto6Vgf4fjCLd5O8c1wMv40xU3Bb207FUC/7bQ49ztok7xxrzCh929pO2W/tt5UU0yEzYyYAe8eknf1dVLLf5sW3vJXkneNi2VeMmQBW1zgshKbs6KLSenaJxbm6uuwZw9o+xeok7wyKZV8xZgpuI7aJQSv3dEQzVdKQ3WPQyu1jc4nN+pIfMovnmSZjJgBHx6CNx7iYZL/Ni/kMS/LOcTHtKcZMAE6kLPAWbsCRLiZVMSj4wVTrcHwM6zqYlUkrbswoQ5uza+AtPDiWhx6UW604IPAW7kGnGNY12SGzbrG9qcCYCcK5tk/2W/stsJhXkrxzXGz7iTEThOOCvqd6e/ZxESmB/ekbcOu2iOWZmSEsT/LOoNj2E2MmCPW4KODWXeECUkJlXBZw6y6lbgxrmvyQWa/Y9hNjJhBnsmmgLevLUS4eJd0PD/V8QWd+GsN6LuOFpJWOL2MmEI25PtCW3RzLbULlaz/8H4G27IZYPjXzBZYkeWdQjHuJMROMQewXYKtOYC8XjWowIMgzIPvE9BL8YjxkZswE5RaaBtaittzgYlEtbqJ1YC1qxu2xrOQKnkvyznGx7iHGTEC24u7AOsd9tHexqBYduC+wG4xvi+mjzF5lQZJ3BsW6hxgzQTmO0wJqzeXs7yJRCg7k4oBacyY/iWkdi/OQmTETnNuCGVH2MP7k4lCK/hbM9Yh7c0tMa7iaZ5O8c2zMe4cxE5hGPBPEiM178wj1XBxKUV0eYI8A2rEdg2N5hRnAML5N8s6gmPcOYyY4G/Ii3Qvchh1jvLKqUBtIz9KvwG3owQs0j20Fkx8y623MKGrteLugh84O47UYr6wq3AbSMA4u6B7427SNbfXW8kySd46Nfc8wZoLUilcKdhrzbJ6giYtAGWjKYM4v0Gcfywu0jHHt3mJmkncGxb5fGDOBasB93ELjPH9qC+7nDs/JKGN1uYX/5n1fuDH/5OGYH+ZNdshsq9gfMjNmAlbG+XzEDnn8xH0YG9tLQRWOUxnL3nn8vJ0Yxc+DfzRgzcp5OuleWvwZM0Hrxog83WPdgbt5JZYPgVJ4NmMod7JJHj6pDTfzFlvFvmLv8WWSdwYVQX8wZgJXjwv4nF/n9PBZC/7CJM6I+fagwvphOYtJXMOGOfyMJlzF5/yyKA7yJj9k1seYUT5syDVM4U852dfoyg1M4UoaWWZFrDG/ZgrX0SUH8960Yp0olisin0ry+rFF8e3KKK/8wqggbg5UIqt5lrt4jRUR/QgcwNns65aGcmwtL3EnL7Eskrk1ZCBncUhRPZ5iFNsleWdMDPdmRrNtlVe8qChG6nEkR7KYlxjCc3yT8Xw6cAiHMsA9GOVFHQ7kQJYylCEMYUbG82nLwRzCfsGNY5694j5kZszEUFOO5mjgc0YykpGMY25Kf9eGPuxAP/qxmUVU3jXmUA4Fplb02zFJh1aprBW96ccO9MvJwbcwPJnk9UFF8v08aFYEljCN6UznOxawmgWsYjHNqUtL6tKctnSiE5u676LALGMaXzGdOSxkDfNYw0KaUp8W1GVDWtORTmye93vH8m9C0vGXR9M3ht/Hg2ZFqQk96WkZFDON6F7w0ftCkPyQWd8i+Yae/5WkAGNmUNF8Q2NGkgpmCmONGUlSrjyW5PUti+aQmTEjSQWU7JDZsUX0HY0ZSSqQLxmZ5J2jI/qE8/gz840ZSSrVfZnyhK9vWe2i4My8xG38lk25gFnGjCSVnmQ3Zh4TydyX8nMAFvEPtuRSFhkzklRKZjIiyTvRXGX2J6as+/di/lOw2ySNGUkqiKdZm/D1rpEcMhvDDZX+++SCjQRizEhSQeTyxsxlnMSqSq+cXbDvacxIUgF8yxs5jJmLmVDpv/co4IBUxowkFcDTrE74+hYRHDK7g9urvHJOAb+pMSNJBZDsKrPsb8x8kPOqvLJRZPfhGDOSFAvzGZrknewOma3gd5zMmiqvnsIGBfyuPghAkvJuCCsTvt4l6QOba1PO5wzmNr6o9k5ZAU//GzOSVBDJrjJbncFBs6UsYh6TWZrk/T0L/FwfY0aS8mwxLyV5ZxrTIv+0cwr8bT03I0l59jzL8vZZrTnKmJGk0vJEHj/rNBoaM5JUSpbxfN4+q4yzCv59jRlJyquXWJy3z+rPVsaMJJWWfB4yOyeA72vMSFIereK5vH1Waw43ZiSptLzCvLx91hkFP/1vzEhSng3J2yeVcWYQ39iYkaQ8yt++zD50NWYkSblydiDtMGYkqQi14whjRpKUK6dTP5CWOHSmJOXRzVyTl8/ZOJhvbMxIUh61pW2JfWMPmkmSjBlJkjEjSZIxI0kyZiRJxowkScaMJMmYkSQZM5IkGTOSJGNGkmTMSJJkzEiSjBlJkjEjSZIxI0kyZiRJxgzLK7+w3JpIkjK0rNoLdVhc+ZXFVkmSlKFF1V6oU/W1RVZJkpS7mJljlSRJGZqTIGZmVn5lolWSJGXos6ovzKhT9bXPrJIkKUPVdlU+qxYzE6ySJClD1TJkYp2q0TOVadZJkpSBaXyZYG9mFGsrv/a6lZIkZWBo1RfWMqYO3zGulskkScokZkYztw4wrPKrg1lqrSRJaVrKs1Vfeu37Mc2qxMzC6hNKklSLp6rfnDns+5gZWnWEmXutliQpTfdVfWEhr38fM0t4uvI7L1Y9XSNJUo3G8ErVl55g6Q8PAri/8jvl/NWKSZLScA3lVV96AKAMgLpMo8P679VlHD2smiQpJePpW/XumK/YjLU/7M2s4R+V313DudVzSZKkhH5ZNWTgpu9fKqv4zyZMY6PKUzzMcVZOklSrBzi56kvfsfn3l5f98JDmJfyz6jQXMtvaSZJqMZNLqr940w/XMJete6kVk2hVeap9eHldDkmSVN0a9q16+yV8w1bM//6fdde9uIwFHFJ5ui+ow97WUJKU1O+r3y8Dv+SdH/5Ztt7LdXibnStPWcbdnG4VJUkJPcAp1S8Y+4Cdf7wioKzSW9vzLvUqT12fpznISkqSqhnCkayu+uJqdmTUj/9Zt9KbM1nLgMrTr+UJutPTakqSKhnM8ays/vKveGL9/6xb5e232YUulV9aw5O0o58VlSSt8x9OThQyL3B+5aNoZdUmacsoNqn6YhkX8lcaWFdJEiu4jFsSvfEV2/Jt1fyorg9v0KL6y/14uOqOjiSp5EzjeN5N9MZC9l7/rMz3Et0WM5YjWV795ZH05epEu0iSpBKxmpvpkzhkVnJM9ZCpfm7me1OZyFHVI2gVbzCYru7TSFJJepGjuJ8VifPnBIYkeiPZTf6PcRTLEr0xjv3YlvuqD5ImSSpa5TzLzhzIhMRvr+CEyteX/aishrnuzJCqw2n+qBMncjpbWXtJKnLTeJi7+Tz5BPM5jOHJ3iyrcd69earmI2S9GUB/dqO1y0GSisw3vM0wXmN8zZNN4shkOzm1xww0524G1d6YjejGlrSkKU1dMpIUY4tZzDwmMpHvUpn8Yc5hYU0TlKUwk59zPY0svSSpkqVczB21TVQ3hRl9wL20oa8VlSStM4RDGFr7ZGUpz/AQbvJKZkkSMJELeSG1SVN/atkQunMqn1hdSSppH/MTtk41ZNLZm/khlo7kPPbyoZqSVHLW8jr/5On0bpwsy+ijOnEiP6GXNZekEjGWB/kfX6X/h2VZfGhH+jOAvehs/SWpSE3hDYbxGl9nOoOyCBrRlK3oxla0oQlNE43tLEmKjfksZglzmMhEJrI429n9P0zjTOyTAcmpAAAAJXRFWHRkYXRlOmNyZWF0ZQAyMDI0LTA2LTE3VDExOjA0OjIyKzAwOjAwK3ZDCgAAACV0RVh0ZGF0ZTptb2RpZnkAMjAyNC0wNi0xN1QxMTowNDoyMiswMDowMFor+7YAAAAASUVORK5CYII=;" vertex="1" parent="7">
                    <mxGeometry x="574.41" y="51.5" width="139.17" height="174" as="geometry"/>
                </mxCell>
                <mxCell id="22" value="" style="shape=image;verticalLabelPosition=bottom;labelBackgroundColor=default;verticalAlign=top;aspect=fixed;imageAspect=0;image=data:image/png,iVBORw0KGgoAAAANSUhEUgAAAyAAAAPoCAQAAACMwlI6AAAABGdBTUEAALGPC/xhBQAAACBjSFJNAAB6JgAAgIQAAPoAAACA6AAAdTAAAOpgAAA6mAAAF3CculE8AAAAAmJLR0QA/4ePzL8AAAAHdElNRQfoBhEKFBfxzCFRAABJlklEQVR42u3dd5hU5d2H8RtYOggqUkQERREVISoiRYNdsZvEhjWaqGjUJGrs0TfGXhJ7iz32AiqW2BuIihqKIFgAFREDiPS+7x+0ndnpOzvnnDn3J9cV2VPn/J6z+53n1DrUTBu2ZQu2oAutacq6NKUBkqQwWsJ8fmI+PzKRCUzgU6bXZHF1CpyvOXuxK7uylS0iSZE1jjd5k1eYW5oAqUtfjmEgzay8JJWFRTzPQ7zM0toMkGaczJ9ob7UlqexM5R/cybzaCJAWnMkZrG+NJalszeQmbuTn4gbIAdzGRtZWksreD5zLQ1QWJ0C25Hb6W1NJio23OJXx2Saql3Uxx/Ism1tNSYqRTpzIPD6oSQ+kOXcwMPMC2rEzW7EFXWjpbSCSFGIrbwOZzUQmMI53mZZthocZlOkC30wBshEvs3X6GftyJLvT1TaRpEgaz+s8xvBMpzvGsg9T8w+QrvyHjVOPWp9TOZ5Nrb4kRd7X3M9tzEw3+hv25vP8AqQnL6e+ZLctZ3OydxFKUhmZx51cxw+pR85gACNzD5DNeY/W1QdXcCqXsY61lqSyM59ruZIlqUbNZOdU12SlCpCNGJbq4FUPHqS7NZaksjWaYxmVasQU+lU/F1K32mTNeTlVfJzCCONDkspad0ZwSqoRHXm5+rmL6veB3MvuyYPqcx8XUmFtJanMVbA/m/ICK5JHtKYjz2QOkN9xYfJcTXma31hVSYqJHvRlcPWzId35jk+rDkg8B7IlI2mSHB+v0Nd6SlKsDGcv5icPXEDPqifTE8+B3JocH/V50viQpNjpy7M0TB7YhDurdjuqHsI6mj8nT30/v7aOkhRDm7IxQ5IHduQLxqz+YW2WtOBz2iZOeQq3W0NJiq1B3JE86Ae6rn5fyNoeyHnsnzjVNjxFfesnSbG1By8m35/ejAW8k9gDacbkxEeXVPCx931IUsyNZnuWJQ6aSaeVL75dfRL9lOQnX51ufEhS7HXnD8mD1uekqj2QekyhfdXxbZngM68kScxhi+TDWFPpyPLVPZA9E+MDzjY+JEnAOpyVPKg9e8DqADkmcdx6q/snkqTYG0Sr5EHHrA6Q5hycOOY0mlsxSRIATRmUPOhgmq0MkL0S7z+vw/HWS5K0xnHJ7/5oyl4rA2S3xOH9fFmtJKmKzvRJHrTrygDZJXHoEdZKkpTgyOQBu0Ed2jAtsW8ynq7WSpKUkAxbJQ6opF1dtkuMj3bGhyQpyZZsmDigDtvWpUvisJ2tkySpmp2SB3SpyxaJQ7a2SpKkFH2Q6gGS1APpYpUkSdVsUW1AXdoYIJKkbKqlQ5u6yTedr2+VJEnVrJc8oHm1APEhJpKk6qqlQ/M6LKZB1SFJP0qSBCymUeKAJXWoTBxSaZUkSSkkPQ9rzRsJJUnKiwEiSTJAJEkGiCTJAJEkGSCSJBkgkiQDRJJkgEiSDBBJkgEiSZIBIkkyQCRJBogkyQCRJBkgkiQZIJIkA0SSZIBIkgwQSZIBIkmSASJJMkAkSQaIJMkAkSQZIJIkGSCSJANEkmSASJIMEElSTFWE+cMt5CsmMY2fWQE0YH02ZlM2ttUkyQBJbSlv8jzDGc2yFGPXpxd7cwCb2nqSFKA6VCYOqAz4A03kFh5mVg4ffGdO4TDq2YaSVKLACHGATOR8Buf1CbpyBYfYqpIU5wBZyEXczNIC5jyIu9nAlpWkeAbIRxzDhILn7sAz9LRtJamkARKKy3gfYOcaxAd8y668bdtKUkmFIED+xvEsruEy5rEfn9iaklTSHknAh7Cu5S9FWtJGfExrW1SSai0wQtUDuZ1zi7as7/iD7StJ8eiB/Id9WVHUJb7EPrapJJWkBxJggMykO98XeZnb81G1TZQklVmAHMpTacZsxc70YWNa0oIZzOBLXuUt5uW01LfobytLUjkHyFMcmmJofY7j5JT3dMznDq5letblHs99trIklW+ArKAb46sN3YVb2DrDXLM5hqFZltyK6T6jXpJKECAB/a19vFp81OFS3sgYH9CSZxmUZckzGGMrS1IJBBIgK7gsaUgDHuWSHE5/1+Um9swyzX9tVUkq1wAZnNT/qMv9HJ7jvBXcR6OMU0y0VSWpXAPk3qSfr+fIPOZuzykZx0+3VSWpPANkGq8k/Hwkf8xzCb/POHaurSpJ5RkgDye8qHYTbs97CVtlfC+612BJUpkGyANV/l2Hh2hRwDL6ZhjX0lZVDU1mskWQsqoo9QpHMrbKT8fQr6CltDVAVGtW8FuW8jb1LIUUrh5I1f5HM64scCltMozbylZVjdzAWwzjegshhS1AKllvzb/PZcNaWMMOtqpqYBwXA/BXRlkMKaMAHmWynPd5kZeYzTgaF7iMc7gubd/ke0+jq2BL6cvINX3Zj7PccyTFLTAC7oFAPXbiCj7l84LjA75MO+Yo40M1cOma+IBx/NWCSOHqgRTDhkxLM2Y029iqKtD77MzyhO9Xr7OLZZHC0wOpudFp4+MQ40MFm89xCfGx8nqsORZGSiOSAfJwmuENuNYWVcHO5otqwyZzpoWRyidA5vKvNGMupLMtqgK9yp0ph9/PkxZHKpcAuYFZKYcP4CLbUwWazYlpz/+dyg8WSEohcifRv6AHC1MM35wRVe4wkfJzOE9kGLsvQ3N4W41U/oER6R7IIo5MGR+decP4UMHuzBgf8CJXWyQp2j2Q5RzBUymGb8JbGZ/PK2Uyit4syjJNBa/R31LJHkhUA2QhAxmSYnhvhmR8NpaUyTx24PMcpmvDJ7Xy6B0pugESmUNYs9gjZXwczpvGh2pgUE7xAdMZmPAmG0kRCZCR9GF4iuHrMNCnFakG7uTfOU/7ttf5SUk9ktAfwlrA5VzL0rTjd+U6trMlVYCx9Ep5UUb6X5enOcSyKcaBEakAWcC9XMO3WbtRg7i2Bo9mVDzNoxfj85ynJR+zqaWTARL2APmJW7mJ/+U4dTcepZvtqzwcxSMFzLUdwzxsKgMkvAFSyXvczxPMy2uupgxmT1tYObqp4KdcHcODlk8GSBgD5Bse5IEM7/vIpCGPeoRaORnOriwpeO5rOdsSygAJV4AM4VbeYEUNllDBf9jNVlYWU9me6TWYvx7Psa9llAESpgDZnTdqvIxWjKSj7awMlrIrw2q4jOYM95ybYh8goboPpFURljGD30XkrYoKyqk1jg+Yy4HMsJSKuVAFyPpFWcprnuJUBnekfZ9MfiZxpHemywAprx4IwEVZH42nuBrBH4u2rNf4swVVrIXqHMjT3MFiFqz6aSk/8zOzC1rSTZxu26qaafTk+6Iu8S5+b1kVo8AIcYCkspxJjGMEg3N85N1KmzHRFwApySJ2ZUSRl1mfoexlaWWAhDNA1vqIG3gq56POr3s5r5Ick8eDE3PXnHfpYXEVywCJ0BsJd+BRvuCAHKd+1LZWgitrJT5gLgcU+bCYFJ1Aidg70eFRTuOnrFNtyHcexNIaL3EAy2tt6dvyDs0ssmLXA4lggMBn7MN3WacaRXfbWwCMow9zanUNA3iOCgutmAVI3ShuxNYMZ5OsU31kawuAmRxQy/EBL3GqhVbs1I3mx+7AEJpmmWakrStgKb/m6xKs526ut9gyQKKhO3dmmeILW1fASbxdojX9hScttwyQaDiKXTOOn2Lrisu5v2TrWsHRvGLJFSORPIm+2ii2y/Dw9ybMt31j7kmOqNHrAfLXnLfYzsKrbAOjjAIE9s7wja8Oy6LcwVKNvc9uATwVrS3DfGu6YhIgEf8Le0KGcZUstL1jbBKHBPJQzR/Yq0Yvq5KiFCiR7oEsYv01D1+sbgGNbeGYmkM/xga29u15k+Y2guyBhFsjeqYdV2F8xNZSfh1gfMDHHMRim0FlL/InCXZMO6aprRtbp/NawJ/gTY4v8el7yQDJ29Zpx6xn68bUlVnvESqFx3wnjQyQsEsfE11s3Vh6iotC8klu42qbQwZINANkc1s3hkZyXIgOHZ3PvTaJDJDwaph2TFdbN3Yms3+Gq/JKr5KTGGKzyAAJq/R3m//S1o2ZORwYujswljOQYTaNDJBw+jHN8NZ0s3VjZSm/YUwIP9dCDmK8zSMDJIwmpRm+m+8jjJlBvBrSTzaTAUy1gWSAhM9/0ww/wraNlau5J8Sfbgp7M8tGUtmJ+KNMoFPKx7ZvwFTq27qx8QyHhv62vd685s2tinxglFUPZEyat34cbXzEyEccE4G7vkcwkGU2lspKxAPkkZRDG/JnWzY2vudXobp0N73nOCFyPXypbANkYZrj3r9nI1s2JuayL99F5tM+xMU2mQyQcLiV/6UY2pzzbdeYWM7RjIrUJ76cf9psMkBqZjqXsCMtaERn9uUOfihgGd/z95TDr2ZD2zUm/sRzkfvMZ/G4DacyEchVWE9zAnMShjTgaP7CFnksYwX78XKK4f150ztAYuJeTozk527AC+xh8ymSgRF4gLzEgSmvRqnH77mMVjku5VyuSTG0DR+ysa0cC++yB0si+tnX4V2624QyQPK1mC3SXHoLsC7/x6nUy7KMSi7m8hTDG/IGfW3jWPiaXsyM8OffmPc91KrIB0jJz4H8J0N8wE+cwQ6MyLiE2RyZMj7qco/xERNzOTjS8QHfsDezbUhFXMkDZHjWKT6lH8enefzcch6gW8qTkPV4gKNsz1hYwdGhfGxifsZyiO9NlwGSn59z+gPxAN04iIeZtmbYQoZxIZtwfMrH0jXkYY62NWPigghee5XKW/zWGwsVaRWlXmGnnL9lPsdzQAs2oCFzmJrhYRWb8gTb25Yx8XAZvSj2UTpzmU2qyCr5SfShHFDkJf6Gu2lpS8bEaPpE5MEluf4CPmjfWRHaXwMOkGVsyZdFW9qm3Mj+tmpszKYnX5XZNjXgFfrbtIpkgJT8HEhFyiuoCrEulzHW+IiRFRxTdvEBSzgs45WJUngF8CiTw/hbjZfRlmuYwkU0tgVj5O8MLcvt+pF9c7q4RApfjySQF0rdyAUFHsmuy54cz8E0su1i5jX2YXnZbt0+DM16A60UfGCEIkDga87h2bz+IDRgJ/blcB/VHkvfsD0zynoLz+I6m1kGSO6+41+8xCdZ3tPWnO3oyU7sTnPbL6aW0I+RZb+V93OcTS0DJD9z+YAv+JrvmMVi5lGXFjShKRvRkU5sxuZRf22iauxsro/BVjZiGNvZ2DJApOJ5lX0i8M7zYtiMkbSwwRWZAPHLvUJuBsfFJD7gS47xK5wixABRqFVyYpUnopW/51O+50YKa4/EQ1gKsVs4PWZbXI+X2NOGV0gDwwBRZIylFwtjt9Vt+MSXTSkSARKZQ1jf2naxs5SjYxgfMJ1j/SKnSIhIgIyiRxEfwahouJZRMd3y17nZ5lckeiQROIS1mF6Mph9v+7CHGJlIDxbFdusb8wld3QkUusCIYA/kEkYDw/iH7RcblZwa4/iAhRzFUncDhVwEAmT4mmcEXcxntlhM/IvXY16BT4r24gOp9nokIT+ENZ9t+WLNT9vyAfVttbL3A1vxU+yrUMF77OjOoFAFRsR6IOdUiQ/4lEttwxg43fgAlnFcLK9CU3SEPECe5PakIVfxkq1W5l7nKYsAwASusAgKdY8kxIewvqRnije1rc/HdLTlyvh7dw/GWYZVGvJfr8ZSiAIjMj2QRRye8kWfMzmUxbZk2brT+KhiMad5U6FCK8QB8gc+STPmI47zl6pM/cwlFiHBGzxhEWSA5Ocf3JNh7OMeGy5TNzDTIiQ5L9Z3xCjMQnoO5HX2yfKi2zo8zqG2X5mZQWfmWIZqruJci6BQBEYEAmQyOzAj61SNedOr5MvMX7jWIqSwDl+ygWVQ6AIkhIew5nFgDvEBCznYZ/SWlVnVLtrWSnPWPI1BCpPQBUglxzEmx2l/4EDm2YZl4xZbM61b+dEiyADJ5mKeyWPq/3IwS2zFsrCAWyxCWvM9uCcDJJv7836A3Ov81kt6y8L9/M8iZHC7j3eRAZLJm5xcwFyPcL7tWBZ/IJW5D3KXRVDIhOgqrM/pW/B3rBv4k20Zae+xs0XIoj2TfBa1Ag6MkPZAZnJgDbroZ/GQbRtpd1iCrKbytEWQPZDqFrE7w2u0hIa8yG62Z0TNpS0LLENWe/CqRZA9kOTQ+n0N4wMWczCf2r4RNcT4yMkbTLEICpFQBMjl/Lso32L3Tnj5lKLjEUuQkxU8aBEUqh5J4IewnubQoq21C+/5yIfImUnbLE8+09o9fIJFUICBEbIeyKdFfTT7RPb1bubIecX4yGMP920pCo+AA2QaBzG/qEsc6b3pkfOiJcjDEEsgAwRgSa08DvF1TrddI2QF/7EIeXjWEsgAATiHD2tluXd5V3OEjPERJnn2sX2kiQwQBnNzrS37TN61bSPiPUuQZ49tmEVQ3APkG35Xi1d8LeVQ3xUSEcMtQZ7esQSKd4As5Qhm1eoapnOQN6dFwghLkCd714p5gJzD+7W+jk851fYNvXlMsgh5GsMKi6D4Bsjb3FSS9TzAY7ZwyI33bS55m8/XFkFxDZDFDCrZH41BngkJfYCokD6IFNMAuayEfzRmexgr5Hx6WSE+twSKZ4BM5R8lXd9QnreVQ+w7S2DVZIDk6q8lvzbqTyyynUNrmiUo6GuYFMMAmcADJd/Er7jVdjZADBAp6gFyI8sD2Mjr7IOE1ixLUIAZlkDxC5CfAnodzg++hie0jPZCLLQEil+APFjkR7fn7iZb2gAxQKQoB8jTgW3mZ145b4AYIFJ0A2R6oI/Ne9S2lqSoBsgrgZxAX827QcKpsSUoQFNLoLgFyMeBbuh45traBogBIhkg+Vse8PplgBggMkAKNi7gTR1taxsg1bRmNKNpXbTpDBAZILXSAwj6Tc7efGWAVHcB27ANFxRtOgNEBkgtmBP4ex+85zmMgv5TOKDK/xdjutJo7o6juAVI0Gbb2iHULuD1d6zy/8WYrjQ2dsdRvAKkIvBNbWBrh1CHQNdeQUMA6ue49zSkXiiqtqk7juIVIMFfbeNxYwMkWcNV/81+h9LyUH0N6eyOo3gFSDPqBLypLW1tAyRNgCwzQKQwB0iDwC+BtNtvgBTeA1mWNEewNnHHUbwCJPgTfwZIGAV7Wjr/AAlDD6Q1LdxxFLcA6RbohtbjF7Z2CLUJ9Dqs5knxkF6YDmH1drdR/AJku0A3tIff2kJq+wDX3TbvAFk3BBX7pTuN4hcg/QPd0H1sawOkmg1W/XdJ1ikXr/pvqxBUbCd3GsUvQLahU4AbeqRtbYBU02bVf7O/KXNeUuQEp2nAfXkpkACBIwLbzD4Bn4FR1ANkfmh6IL1zuO1RKsMAOTmw+3gvtqVDa0O6BrbuznkHSPA9kP3cZRTPAOnE0XnOUZy7BPYKzUPwlMoBga15q5wDZEFR98ia/MIe5g6jeAYI/I1meUzdkF4phuZ7IWVz7rCdQ23/gNZbUUAPpEvAtdqN9u4wimuAbMw/8pj6VKakGNqDJnlt4L+9bzfk+rJeIOvtvOZGwuzPiv551X+3CLhWA91dFN8Agd8xKMcpt+YSxqQY/g0X5rF5t3OgrRxyFewbyHrXXs30v6zTrp6iZaCP5GnMr9xdFOcAgZs5MYep1uNhhq+5+r6q6ezOrjmtqSkPc5JtHAEnBLLWtTfkZX9b5dopugZaJ2+HVcwDpB53c12Wh9Jtzvv04Kk0Y4fwDLtkXU9vPgjwwmHlYxe2DGCt/fPogcyosl8FpQF/cVdR3AME6nAWozg6zUummvBHRtCFn9MGyEM04RUuY50M4fEYw9ja9o2IOjkf2Cye1lX6Evn0QPoFVqVjfROhQvebm/Sq8lK+ufxLHuFVRqx5EtE69KM/v111lPkazk07530cDyzgSZ5kDN+sGV6fHfglB/m4ucj5mfY5XAtVTL/l3jX/7sVHWabuxQdroqR1SX9LVqtggk+UVuCBEaIAWWkpM/gfTVgv4VqcuWzGj2nn2ZzPqtyPO48fWcgKNqBVCF6dq8KcyzUlXd9/2GvNv9syPcvUbZm25t9bMy6A+vyBm91JZIDk5m9cknH87Zxia5aV2WzGzJKtrTVT13zZWEjTrPt9HeaveS3zhVxR8up04LM1D5+XwhIgdcP5MWdwfdaAWWBrlpWWXFDCtR1Zpa/6TQ5fmyqrHCgN4l7w24wPhVBIA+SqrLd2TbNDX3ZOK9ktnxWcWeWnKTnNs3aqHiW/lPfwwO7WlyIXIP/jthymupaFtl9Zacg9JdohD02Iqi9ymqfqVMeVtC5dfBiPDJDc/SunaJjJI7ZfmdmVs0qy0yde3/dZTnNVneqUDJeQF1tLnqOlu4YMkNws564cp/QgVvm5jB61vo6TktYxJqe5xib8UT+5RPWoxyOBP39LSieEV2ENzuN5P++ws21YZr6kbw53hheuDeOT3my+LrNzmG9dZlX5aRpdc3gEY82/393J79wlFKLACH0P5JZamlbRsBlDaVqLy785KT4m5RQf8BOTq/zUrgSX8tbjXuNDoRa6++6+Z04eLzn9hjklPBqt0ujFYxyy5vkExfVnDk0aMizneYfRqcpPg3iY92v1V/NBjnRnUMh7JCG9kVDxNpTDa+FOn915udp3pkE5X+M0KOnqwK/oncNTtAqzAY+yu7uBQhcYiepaEoXR/rxR9PeP92dIii537j2Q95J+7swQGtXK1vfmE+NDEWCAKKR2ZHgeBzOz24sXU7xQeWrC1VWZjWVq0pB+PFL0CKnPubzNRu4AMkCkwm3GcM4ryi5ah3MYmvJVyC/kcdC2kherDTuE12hVxG3uy8dcRQMbXwaIVDMNuJJ32KGGS9mQF7imytObqxqa15JSTd2PD6q8mqomOnMf77KNza7I8CS6Qq+SR7mISQXN24RzOCftZcGzaceiPJbWiGkp7wqv5F7Oq9EJ9a6cz0BfRqDQB4Y9EEVupx3IFzzDrnnOtxGX8TWXZrir5Mm84gMW8WSaT3giU7iVzQqKuGN5i3Eca3zIHohUe75kMEMYwYos023KvuzP7ln/JO9c7cqqbHbi3Yx9pQ8ZzFDGZ/2EAO0ZwAD29EHtimwPxABR5MzhQz7gcybxDfOYyzLWBTagHR3ozHZsS4ecljO6oOdujc7hLMUcPmYMXzOJ6SzhZxaxkDnUoTnN6EAHOrM9PX3DuQwQKap+xz0FzXW3pZMBYoAozqazSUFvlGnMJNpYPhkgeBJdsXV9gS8kW8gNFk+yB6L4mkkn5hU4bzMms74llD0QeyCKpysLjg+Yx1UWULIHonj6li553gGSqBETc7zSS7IHIpWVS2oUH7CISy2iZA9E8fM529T4dVX1GMXWllL2QKR4Oa8IbztczoUWUgaKPRDFy0fsWKS9fDh9LKfsgUhx6n8U60vSRRZTMWeAKFZe5Y2iLesNXrOginmPxENYipE+jCji0nryYbVOvVTOgWEPRLH1TFHjA0YyxKLKHog9EJW/SroztsjL7MZo+yCyByKVu2eLHh8wlucsrOyB2ANRuevNB7Wy1PctreyBSOXsrVqJDxjB2xZXMWWAKCZuqrUl32xxFdseiYewFAPfsUkRHmCSWgWTaW+JFYvAsAeiGLqr1uIDlvmWdNkDsQeicrWMTkytxeW3Ywr1LbPsgUjlZ3CtxgdM84ZCxZIBohi4rdbXcLtFVix7JB7CkiTlFBj2QCRJRWCASJIMEEmSASJJMkAkSQaIJEkGiCTJAJEkGSCSJANEkmSASJJkgEiSDBBJkgEiSTJAJEkGiCRJBogkyQCRJBkgkiQDRJJkgEiSZIBIkgwQSZIBIkkyQCRJBogkSQaIJMkAkSQZIJIkA0SSZIBIkmSASJIMEEmSASJJMkAkSQaIJEkGiCTJAJEkGSCSJANEkiQDRJJkgEiSDBBJkgEiSTJAJEkyQCRJBogkyQCRJBkgkiQDRJIkA0SSZIBIkgwQSZIBIkkyQCRJMkAkSQaIJMkAkSQZIJIkA0SSJANEkmSASJIMEEmSASJJMkAkSTJAJEkGiCTJAJEkGSCSJANEkiQDRJJkgEiSDBBJkgEiSTJALIEkyQCRJBkgkiQDRJJkgEiSZIBIkgwQSZIBIkkyQCRJBogkSQaIJMkAkSQZIJIkA0SSZIBIkmSASJIMEEmSASJJMkAkSQaIJEkGiCTJAJEkGSCSJANEkmSASJJkgEiSDBBJkgEiSTJAJEkGiCRJBogkyQCRJBkgkiQDRJJkgEiSZIBIkgwQSZIBIkkyQCRJMkAkSQaIJMkAkSQZIJIkA0SSJANEkmSASJIMEEmSASJJMkAkSTJAJEkGiCTJAJEkGSCSJANEkiQDRMrVZCZbBCmrOlQmDqi0Joq5FezOUt6mnqWQkgLDHoiU0Q28xTCutxCSPRApH+PYnkVAQz6gh+WQ7IFIuVnKcSwCYDEDV/1LUmoGiFTFpYys0hf5qwWRMvZIPIQlrfI+O7M84fvV6+xiWaQ1gWGASCnNZ1u+SBrWiVGsY2mklAHiISxplbOrxQdM5kwLI6UNFHsgEvAqe6fZ+5/gUMsj4SEsKaXZdOfbNONaMYa2lkjyEJaUyslp4wNmcKJfrKQUDBCJO3ki4/gXudoiSSl6JB7CUsyNonfWWwYreI3+lkqxDwwDRKpiHjvweQ7TteETNrRcMkCq8BCWYm5QTvEB0xnIMsslGSDSSnfy75ynfZuLLJiU0CPxEJZiayy9WJjXr8vTHGLZFOPAMEAkAObRi/F5ztOSj9nU0skAATyEpRg7Oe/4gNkc6kPeJQNE8XYTjxQ03yecZPGkVT0SD2EphoazK0sKnvtazraEimVgGCCKvalsz/QazF+P59jXMsoAMUAUN0vZlWE1XEZzhtPNUirmAeI5EMXOqTWOD5jLgcywlIo5A0Qxcwf/KspyJnGkd6Yr9j0SD2EpRkawC4uLtrTTucmSKlaBYYAotqbRk++LusS7+L1llQFigKjcLWJXRhR5mfUZyl6WVjENEM+BKDZ+X/T4gKX8hlGWVjFlgCgmrszjubv5mMsBRT4sJkWnR+IhLMXASxzA8lpb+ra8QzOLrBgEhgGi2BlHH+bU6hoG8BwVFloxCxAPYanszeSAWo4PeIlTLbRixwBRmVvKr/m6BOu5m+sttgwQqZycxNslWtNfeNJyywCRysXl3F+yda3gaF6x5IoRT6KrjD3JEawo6Rqb8xbbWXiVbWAYIIqJ99ktgNfPtmWYb02XASJF2ST61OilUYXrzDDa2ACKQYB4DkRlaQ4HBhQf8BX7MdcmUAwYICpDS/k1YwNc/8ccVMSHxksGiFQyp/NawJ/gTY4v8el7yQCRauxK7gzBp3iM020KlTlPoqvMPMXhofnufxXn2iAqq8AwQFTGRtKfBSH6dfsXJ9goMkCk8JtM78CuvUqtHk9xsA0jA0QKtznsxJjQfarGvEo/G0dlGSCeRFeZWMpvQhgfsJCDGG/zqCwZICoTg3g1pJ9sJgOYagPJAJHC6WruCfGnm8LezLKRVHY8B6Iy8AyHhv62vd68RlObShEPDANEZeYjdgnRpbvpHcjTvjddZRUgHsJSxH3PryIRH/AcJ/gFTWXFAFGkzWVfvovMp32Ii20yGSBSGCznaEZF6hNfzj9tNhkgUvD+xHOR+8xn8bgNpzLhSXRF1r2cGMnP3YAX2MPmUyQDwwBRWXiXPVgS0c++Du/S3SaUASIF4Wt6MTPCn39j3mdDm1ERDxDPgSiC5nJwpOMDvmFvZtuQijgDRJGzgqND+djE/IzlEN+bLgNEKq0LInjtVSpv8VsPGcsAkUrnYa4um215lL/aoIowT6IrUkbTJyIPLsn1F/BBjrZZFZn91QBRZM2mJ1+V2TY14BX627SKZIB4CEuRsYJjyi4+YAmHMcXGVSQZIIqMvzO0LLfrR/blZ5tXkeyReAhLkfAa+7C8bLduH4ZSz0ZW6APDHogi6BuOLOP4gJc510aWPRCp+JbQj5Flv5X3c5xNLXsgUnFdEIP4gFP4xKaWPRCpmF5lH1bEYks3YyQtbHDZA5GKYwbHxSQ+4EuO8SucIsQAUahVciLTYrS9z3ONja4I9Ug8hKUQu4XTY7bF9XiJPW14hTQwDBBFxlh6sTB2W92GT3zZlCIRIB7CUmgt5egYxgdM51i/yCkSDBCF1rWMiumWv87NNr8i0SPxEJZCaSI9WBTbrW/MJ3R1J1DoAsMeiCKgklNjHB+wkKNY6m6gkDNAFEr/4vWYV+ATLnc3UOh7JB7CUuj8wFb8FPsqVPAeO7ozKFSBYQ9EoXe68QEs47hYXoWm6DBAFDqv85RFAGACV1gEhbpH4iEshex7dw/GWYZVGvJfr8ZSiALDHohC7U7jo4rFnOaXOtkDkXLxM52ZaRkSPMbhFkH2QKRsbjA+qjkv1nfEKMwMEIXIDP5pEaqZzI0WQQaIlNk1zLEIKVzB/yyCDBApvVncbhFSmsN1FkEGiJTeLcyzCGncyo8WQQaIlNoCbrEIac3nWosgA0RK7X6P82d0u493kQEipfsDqcx9kLssgkLGGwkVCu+xs0XIoj2TqG8ZFGhg2ANRCN1hCbKaytMWQfZApERzacsCy5DVHrxqEWQPRKpqiPGRkzeYYhEUIgaIQuARS5CTFTxoERSqHomHsBSwmbRlmWXISRcmWAQFGBj2QBQyrxgfOZvo21IUIgaIAveiJcjDEEsgA0RaaQX/sQh5eNYSyACRVhrjI0zyMtJHmsgAkVZ6zxLk2WMbZhFkgEgAwy1Bnt6xBDJAJIARliBP71oChYT3gShQ81jHfS5PTZnjNz8FFBj2QBQi442PvM3na4ugUDBAFHCAKH9jLIEMEOkLS1CAzy2BDBDpO0tg1WSASIWYZgkKMNUSyACRDBADRAaIVJBZlqAAMyyBDBBpkSUowEJLIANEMkAMEBkgkgFigMgAkSTJAFHINbYEBWhqCWSASAaIASIDRDJADBAZIFJ8AqQ1oxlN66JNZ4DIAJFiEiAXsA3bcEHRpjNAZIBIMflTOKDK/xdjutJo7o4jA0RqF/D6O1b5/2JMVxobu+PIAJE6BLr2ChoCUD/rlA0AaEi9UFRtU3ccGSBSsAHScNV/l2edcnlCkAStszuODBApHAGyzACRDBAZILXTA1mWNEewNnHHkQEiBXtaOv8ACUMPpDUt3HFkgEhtAr0Oq3lSPKQXpkNYvd1tZIBIANsHuO62eQfIuiGo2C/daWSASEEHyAar/rsk65SLV/23VQgqtpM7jQwQKegAabPqv/OzTjkvKXKC05Tt3GlkgEjRCZD5oemB9M7htkfJAFEsbEjXwNbdOe8ACb4Hsp+7jAwQabUDAlvzVjkHyIJV/+0Q+C/sYe4wMkCk1fYPaL0VBfRAugRcq91o7w4jA0RarS/rBbLezmtuJJyTddqfV/13i4BrNdDdRQaIVLUnsG8g6117NdP/sk67eoqWgb6VsDG/cneRASJVdUIga117Q96MrNOunaJroHXyISYyQKQEu7BlAGvtn0cPZG2ABPcgkQb8xV1FBoiUqA6DSr7O1lX6Evn0QPoFVqVjfROhDBAp1R/HUr8dfT/qrPn3j1mnXjtF3yrzlVIF57ubyACRqmvBaSVe4xFV/v1N1qnXTtEqkMNtcIovslUIjx1UJg6otCYKxGw2Y2bJ1taaqVSs+vdCmmbd7+swn8ar/n0hV5S8Oh34bM3D56XgAsMeiEKpJReUcG1HrokP+CaHr02VVfogQdwLfpvxoRAyQBQap5XsVa0VnFnlpyk5zbN2qh4lv5T38MDu1pcMEEVCQ+4p0Q55aEJUfZHTPFWnOq6kdenCHe4cMkCkzHblrJLs9Ocm/PxZTnNVneoU1ilZTVryHC3dNWSASNlcRo9aX8dJSesYk9NcYxP+qJ9conrU45HAn78lpeNVWAqZL+mbw53hhWvD+KQ3m6/L7BzmW5dZVX6aRtccHsFY8+93d/I7dwmFKDDsgSjUNmNord5UeHNSfEzKKT7gJyZX+aldCS7lrce9xodCzQBR6PTisSoX2RbXnzk0aciwnOdNnHIQfWq1ChU8VOKT9ZIBojKwP4NpUgvL3Z2rs8RC7gFSl4dq8Q3pG/AyR7ojyACRComQN4r+/vH+DEnRs8k9QN5L+rkzQ2hUK1vfm0/Y3Z1ABohUmB0ZzvZFXN5evEizakOnJlxdldlYpiYN6ccjRY+Q+pzL22zkDiADRCrcZgznvKLsonU4h6EpD4q9kMd1h5W8WG3YIbxW1ANZffmYq2hg48sAkWqmAVfyDjvUcCkb8gLXUD/luKF5LSnV1P34oMqrqWqiM/fxLtvY7IoM7wNR6FXyKBcxqaB5m3AO56S9LHg27ViUx9IaMS3lXeGV3Mt5ObyWKr2unM/AWrv2TCpWYNgDUeR22oF8wTPsmud8G3EZX3NphrtKnswrPmART6b5hCcyhVvZrKCIO5a3GMexxofsgUi150sGM4QRrMgy3absy/7snvVP8s7VrqzKZifezdhX+pDBDGV81k8I0J4BDGBPH9SuyPZADBBFzhw+5AM+ZxLfMI+5LGNdYAPa0YHObMe2dMhpOaMLeu7W6BzOUszhY8bwNZOYzhJ+ZhELmUMdmtOMDnSgM9vT0zecywCRoup33FPQXHdbOhkgBojibDqbsLCA+RoziTaWTwYInkRXbF1fUHzAQm6weJI9EMXXTDoxr8B5mzGZ9S2h7IHYA1E8XVlwfMA8rrKAkj0QxdO3dMnzDpBEjZiY45Vekj0QqaxcUqP4gEVcahEleyCKn8/ZhmU1XEY9RrG1pZQ9EClezqtxfMByLrSQMlDsgShePmLHIu3lw2v5pbaSPRApZP2PYn1JushiKuYMEMXKq7xRtGW9wWsWVDHvkXgISzHShxFFXFpPPqzWqZfKOTDsgSi2nilqfMBIhlhU2QOxB6LyV0l3xhZ5md0YbR9E9kCkcvds0eMDxvKchZU9EHsgKne9+aBWlvq+pZU9EKmcvVUr8QEjeNviKqYMEMXETbW25JstrmLbI/EQlmLgOzYpwgNMUqtgMu0tsWIRGPZAFEN31Vp8wDLfki57IPZAVK6W0Ymptbj8dkyhvmWWPRCp/Ayu1fiAad5QqFgyQBQDt9X6Gm63yIplj8RDWJKknALDHogkqQgMEEmSASJJMkAkSQaIJMkAkSTJAJEkGSCSJANEkmSASJIMEEmSDBBJkgEiSTJAJEkGiCTJAJEkyQCRJBkgkiQDRJJkgEiSDBBJkgwQSZIBIkkyQCRJBogkyQCRJMkAkSQZIJIkA0SSZIBIkgwQSZIMEEmSASJJMkAkSQaIJMkAkSTJAJEkGSCSJANEkmSASJJkgEiSDBBJkgEiSTJAJEkGiCRJBogkyQCRJBkgkiQDRJJkgEiSZIBIkgwQSZIBIkkyQCRJBogkSQaIJMkAkSQZIJIkA0SSZIBIkmSASJIMEEmSASJJMkAkSQaIJEkGiCTJAJEkGSCSJANEkmSASJJkgEiSDBBJkgEiSTJAJEkGiCWQJBkgkiQDRJJkgEiSDBBJkgwQSZIBIkkyQCRJBogkyQCRJMkAkSQZIJIkA0SSZIBIkgwQSZIMEEmSASJJMkAkSQaIJMkAkSTJAJEkGSCSJANEkmSASJIMEEmSDBBJkgEiSTJAJEkGiCTJAJEkyQCRJBkgkiQDRJJkgEiSDBBJkgwQSZIBIkkyQCRJBogkSQaIJMkAkSQZIJIkA0SSZIBIkmSASJIMEEmSASJJMkAkSQaIJEkGiCTJAJEkGSCSJANEkmSASJJkgEiSDBBJkgEi1b7dqFPL/9vdIssAkcrRoFpfwykWWTFUh8rEAZXWRGVnGZ2YWovLb8cU6ltmxSAw7IEodio4sVaXf5LxIXsg9kBUrr5jE5bVWjxNpr0llj0QqTxtxIG1tuyDjQ/FlAGimDi91pb8B4ur2PZIPISlmOjNB7Wy1PctrWITGPZAFFPnRWipkj0QKUQq6c7YIi+zG6OrfSuT7IFIZbfz/1/Rl/k340P2QOyBKB76MKKIS+vJhwaI7IFI8fC3oi7tSuND9kDsgSg+dueNIi1pN163nIp1D8QAUcx8xI5F2suH08dyKtYB4iEsxcwORbon/SDjQwaKPRDFzQS61fi5WPUYxdaWUvZApHjZgmNrvIzjjQ/JHoji6Fu6sKgG8zdiIh0so+yBWBLFT4caPgDxdONDsgeiuJpJJ+YVOG9zJrG+JZQ9EHsgiqf1a/Ce9FOND8keiOJsOpuwsID5GjOZ1pZP9kDsgSi+2nBUQfMdZXxI9kAUVT/zER/wOZOYwnzmsoyW1KEV7diYzmzLtmyc03LG0L2AtY9mm6zTzOFjRjOJSUxnCT+ziIXMAdahCRuzMZ3Znu3paFMq4j0QA0QR8iWDGcwHrMgyXSf2Y3/2oCLLdDvzXp6fYCfezTB2BR8ymBcYn/UTArRnAAPYk+Y2rAwQqfYs51lu4c285tmIk/g9bTNMcTcn5fk57uL3acYs4D7+wVd5b1kTfs0J9Pe5vjJApOKr5FEuZHJB8zbhbP5C0zRjZ9MurxsKG/EDLVJ+wns5jxk12MYtOJ+jsvaYpHAFiCfRFXLD6MVRBcYHLOBvdOGlNGNbsmdeS9s7ZXx8xS78rkbxARM4nq7cn9OhLyk8gWIPRKG1hL9ybRH+qNbhbC6nfooxd3FyHstJdQBrGAfXMDyq6sMdBZ3aVzR8z0F5/I2tz39YJ9Q9EANEofUFR/BJ0Za2J0NoUm3oVDrkvM/X4VvaJw0bzMAaPVUr1R+NP3EZDWz+MpXPC80O4/HQ9TgSeQhLIfUBfYsYH/Aq+6Z4eEl7uuW8hG7V4mNY0eMDlnIN/fnOHaBM/aGWpg2GAaJQGspuRTwwtNLbHJziPSD9cp5/p6Sfv+TgosfHSiPYztfllqkD6ZTjlL9gZwNEKiQ+DmFBLSz3dc6tQYAkTrmCY4secWv9j3141B2hDNXL+dLxP0RgazwHotD5gN1qJT5WepzDEn6exKY5zjkp4bvjrbX+C16Pf3G8u0PZ+R8dc3gK2/p8S+MQBoY9EIXaF+xfi/EBp/NTws+b0DKn+dZNiI9pXFDrlVjOidztDlF2NuDUHKY6J4TxUZ0BolBZzG9q8cAQwI/V/vTndho9cap/MKcE1VjBoLT3sCi6zst6cW47To/ElhggCpWLGF3r67iLUQk/b5PTXFUDZDZ3lKgeyxnIBHeLMtOKs7JM8dcUl5wbIFJGb3JDSb7XX53w89Z5B8jtzC1ZTWZzILPdNSJrCd8zmi+ZmXBD7J8yvhRgc06s8tPPfM1YxjCNpQaIlM5iTizRozye4OuEX9dcbFbl3w+UtC4TOcWdI4K+4FJ2oint6cHmtKIF+3AlPwDQPGMf5ALqA/O4jwF0oCWd2YbubEgT+nAuw0O0jV6FpdC4IWvHvnjO4MY1/55A1xzm+JwtVv1rFL8oeW2eZ393kAgZx995guUpxjTmRC6hFT+zcZrzaO35GriS61Lc+LrSDvyRw6kXSGDYA1EozebyEq7tsSq3FG6cw6PU61R5SdUTAVTn1BIeNFPNVHI12/JoyviAhdxCbz6nBb9JM/8xLGBPLk0bH/ARR9G7BGcLszNAFBJXMquEa/uxyhOJGtMm6/RtqlxUOSSA6nzL+e4ikbCcEziPJRmn+Yq+jEwbIAdxMO9kXc9IevOwASIB/MytJV7jY1X+nf0VuGunmMH4QCp0ZwEvq1Lpncb9OUz1E4ewLQ1TflV5lbdzWtNCjuF2A0SCB5hf4jW+UOV8X+usU6+dYnhA5wmXcZW7SejdxZ05Tvkd/5fyAvIOXJnz2ir5QyD9YQNEoVJZsvsq1vqRz9f8u1XWqddOMSywKj3IN+4qoTaFP+cx9X0pe76jcnjMyVorOCbhikIDRDH0ViCHhd4uKEDeD6xKS5LuX1HYXJxXP3oxH6YYmu+9HvM4OcBrZw0QhcC9gaz1nYICJMj7wu/jZ3eW0JqU90nt4rz15bUAH3djgChwy3gxkPWufV3VBlmnXT3FbH4MsFILecbdJbTuCuyN9n83QBRfw0p6Ae9aX7F41b+yv3e6RQj6HwCPuLuEVnDvb3mfMQaI4ur5wHo+qy+MbZp12tVTTAy4Vm8w1R0mlEYzJYZfLAwQBe6FwNY8LucAWf1s1G8DrtWKQO6DV3ZvB7r2/xggiqfvq1xOW2r590D+F3i9hrrLhNLHAfd/grm8wgBRjH/xpucdIDMCr9cHIXyot+CzQNe+nP8aIDJAwhogzULTA5lf5eoxhUfQN3kG86AbA0QBGxnguldfktsg65QNk+YI0nvuNKGzJPCvFpMMEMVRkN+nV/dAKrJOufrdC2G4ke8dd5rQmRf4m5RmGyCKn+lMC3Dtc/MOkCUhqNkId5vQWRj4J5gfyFoNEAVqSqBrX5wUD+lVhChAfvSBJqGzLPBPEMyeaYAoUMGeesw/QBaHomqT3HFCZp3AP0FLA0TxE+yNeYuT4iG9MB3CwldLhU6LwP+UtgpkrQaIDJAceiAGiDL/IW0Z8CdY3wCRAVJay1iUECTZomYhy0NRta/dcUKnW8Dr72GAKH5+CHj93+QYY7lOVxpT3HFCZ9tA116P7QwQxc/8gNf/UpX/L8Z0pTHPHSd0tg907VuteVZCaVXY8ApS0NfPX8FuwBVFmy4esavqBlAR4MW8Bwa03jrJN1BWuieohDp5OKYAXQJ/sZWq6x/gMwJGs02JAiORh7AU6x5INNkDCaNfB7bmbiWKj+oMEBkgBoiK4JgcnupcO84IbJsNEBkgBoiKYF2OD2S9bTnGAJGkaDsjh1tSi+8cGhkgiqdGlqAAjS1BKHUJoA+yGacFuMUGiAwQA0RF8jealHiN/1zzsjMDRAaIDJAI25CzSrq+A9kv0O01QBSo9S1BATawBKF1IVuW8LfnjoC31gBRoNpZggK0twSh1ZA7qt1uV1tuC/z3xwCRAWKAqIh+yR9Lsp7fcljg22qAyD+FVk1FdTV9an0d23FrCLbUAFGgNrcEBdjSEoRafR6r5bN7bXg2FJdSGCAK1FaWoADdLUHIbcy/avFMSAOeZqNQbKcBokB1LdkJx/LRjE4WIfQOrsUnVN1Ev5BspQGigP8YbmIR8rSNv7aRcA071spyT+Lk0Gyje6IC1tcS5GlnSxAJDRhCh6Ivdd9QnDw3QBQSfSxBnn5pCSKiLc8V+RHvO/B4qF4ja4AoYP0sQZ6/slYsOn7Bg0X8I7sFLwb07nMDRCG1jQ/myEtPWlqECPkVlxVpSe14mVah+zojBbwL7m0R8nCIJYiYC4rywqd1eCGEV98ZIArcvpYgDwdZgsi5m51quISGDGHbEG5ZHSoTB1Ta2iqxWbRhmWXISVfGW4QImkkfvqjB9/zHODQkgWEPRCGzHntahBwdZQkiaX1eqsG5vhtCEh+pok0K3JGWIMdf12MtQkR15kkaFDTn+ZwZ2q3yEJZCYD5tmG8ZstqTVyxChD3GwLz/wh7NgyF63I+HsBRCTTnYIuTgREsQaUdwUZ5z7Mt9oX5anD0QhcJ7PqAjq/ZMor5liLRKDuOpnKfelneLfCe7PRCVpZ3YxiJkcYbxEXl1eJDtc5y2Hc+GLD6qM0AUEqdYgoya8XuLUAYa83RO12M1rpVHMRogKlPH+0iTjE5lXYtQFjryWNYHItblIXpFYFsMEIVEE/5gEdJqytkWoWzsxvVZpvg7v47ElhggCo0/hOxJo+Gqjf2zcnJGxgOSx3J+RLbDq7AUIn/hWouQQgu+DN1zWFUzi+nHxynH7Mg7Bd5yWIrAsAei0DqXdSxCChcYH2WnIU/QIsXwVjwR2viozgBRiKzPnyxCNZuE+FEWKtym3JPiD/JDbByhbTBAFCp/9rt2NVfT0CKUpV9zWtKQ89knUlvgORCFzG3VfqnibXdeswhlawHbMnHNT9sxIuQ3i9YxQBRuy/gFn1mGVRoymi6WoYyNYCeWA9CIkWwd+h5HIg9hKWQquNEirHGu8VHmevOXVf/6e+jjI1Wg2ANR6ByaxwPnytmWfEIjy1DmltKHj+nH29SLQGAYIAq9H9iKn+yLMSwSj7NQTX1Gf0awWSR6HIk8hKUQasvVFoGLjY+Y2JpPIxEfqQLFHohCqJI9eT3WFdie9318u0LeAzFAFFIT6cGi2G59Ez5hC3cChTxAPISlkOrCxTHe+quND0UiUOyBKKSWsgOjYrnle/BKqN+ELXsgBohCbyy9WBi7rW7Lx2xo4ysCAeIhLIVYN66J3TZX8JjxoYgwQBRqp3FgzLb4Cvrb7IpMj8RDWAq1GXRnWmy29kCGePZDIQ4MeyCKlFY8EJvddHMeND4UIQaIQm/PmLxmqjGPp3xHnRTeHomHsBR6S+jHyLLfygc5xqaOvbmMYzKTmcxM5rOEn2hMI1qwHpvSme4B3x/kZbyKpG/YnhllvYXnxPCKM601gVf4iJFMYEXG6dqxC0cxIKCDRwaIIup19l714p1yNIDnI/AwbxXfCt5gCC/xdV5zdeR8TgrgfJkBosi6jL+W6ZZtxXDPfsTQlzzAA3xb4Nw78xAdDRAp1+9qBzG0DLerDR+ysc0bMyO5gmezHK7KZhPepoMBIuVmNj35qsy2qRFv0MemjZVPOZ//FGVJ3fiUigADxMt4FSEteYYmZbVFdbjb+IjZl6DT2aFI8QFjeSjQrTFAFCnduaustucijrZRY+RFunJLUS8GuTngL0AewlLEnFc2L7wdyL+98zw2lvFXrsrwF7YZranHHGaxNI+lNmJeCa/f8xyIIm8Fh/BcGWzHrrxMA5szJuZxCK+lHFOXvTmUXem06uelfMB/+Bc/5Ljkb9nIAJFyN5d+jIn4NmzDu166Gxtz2JdhKccczmVsnmL4Yv7NZUzJKZqaGiBSPr6mFzMj/Pk78j7tbMaYmM/ufJBi+Lrcn/F1BQu4nOtYkuWLyOgSbolXYaksbMrgCB/+acHzxkdsVHJcyvjowPAsb7tpwuWMYs+M05wU6LYZIIqonbk9op+8Ec+zjQ0YG//H0ymGbsDrdM1h7q68wrMpD3IB9OVkA0QqxAmcHsFPXY+H2NnGi413uCzlXvBY2lCo7kDGcg9dqg3fm+eoH+jWeQ5EEbacX0XueqwbOcOGi42F/IKJKYb/iRvyXtYK3mQI7/Ads2lDb47ngJJfBO5JdJWVuezMqAh93ku41EaLkQu4MsXQDfiK5pHcHk+iq6w058USXgVfUycZH7HyAzemHH52ROOjOgNEEbdhZJ6PdQi32Vyxcg0LUgxtyAlls4UGiCJvBx6KwI7cn0d8ZVSszOKOlMP3ppUBIoXHr7gi5J+wG4NpZEPFyqMsTDn8gDLaRgNEZeFcTgzxp9uEV1jXRoqZB9IM71dG2+hVWCoTS9mPV0P5yVrxHlvYQDHzZZr7PBozL8Lf270KS2WqPk+F8v7uJjxnfMTQ62mGdyyrP7oGiMrGOjxHm9DF2tO+cTCW3kwzvHVZbaUBojLSiaGhuqS3Dnexj80SS++k7ZEaIFJI9eSBEO3U13K8TRJLs5mWZsxiA0QKr9/w95B8knM4y+aIqYlpx8wyQKQwOz/gR1yvNJCrbIrY+tIAkaLqZvYI+BPszn3+csVY+rdlTmWOASKFWX2epluA69+BIRF+X6Jqbm7aMSv40ACRwi3IS3o343ma2QSxNj/DuGEGiBR2mwT09Kl2vBq6u1FUaisyjHvMAJHCrw8PlnwHX4cX6WTpY69xhnGf874BIoXfofytpOtrwNP8wrIryyHM6w0QKQouLOGtfHV5JPCrvxQO7TKOfZq3DBApCu6if4nWdB2/ttwCoGOW8WekeVeIASKFSn2eZtMSrOck/mSxtcrmWcaP4SQDRIqC9XmedWp5Hftyq4XWGhuwcZYp/h2aR+4YIFJGW/FYrb6PfDsep8Iyq4odsk5xMWdF/gV+BohiYQCX1dqyO/KCNw4qyd45THMDv2J6pLfSV9oqNo7h37Ww1HV4l+4WV0mm0iGnv6brcT3HRuabvK+0VWzdTe+iL7M+TxkfSqE9v8xpuln8li7ckvHhJ/ZApBCYRk++L+oS7+EEy6qUHuboPKZuyj4MYBu2pHmEeiAGiGJlBLsU8Z1wf+QfllRpLGIzphYwX1Na0GLVq2+bUwE04nkDRAqDOzmlSEvakxe99koZ3MZpRQujhgaIFAYncXcRltKFEaxrMZXBEnrweVGWNJUNQxkgnkRX7NzKTjVeRnOeMT6URQPuKtKf2Jkh3UIDRLFTn8dq+MaOejzO1hZSWe3MOUVZzgwDRAqL9jxTo1fOXs0Ai6icXM5eNVxCK86ga0i3znMgiqmbOaPAOY/hQcunnM3jQN4ssK88gOPZr0ZfdoodGAaIBMBRPFLAXD15N5BX5Sq6FnFY3hfiduMEBobu5cgGiLTmm2Evxuc5z7p8zCaWTnlaxmVczvIcp96Nc2t84MsAkWrZWHrl9WKfOjzDwZZNBXmXY5mcdQ87iPPpFdpt8DJeqcphgvzuJD/f+FDBdmYcV2R8M0033mJwiOMjVaDYA1Gs5f6M3l141TvPVUM/8geeTPmn+E9cEZL7zXPvgRggirl57JDT3cJt+CQkdwMryt7hVyluC6zgDk6MRI8jkYewFHPNeCyHq6oqeML4UI09wJ4p4qMpQyIRH9UZIIq9Hvwz6zRX5Ph2Bym9qzmeJdWGNuJF9ovoFnkISwIO54kMY/fj+Wqddyk/16V5rMnDDIxQYBggUjWz6c63aca1YgxtLZFq5A4GpRx+LA9EqsdhgEgpvMreafb+J/mN5VGNvM8uKQ5ewbpMYIMIB4jnQCQA9kzzoqkTjA/V0AwOSxkfcGak4iNVoNgDkQCYz7Z8kTSsE6My3volZTeIO1IOb8BUWkUsMOyBSCk15QHqJf163Gd8qIbGpH0D5t4Ri4/qDBBpjT6cm/DzWexiUVRD6R+iuHfkt81DWFIVS+jNp6v+3Z0PQ/9oCYXdLNqzKM24j+hZ4FJXsCKQx+p4CEvKoAEP0xiAhjxkfKjGnkwbH9Cl4KXeR2uO4EF+DHjrDBApwZZcBsBldLcYqrF3046pKPj82hwu5Cce5zjasSPvB7h1HsKSqh0e2J1lvJV0Ql0qxBZMTDOmPosLfL7BX7h2zb/rMZmNShgYBoiUxWSgk2VQjS2hUYa/qTNZr4BlfsnWVe4q2ZuXS9rjSO5FSUpieKg4fs74lXx6QQFyZsJNiccFun2eA5GkWguQTIYXsMTbebHKTy0CfkemASJJtWRFxrH5H3wax1kJPx++6ppBA0SSykyzjGNfZFpeS5vJb1iYMOS4gLfPAJGkWrJ+xmv5FnBFHsuaz/6MTxjSlT4GiCSVp4Z0zDj+Dt7IcUk/cxAjkoadH/hrzgwQSao1PTKOXcahjMthKV/Tl9eThm0egjcZGiCSVGt2yzJ+Fn0YnHGK5dzEdili5qIQ3IXhjYSSVGsm0znLtVhQh/25hO1TjJnPY9zImBRjtmBsAAHineiSVEK753ieYxv2oC9taUUFs5jJfxnBW8xJ84f8TfoH0uMwQCSpZF5g/6Iv8wxuDGRbDBBJKqk+1a6fqplevBPQqwYMEEkqqf/Si6VFW9oWvEPrgLbEF0pJUkn9gv8r2rI68Vpg8ZEqUOyBSFKtquQoHi3CcjbiLToHGhj2QCSpxH947+dXNV5KHz4MND6qM0AkqdY14HFOq9Gf6jN5k3ahC0YPYUlSSTzCGcwsYL4u3BXIfR/VA8MeiCQFYiDj+B3185qnDbcwNhTxYQ9EkgI2iRv5d049kV6cyhEB3fORSw/EAJGkklvMa7zA20xgeYqxrejNbhxCp9D1OAwQSQqJ+YznW6Yyn/k0phHr0ZFNsrxFxACRJEWMJ9ElSUVhgEiSDBBJkgEiSTJAJEkGiCRJBogkyQCRJBkgkiQDRJJkgEiSZIBIkgwQSZIBIkkyQCRJcQiQJYkDllgTSVI1i5MHLKnLvMQh86ySJKmaudUG1E0eNtcqSZIKCZAZVkmSVM3MFAEyPXHIF1ZJklRNtXSYXpeJiUMmWiVJUjUTqg2omzzsM6skSapmfLUuSbUeyLtWSZJUzXspeiCfUFl1yDQ+t06SpKT+x/eJAyr5tC7Tk/slr1kpSVLmZBjP9LrAm4lDH7NSkqTMyfDGymdhJQXIcL6yVpKkNb7i/eRBb64MkFdYUHVoJQ9YLUnSGg8kniyH+byyMkDmMiRxzK0+0ESStCYtbk8eNJh5qx/n/lDimFncZcUkSQDcXv0hVw8B1AGgHlNoX3VcWyawjlWTpNibwxb8kDhoKh1ZvroHspx/Jo79gUutmiSJS5LjA25g+doeCDRjMutXHV/Bx3S3cpIUa6PZnmWJg2bQifmw9pW287gpcYplHM1CaydJMbaI45PjA25cGR9reyDQgs9pmzjVKdXPvEuSYuMU7kweNI2uzFn5z3prBi5mOr9KnG4km9LDCkpSLD3AxdUHDmLk6n/WSRjxBrsmTlmfZxlgFSUpdl5jP5YkD3yX/mvvKUwMkC0ZSZPEqZvyCn2tpCTFynD2Wn2qY60F9Kz6+N26CSPHc2by9PPZixetpSTFyOvsUz0+4PTEp7fXSxr9CZsnX727lCfp6LkQSYqJBzg81VW4/+aviQPqVJukGe/Trfqcp/APGllXSSpri/hj9SuvAMbQl3nZAgTaM4yO1Qf34EFvLZSkMjaaYxmVasQU+jE1eWDdFBNOZQ9+rD54FNtz5urLfyVJZWU+l7JD6viYyT7V4yN1DwSgJy/RKtWItpzNyTSz1pJUNuZxB9cxPfXIGQxYe+9HLgECXXk51YEsgPU5lePobM0lKfK+4gFuY2a60VPYh89Tj6qTYanteTnV6fTVM/blCHZnS6svSZE0ntd5jOHJbxusamzqg1fZAwSacQdHZf4A7diZrdiCzVmXljSjgW0iSaG0hHnM5ie+YALjeJdp2WZ4mFOSr7zKPUAAjuU2mlp4SYqVRZzHjZknqZd1IaMYzNZ0spqSFBtvcSBDs01UN4cFjWdXDuRbKypJMfADx7Fb4kNLCu2BrDSRe1hI9+RHLUqSyshMruJoPsxt4jp5LboZJ/Fn2ltjSSo7U7mBuzKdNK9ZgADUpS/HMNB7CSWpTCzieR7iZZbmN1udAlfXjL3Yld3YyspLUmR9xpu8ySv59DtqHiCrtWFbtqALXWhNM9alqTeCSFJILWE+PzGPH5nIBCbyabqnl+Tm/wE02DgMiJvMoQAAACV0RVh0ZGF0ZTpjcmVhdGUAMjAyNC0wNi0xN1QxMDoyMDoyMyswMDowMAEQiIAAAAAldEVYdGRhdGU6bW9kaWZ5ADIwMjQtMDYtMTdUMTA6MjA6MjMrMDA6MDBwTTA8AAAAAElFTkSuQmCC;" vertex="1" parent="7">
                    <mxGeometry x="312.5" y="51.5" width="140" height="175" as="geometry"/>
                </mxCell>
                <mxCell id="23" value="" style="shape=image;verticalLabelPosition=bottom;labelBackgroundColor=default;verticalAlign=top;aspect=fixed;imageAspect=0;image=data:image/png,iVBORw0KGgoAAAANSUhEUgAAAyAAAAPoCAQAAACMwlI6AAAABGdBTUEAALGPC/xhBQAAACBjSFJNAAB6JgAAgIQAAPoAAACA6AAAdTAAAOpgAAA6mAAAF3CculE8AAAAAmJLR0QA/4ePzL8AAAAHdElNRQfoBhEKFBfxzCFRAABJlklEQVR42u3dd5hU5d2H8RtYOggqUkQERREVISoiRYNdsZvEhjWaqGjUJGrs0TfGXhJ7iz32AiqW2BuIihqKIFgAFREDiPS+7x+0ndnpOzvnnDn3J9cV2VPn/J6z+53n1DrUTBu2ZQu2oAutacq6NKUBkqQwWsJ8fmI+PzKRCUzgU6bXZHF1CpyvOXuxK7uylS0iSZE1jjd5k1eYW5oAqUtfjmEgzay8JJWFRTzPQ7zM0toMkGaczJ9ob7UlqexM5R/cybzaCJAWnMkZrG+NJalszeQmbuTn4gbIAdzGRtZWksreD5zLQ1QWJ0C25Hb6W1NJio23OJXx2Saql3Uxx/Ism1tNSYqRTpzIPD6oSQ+kOXcwMPMC2rEzW7EFXWjpbSCSFGIrbwOZzUQmMI53mZZthocZlOkC30wBshEvs3X6GftyJLvT1TaRpEgaz+s8xvBMpzvGsg9T8w+QrvyHjVOPWp9TOZ5Nrb4kRd7X3M9tzEw3+hv25vP8AqQnL6e+ZLctZ3OydxFKUhmZx51cxw+pR85gACNzD5DNeY/W1QdXcCqXsY61lqSyM59ruZIlqUbNZOdU12SlCpCNGJbq4FUPHqS7NZaksjWaYxmVasQU+lU/F1K32mTNeTlVfJzCCONDkspad0ZwSqoRHXm5+rmL6veB3MvuyYPqcx8XUmFtJanMVbA/m/ICK5JHtKYjz2QOkN9xYfJcTXma31hVSYqJHvRlcPWzId35jk+rDkg8B7IlI2mSHB+v0Nd6SlKsDGcv5icPXEDPqifTE8+B3JocH/V50viQpNjpy7M0TB7YhDurdjuqHsI6mj8nT30/v7aOkhRDm7IxQ5IHduQLxqz+YW2WtOBz2iZOeQq3W0NJiq1B3JE86Ae6rn5fyNoeyHnsnzjVNjxFfesnSbG1By8m35/ejAW8k9gDacbkxEeXVPCx931IUsyNZnuWJQ6aSaeVL75dfRL9lOQnX51ufEhS7HXnD8mD1uekqj2QekyhfdXxbZngM68kScxhi+TDWFPpyPLVPZA9E+MDzjY+JEnAOpyVPKg9e8DqADkmcdx6q/snkqTYG0Sr5EHHrA6Q5hycOOY0mlsxSRIATRmUPOhgmq0MkL0S7z+vw/HWS5K0xnHJ7/5oyl4rA2S3xOH9fFmtJKmKzvRJHrTrygDZJXHoEdZKkpTgyOQBu0Ed2jAtsW8ynq7WSpKUkAxbJQ6opF1dtkuMj3bGhyQpyZZsmDigDtvWpUvisJ2tkySpmp2SB3SpyxaJQ7a2SpKkFH2Q6gGS1APpYpUkSdVsUW1AXdoYIJKkbKqlQ5u6yTedr2+VJEnVrJc8oHm1APEhJpKk6qqlQ/M6LKZB1SFJP0qSBCymUeKAJXWoTBxSaZUkSSkkPQ9rzRsJJUnKiwEiSTJAJEkGiCTJAJEkGSCSJBkgkiQDRJJkgEiSDBBJkgEiSZIBIkkyQCRJBogkyQCRJBkgkiQZIJIkA0SSZIBIkgwQSZIBIkmSASJJMkAkSQaIJMkAkSQZIJIkGSCSJANEkmSASJIMEElSTFWE+cMt5CsmMY2fWQE0YH02ZlM2ttUkyQBJbSlv8jzDGc2yFGPXpxd7cwCb2nqSFKA6VCYOqAz4A03kFh5mVg4ffGdO4TDq2YaSVKLACHGATOR8Buf1CbpyBYfYqpIU5wBZyEXczNIC5jyIu9nAlpWkeAbIRxzDhILn7sAz9LRtJamkARKKy3gfYOcaxAd8y668bdtKUkmFIED+xvEsruEy5rEfn9iaklTSHknAh7Cu5S9FWtJGfExrW1SSai0wQtUDuZ1zi7as7/iD7StJ8eiB/Id9WVHUJb7EPrapJJWkBxJggMykO98XeZnb81G1TZQklVmAHMpTacZsxc70YWNa0oIZzOBLXuUt5uW01LfobytLUjkHyFMcmmJofY7j5JT3dMznDq5letblHs99trIklW+ArKAb46sN3YVb2DrDXLM5hqFZltyK6T6jXpJKECAB/a19vFp81OFS3sgYH9CSZxmUZckzGGMrS1IJBBIgK7gsaUgDHuWSHE5/1+Um9swyzX9tVUkq1wAZnNT/qMv9HJ7jvBXcR6OMU0y0VSWpXAPk3qSfr+fIPOZuzykZx0+3VSWpPANkGq8k/Hwkf8xzCb/POHaurSpJ5RkgDye8qHYTbs97CVtlfC+612BJUpkGyANV/l2Hh2hRwDL6ZhjX0lZVDU1mskWQsqoo9QpHMrbKT8fQr6CltDVAVGtW8FuW8jb1LIUUrh5I1f5HM64scCltMozbylZVjdzAWwzjegshhS1AKllvzb/PZcNaWMMOtqpqYBwXA/BXRlkMKaMAHmWynPd5kZeYzTgaF7iMc7gubd/ke0+jq2BL6cvINX3Zj7PccyTFLTAC7oFAPXbiCj7l84LjA75MO+Yo40M1cOma+IBx/NWCSOHqgRTDhkxLM2Y029iqKtD77MzyhO9Xr7OLZZHC0wOpudFp4+MQ40MFm89xCfGx8nqsORZGSiOSAfJwmuENuNYWVcHO5otqwyZzpoWRyidA5vKvNGMupLMtqgK9yp0ph9/PkxZHKpcAuYFZKYcP4CLbUwWazYlpz/+dyg8WSEohcifRv6AHC1MM35wRVe4wkfJzOE9kGLsvQ3N4W41U/oER6R7IIo5MGR+decP4UMHuzBgf8CJXWyQp2j2Q5RzBUymGb8JbGZ/PK2Uyit4syjJNBa/R31LJHkhUA2QhAxmSYnhvhmR8NpaUyTx24PMcpmvDJ7Xy6B0pugESmUNYs9gjZXwczpvGh2pgUE7xAdMZmPAmG0kRCZCR9GF4iuHrMNCnFakG7uTfOU/7ttf5SUk9ktAfwlrA5VzL0rTjd+U6trMlVYCx9Ep5UUb6X5enOcSyKcaBEakAWcC9XMO3WbtRg7i2Bo9mVDzNoxfj85ynJR+zqaWTARL2APmJW7mJ/+U4dTcepZvtqzwcxSMFzLUdwzxsKgMkvAFSyXvczxPMy2uupgxmT1tYObqp4KdcHcODlk8GSBgD5Bse5IEM7/vIpCGPeoRaORnOriwpeO5rOdsSygAJV4AM4VbeYEUNllDBf9jNVlYWU9me6TWYvx7Psa9llAESpgDZnTdqvIxWjKSj7awMlrIrw2q4jOYM95ybYh8goboPpFURljGD30XkrYoKyqk1jg+Yy4HMsJSKuVAFyPpFWcprnuJUBnekfZ9MfiZxpHemywAprx4IwEVZH42nuBrBH4u2rNf4swVVrIXqHMjT3MFiFqz6aSk/8zOzC1rSTZxu26qaafTk+6Iu8S5+b1kVo8AIcYCkspxJjGMEg3N85N1KmzHRFwApySJ2ZUSRl1mfoexlaWWAhDNA1vqIG3gq56POr3s5r5Ick8eDE3PXnHfpYXEVywCJ0BsJd+BRvuCAHKd+1LZWgitrJT5gLgcU+bCYFJ1Aidg70eFRTuOnrFNtyHcexNIaL3EAy2tt6dvyDs0ssmLXA4lggMBn7MN3WacaRXfbWwCMow9zanUNA3iOCgutmAVI3ShuxNYMZ5OsU31kawuAmRxQy/EBL3GqhVbs1I3mx+7AEJpmmWakrStgKb/m6xKs526ut9gyQKKhO3dmmeILW1fASbxdojX9hScttwyQaDiKXTOOn2Lrisu5v2TrWsHRvGLJFSORPIm+2ii2y/Dw9ybMt31j7kmOqNHrAfLXnLfYzsKrbAOjjAIE9s7wja8Oy6LcwVKNvc9uATwVrS3DfGu6YhIgEf8Le0KGcZUstL1jbBKHBPJQzR/Yq0Yvq5KiFCiR7oEsYv01D1+sbgGNbeGYmkM/xga29u15k+Y2guyBhFsjeqYdV2F8xNZSfh1gfMDHHMRim0FlL/InCXZMO6aprRtbp/NawJ/gTY4v8el7yQDJ29Zpx6xn68bUlVnvESqFx3wnjQyQsEsfE11s3Vh6iotC8klu42qbQwZINANkc1s3hkZyXIgOHZ3PvTaJDJDwaph2TFdbN3Yms3+Gq/JKr5KTGGKzyAAJq/R3m//S1o2ZORwYujswljOQYTaNDJBw+jHN8NZ0s3VjZSm/YUwIP9dCDmK8zSMDJIwmpRm+m+8jjJlBvBrSTzaTAUy1gWSAhM9/0ww/wraNlau5J8Sfbgp7M8tGUtmJ+KNMoFPKx7ZvwFTq27qx8QyHhv62vd685s2tinxglFUPZEyat34cbXzEyEccE4G7vkcwkGU2lspKxAPkkZRDG/JnWzY2vudXobp0N73nOCFyPXypbANkYZrj3r9nI1s2JuayL99F5tM+xMU2mQyQcLiV/6UY2pzzbdeYWM7RjIrUJ76cf9psMkBqZjqXsCMtaERn9uUOfihgGd/z95TDr2ZD2zUm/sRzkfvMZ/G4DacyEchVWE9zAnMShjTgaP7CFnksYwX78XKK4f150ztAYuJeTozk527AC+xh8ymSgRF4gLzEgSmvRqnH77mMVjku5VyuSTG0DR+ysa0cC++yB0si+tnX4V2624QyQPK1mC3SXHoLsC7/x6nUy7KMSi7m8hTDG/IGfW3jWPiaXsyM8OffmPc91KrIB0jJz4H8J0N8wE+cwQ6MyLiE2RyZMj7qco/xERNzOTjS8QHfsDezbUhFXMkDZHjWKT6lH8enefzcch6gW8qTkPV4gKNsz1hYwdGhfGxifsZyiO9NlwGSn59z+gPxAN04iIeZtmbYQoZxIZtwfMrH0jXkYY62NWPigghee5XKW/zWGwsVaRWlXmGnnL9lPsdzQAs2oCFzmJrhYRWb8gTb25Yx8XAZvSj2UTpzmU2qyCr5SfShHFDkJf6Gu2lpS8bEaPpE5MEluf4CPmjfWRHaXwMOkGVsyZdFW9qm3Mj+tmpszKYnX5XZNjXgFfrbtIpkgJT8HEhFyiuoCrEulzHW+IiRFRxTdvEBSzgs45WJUngF8CiTw/hbjZfRlmuYwkU0tgVj5O8MLcvt+pF9c7q4RApfjySQF0rdyAUFHsmuy54cz8E0su1i5jX2YXnZbt0+DM16A60UfGCEIkDga87h2bz+IDRgJ/blcB/VHkvfsD0zynoLz+I6m1kGSO6+41+8xCdZ3tPWnO3oyU7sTnPbL6aW0I+RZb+V93OcTS0DJD9z+YAv+JrvmMVi5lGXFjShKRvRkU5sxuZRf22iauxsro/BVjZiGNvZ2DJApOJ5lX0i8M7zYtiMkbSwwRWZAPHLvUJuBsfFJD7gS47xK5wixABRqFVyYpUnopW/51O+50YKa4/EQ1gKsVs4PWZbXI+X2NOGV0gDwwBRZIylFwtjt9Vt+MSXTSkSARKZQ1jf2naxs5SjYxgfMJ1j/SKnSIhIgIyiRxEfwahouJZRMd3y17nZ5lckeiQROIS1mF6Mph9v+7CHGJlIDxbFdusb8wld3QkUusCIYA/kEkYDw/iH7RcblZwa4/iAhRzFUncDhVwEAmT4mmcEXcxntlhM/IvXY16BT4r24gOp9nokIT+ENZ9t+WLNT9vyAfVttbL3A1vxU+yrUMF77OjOoFAFRsR6IOdUiQ/4lEttwxg43fgAlnFcLK9CU3SEPECe5PakIVfxkq1W5l7nKYsAwASusAgKdY8kxIewvqRnije1rc/HdLTlyvh7dw/GWYZVGvJfr8ZSiAIjMj2QRRye8kWfMzmUxbZk2brT+KhiMad5U6FCK8QB8gc+STPmI47zl6pM/cwlFiHBGzxhEWSA5Ocf3JNh7OMeGy5TNzDTIiQ5L9Z3xCjMQnoO5HX2yfKi2zo8zqG2X5mZQWfmWIZqruJci6BQBEYEAmQyOzAj61SNedOr5MvMX7jWIqSwDl+ygWVQ6AIkhIew5nFgDvEBCznYZ/SWlVnVLtrWSnPWPI1BCpPQBUglxzEmx2l/4EDm2YZl4xZbM61b+dEiyADJ5mKeyWPq/3IwS2zFsrCAWyxCWvM9uCcDJJv7836A3Ov81kt6y8L9/M8iZHC7j3eRAZLJm5xcwFyPcL7tWBZ/IJW5D3KXRVDIhOgqrM/pW/B3rBv4k20Zae+xs0XIoj2TfBa1Ag6MkPZAZnJgDbroZ/GQbRtpd1iCrKbytEWQPZDqFrE7w2u0hIa8yG62Z0TNpS0LLENWe/CqRZA9kOTQ+n0N4wMWczCf2r4RNcT4yMkbTLEICpFQBMjl/Lso32L3Tnj5lKLjEUuQkxU8aBEUqh5J4IewnubQoq21C+/5yIfImUnbLE8+09o9fIJFUICBEbIeyKdFfTT7RPb1bubIecX4yGMP920pCo+AA2QaBzG/qEsc6b3pkfOiJcjDEEsgAwRgSa08DvF1TrddI2QF/7EIeXjWEsgAATiHD2tluXd5V3OEjPERJnn2sX2kiQwQBnNzrS37TN61bSPiPUuQZ49tmEVQ3APkG35Xi1d8LeVQ3xUSEcMtQZ7esQSKd4As5Qhm1eoapnOQN6dFwghLkCd714p5gJzD+7W+jk851fYNvXlMsgh5GsMKi6D4Bsjb3FSS9TzAY7ZwyI33bS55m8/XFkFxDZDFDCrZH41BngkJfYCokD6IFNMAuayEfzRmexgr5Hx6WSE+twSKZ4BM5R8lXd9QnreVQ+w7S2DVZIDk6q8lvzbqTyyynUNrmiUo6GuYFMMAmcADJd/Er7jVdjZADBAp6gFyI8sD2Mjr7IOE1ixLUIAZlkDxC5CfAnodzg++hie0jPZCLLQEil+APFjkR7fn7iZb2gAxQKQoB8jTgW3mZ145b4AYIFJ0A2R6oI/Ne9S2lqSoBsgrgZxAX827QcKpsSUoQFNLoLgFyMeBbuh45traBogBIhkg+Vse8PplgBggMkAKNi7gTR1taxsg1bRmNKNpXbTpDBAZILXSAwj6Tc7efGWAVHcB27ANFxRtOgNEBkgtmBP4ex+85zmMgv5TOKDK/xdjutJo7o6juAVI0Gbb2iHULuD1d6zy/8WYrjQ2dsdRvAKkIvBNbWBrh1CHQNdeQUMA6ue49zSkXiiqtqk7juIVIMFfbeNxYwMkWcNV/81+h9LyUH0N6eyOo3gFSDPqBLypLW1tAyRNgCwzQKQwB0iDwC+BtNtvgBTeA1mWNEewNnHHUbwCJPgTfwZIGAV7Wjr/AAlDD6Q1LdxxFLcA6RbohtbjF7Z2CLUJ9Dqs5knxkF6YDmH1drdR/AJku0A3tIff2kJq+wDX3TbvAFk3BBX7pTuN4hcg/QPd0H1sawOkmg1W/XdJ1ikXr/pvqxBUbCd3GsUvQLahU4AbeqRtbYBU02bVf7O/KXNeUuQEp2nAfXkpkACBIwLbzD4Bn4FR1ANkfmh6IL1zuO1RKsMAOTmw+3gvtqVDa0O6BrbuznkHSPA9kP3cZRTPAOnE0XnOUZy7BPYKzUPwlMoBga15q5wDZEFR98ia/MIe5g6jeAYI/I1meUzdkF4phuZ7IWVz7rCdQ23/gNZbUUAPpEvAtdqN9u4wimuAbMw/8pj6VKakGNqDJnlt4L+9bzfk+rJeIOvtvOZGwuzPiv551X+3CLhWA91dFN8Agd8xKMcpt+YSxqQY/g0X5rF5t3OgrRxyFewbyHrXXs30v6zTrp6iZaCP5GnMr9xdFOcAgZs5MYep1uNhhq+5+r6q6ezOrjmtqSkPc5JtHAEnBLLWtTfkZX9b5dopugZaJ2+HVcwDpB53c12Wh9Jtzvv04Kk0Y4fwDLtkXU9vPgjwwmHlYxe2DGCt/fPogcyosl8FpQF/cVdR3AME6nAWozg6zUummvBHRtCFn9MGyEM04RUuY50M4fEYw9ja9o2IOjkf2Cye1lX6Evn0QPoFVqVjfROhQvebm/Sq8lK+ufxLHuFVRqx5EtE69KM/v111lPkazk07530cDyzgSZ5kDN+sGV6fHfglB/m4ucj5mfY5XAtVTL/l3jX/7sVHWabuxQdroqR1SX9LVqtggk+UVuCBEaIAWWkpM/gfTVgv4VqcuWzGj2nn2ZzPqtyPO48fWcgKNqBVCF6dq8KcyzUlXd9/2GvNv9syPcvUbZm25t9bMy6A+vyBm91JZIDk5m9cknH87Zxia5aV2WzGzJKtrTVT13zZWEjTrPt9HeaveS3zhVxR8up04LM1D5+XwhIgdcP5MWdwfdaAWWBrlpWWXFDCtR1Zpa/6TQ5fmyqrHCgN4l7w24wPhVBIA+SqrLd2TbNDX3ZOK9ktnxWcWeWnKTnNs3aqHiW/lPfwwO7WlyIXIP/jthymupaFtl9Zacg9JdohD02Iqi9ymqfqVMeVtC5dfBiPDJDc/SunaJjJI7ZfmdmVs0qy0yde3/dZTnNVneqUDJeQF1tLnqOlu4YMkNws564cp/QgVvm5jB61vo6TktYxJqe5xib8UT+5RPWoxyOBP39LSieEV2ENzuN5P++ws21YZr6kbw53hheuDeOT3my+LrNzmG9dZlX5aRpdc3gEY82/393J79wlFKLACH0P5JZamlbRsBlDaVqLy785KT4m5RQf8BOTq/zUrgSX8tbjXuNDoRa6++6+Z04eLzn9hjklPBqt0ujFYxyy5vkExfVnDk0aMizneYfRqcpPg3iY92v1V/NBjnRnUMh7JCG9kVDxNpTDa+FOn915udp3pkE5X+M0KOnqwK/oncNTtAqzAY+yu7uBQhcYiepaEoXR/rxR9PeP92dIii537j2Q95J+7swQGtXK1vfmE+NDEWCAKKR2ZHgeBzOz24sXU7xQeWrC1VWZjWVq0pB+PFL0CKnPubzNRu4AMkCkwm3GcM4ryi5ah3MYmvJVyC/kcdC2kherDTuE12hVxG3uy8dcRQMbXwaIVDMNuJJ32KGGS9mQF7imytObqxqa15JSTd2PD6q8mqomOnMf77KNza7I8CS6Qq+SR7mISQXN24RzOCftZcGzaceiPJbWiGkp7wqv5F7Oq9EJ9a6cz0BfRqDQB4Y9EEVupx3IFzzDrnnOtxGX8TWXZrir5Mm84gMW8WSaT3giU7iVzQqKuGN5i3Eca3zIHohUe75kMEMYwYos023KvuzP7ln/JO9c7cqqbHbi3Yx9pQ8ZzFDGZ/2EAO0ZwAD29EHtimwPxABR5MzhQz7gcybxDfOYyzLWBTagHR3ozHZsS4ecljO6oOdujc7hLMUcPmYMXzOJ6SzhZxaxkDnUoTnN6EAHOrM9PX3DuQwQKap+xz0FzXW3pZMBYoAozqazSUFvlGnMJNpYPhkgeBJdsXV9gS8kW8gNFk+yB6L4mkkn5hU4bzMms74llD0QeyCKpysLjg+Yx1UWULIHonj6li553gGSqBETc7zSS7IHIpWVS2oUH7CISy2iZA9E8fM529T4dVX1GMXWllL2QKR4Oa8IbztczoUWUgaKPRDFy0fsWKS9fDh9LKfsgUhx6n8U60vSRRZTMWeAKFZe5Y2iLesNXrOginmPxENYipE+jCji0nryYbVOvVTOgWEPRLH1TFHjA0YyxKLKHog9EJW/SroztsjL7MZo+yCyByKVu2eLHh8wlucsrOyB2ANRuevNB7Wy1PctreyBSOXsrVqJDxjB2xZXMWWAKCZuqrUl32xxFdseiYewFAPfsUkRHmCSWgWTaW+JFYvAsAeiGLqr1uIDlvmWdNkDsQeicrWMTkytxeW3Ywr1LbPsgUjlZ3CtxgdM84ZCxZIBohi4rdbXcLtFVix7JB7CkiTlFBj2QCRJRWCASJIMEEmSASJJMkAkSQaIJEkGiCTJAJEkGSCSJANEkmSASJJkgEiSDBBJkgEiSTJAJEkGiCRJBogkyQCRJBkgkiQDRJJkgEiSZIBIkgwQSZIBIkkyQCRJBogkSQaIJMkAkSQZIJIkA0SSZIBIkmSASJIMEEmSASJJMkAkSQaIJEkGiCTJAJEkGSCSJANEkiQDRJJkgEiSDBBJkgEiSTJAJEkyQCRJBogkyQCRJBkgkiQDRJIkA0SSZIBIkgwQSZIBIkkyQCRJMkAkSQaIJMkAkSQZIJIkA0SSJANEkmSASJIMEEmSASJJMkAkSTJAJEkGiCTJAJEkGSCSJANEkiQDRJJkgEiSDBBJkgEiSTJALIEkyQCRJBkgkiQDRJJkgEiSZIBIkgwQSZIBIkkyQCRJBogkSQaIJMkAkSQZIJIkA0SSZIBIkmSASJIMEEmSASJJMkAkSQaIJEkGiCTJAJEkGSCSJANEkmSASJJkgEiSDBBJkgEiSTJAJEkGiCRJBogkyQCRJBkgkiQDRJJkgEiSZIBIkgwQSZIBIkkyQCRJMkAkSQaIJMkAkSQZIJIkA0SSJANEkmSASJIMEEmSASJJMkAkSTJAJEkGiCTJAJEkGSCSJANEkiQDRMrVZCZbBCmrOlQmDqi0Joq5FezOUt6mnqWQkgLDHoiU0Q28xTCutxCSPRApH+PYnkVAQz6gh+WQ7IFIuVnKcSwCYDEDV/1LUmoGiFTFpYys0hf5qwWRMvZIPIQlrfI+O7M84fvV6+xiWaQ1gWGASCnNZ1u+SBrWiVGsY2mklAHiISxplbOrxQdM5kwLI6UNFHsgEvAqe6fZ+5/gUMsj4SEsKaXZdOfbNONaMYa2lkjyEJaUyslp4wNmcKJfrKQUDBCJO3ki4/gXudoiSSl6JB7CUsyNonfWWwYreI3+lkqxDwwDRKpiHjvweQ7TteETNrRcMkCq8BCWYm5QTvEB0xnIMsslGSDSSnfy75ynfZuLLJiU0CPxEJZiayy9WJjXr8vTHGLZFOPAMEAkAObRi/F5ztOSj9nU0skAATyEpRg7Oe/4gNkc6kPeJQNE8XYTjxQ03yecZPGkVT0SD2EphoazK0sKnvtazraEimVgGCCKvalsz/QazF+P59jXMsoAMUAUN0vZlWE1XEZzhtPNUirmAeI5EMXOqTWOD5jLgcywlIo5A0Qxcwf/KspyJnGkd6Yr9j0SD2EpRkawC4uLtrTTucmSKlaBYYAotqbRk++LusS7+L1llQFigKjcLWJXRhR5mfUZyl6WVjENEM+BKDZ+X/T4gKX8hlGWVjFlgCgmrszjubv5mMsBRT4sJkWnR+IhLMXASxzA8lpb+ra8QzOLrBgEhgGi2BlHH+bU6hoG8BwVFloxCxAPYanszeSAWo4PeIlTLbRixwBRmVvKr/m6BOu5m+sttgwQqZycxNslWtNfeNJyywCRysXl3F+yda3gaF6x5IoRT6KrjD3JEawo6Rqb8xbbWXiVbWAYIIqJ99ktgNfPtmWYb02XASJF2ST61OilUYXrzDDa2ACKQYB4DkRlaQ4HBhQf8BX7MdcmUAwYICpDS/k1YwNc/8ccVMSHxksGiFQyp/NawJ/gTY4v8el7yQCRauxK7gzBp3iM020KlTlPoqvMPMXhofnufxXn2iAqq8AwQFTGRtKfBSH6dfsXJ9goMkCk8JtM78CuvUqtHk9xsA0jA0QKtznsxJjQfarGvEo/G0dlGSCeRFeZWMpvQhgfsJCDGG/zqCwZICoTg3g1pJ9sJgOYagPJAJHC6WruCfGnm8LezLKRVHY8B6Iy8AyHhv62vd68RlObShEPDANEZeYjdgnRpbvpHcjTvjddZRUgHsJSxH3PryIRH/AcJ/gFTWXFAFGkzWVfvovMp32Ii20yGSBSGCznaEZF6hNfzj9tNhkgUvD+xHOR+8xn8bgNpzLhSXRF1r2cGMnP3YAX2MPmUyQDwwBRWXiXPVgS0c++Du/S3SaUASIF4Wt6MTPCn39j3mdDm1ERDxDPgSiC5nJwpOMDvmFvZtuQijgDRJGzgqND+djE/IzlEN+bLgNEKq0LInjtVSpv8VsPGcsAkUrnYa4um215lL/aoIowT6IrUkbTJyIPLsn1F/BBjrZZFZn91QBRZM2mJ1+V2TY14BX627SKZIB4CEuRsYJjyi4+YAmHMcXGVSQZIIqMvzO0LLfrR/blZ5tXkeyReAhLkfAa+7C8bLduH4ZSz0ZW6APDHogi6BuOLOP4gJc510aWPRCp+JbQj5Flv5X3c5xNLXsgUnFdEIP4gFP4xKaWPRCpmF5lH1bEYks3YyQtbHDZA5GKYwbHxSQ+4EuO8SucIsQAUahVciLTYrS9z3ONja4I9Ug8hKUQu4XTY7bF9XiJPW14hTQwDBBFxlh6sTB2W92GT3zZlCIRIB7CUmgt5egYxgdM51i/yCkSDBCF1rWMiumWv87NNr8i0SPxEJZCaSI9WBTbrW/MJ3R1J1DoAsMeiCKgklNjHB+wkKNY6m6gkDNAFEr/4vWYV+ATLnc3UOh7JB7CUuj8wFb8FPsqVPAeO7ozKFSBYQ9EoXe68QEs47hYXoWm6DBAFDqv85RFAGACV1gEhbpH4iEshex7dw/GWYZVGvJfr8ZSiALDHohC7U7jo4rFnOaXOtkDkXLxM52ZaRkSPMbhFkH2QKRsbjA+qjkv1nfEKMwMEIXIDP5pEaqZzI0WQQaIlNk1zLEIKVzB/yyCDBApvVncbhFSmsN1FkEGiJTeLcyzCGncyo8WQQaIlNoCbrEIac3nWosgA0RK7X6P82d0u493kQEipfsDqcx9kLssgkLGGwkVCu+xs0XIoj2TqG8ZFGhg2ANRCN1hCbKaytMWQfZApERzacsCy5DVHrxqEWQPRKpqiPGRkzeYYhEUIgaIQuARS5CTFTxoERSqHomHsBSwmbRlmWXISRcmWAQFGBj2QBQyrxgfOZvo21IUIgaIAveiJcjDEEsgA0RaaQX/sQh5eNYSyACRVhrjI0zyMtJHmsgAkVZ6zxLk2WMbZhFkgEgAwy1Bnt6xBDJAJIARliBP71oChYT3gShQ81jHfS5PTZnjNz8FFBj2QBQi442PvM3na4ugUDBAFHCAKH9jLIEMEOkLS1CAzy2BDBDpO0tg1WSASIWYZgkKMNUSyACRDBADRAaIVJBZlqAAMyyBDBBpkSUowEJLIANEMkAMEBkgkgFigMgAkSTJAFHINbYEBWhqCWSASAaIASIDRDJADBAZIFJ8AqQ1oxlN66JNZ4DIAJFiEiAXsA3bcEHRpjNAZIBIMflTOKDK/xdjutJo7o4jA0RqF/D6O1b5/2JMVxobu+PIAJE6BLr2ChoCUD/rlA0AaEi9UFRtU3ccGSBSsAHScNV/l2edcnlCkAStszuODBApHAGyzACRDBAZILXTA1mWNEewNnHHkQEiBXtaOv8ACUMPpDUt3HFkgEhtAr0Oq3lSPKQXpkNYvd1tZIBIANsHuO62eQfIuiGo2C/daWSASEEHyAar/rsk65SLV/23VQgqtpM7jQwQKegAabPqv/OzTjkvKXKC05Tt3GlkgEjRCZD5oemB9M7htkfJAFEsbEjXwNbdOe8ACb4Hsp+7jAwQabUDAlvzVjkHyIJV/+0Q+C/sYe4wMkCk1fYPaL0VBfRAugRcq91o7w4jA0RarS/rBbLezmtuJJyTddqfV/13i4BrNdDdRQaIVLUnsG8g6117NdP/sk67eoqWgb6VsDG/cneRASJVdUIga117Q96MrNOunaJroHXyISYyQKQEu7BlAGvtn0cPZG2ABPcgkQb8xV1FBoiUqA6DSr7O1lX6Evn0QPoFVqVjfROhDBAp1R/HUr8dfT/qrPn3j1mnXjtF3yrzlVIF57ubyACRqmvBaSVe4xFV/v1N1qnXTtEqkMNtcIovslUIjx1UJg6otCYKxGw2Y2bJ1taaqVSs+vdCmmbd7+swn8ar/n0hV5S8Oh34bM3D56XgAsMeiEKpJReUcG1HrokP+CaHr02VVfogQdwLfpvxoRAyQBQap5XsVa0VnFnlpyk5zbN2qh4lv5T38MDu1pcMEEVCQ+4p0Q55aEJUfZHTPFWnOq6kdenCHe4cMkCkzHblrJLs9Ocm/PxZTnNVneoU1ilZTVryHC3dNWSASNlcRo9aX8dJSesYk9NcYxP+qJ9conrU45HAn78lpeNVWAqZL+mbw53hhWvD+KQ3m6/L7BzmW5dZVX6aRtccHsFY8+93d/I7dwmFKDDsgSjUNmNord5UeHNSfEzKKT7gJyZX+aldCS7lrce9xodCzQBR6PTisSoX2RbXnzk0aciwnOdNnHIQfWq1ChU8VOKT9ZIBojKwP4NpUgvL3Z2rs8RC7gFSl4dq8Q3pG/AyR7ojyACRComQN4r+/vH+DEnRs8k9QN5L+rkzQ2hUK1vfm0/Y3Z1ABohUmB0ZzvZFXN5evEizakOnJlxdldlYpiYN6ccjRY+Q+pzL22zkDiADRCrcZgznvKLsonU4h6EpD4q9kMd1h5W8WG3YIbxW1ANZffmYq2hg48sAkWqmAVfyDjvUcCkb8gLXUD/luKF5LSnV1P34oMqrqWqiM/fxLtvY7IoM7wNR6FXyKBcxqaB5m3AO56S9LHg27ViUx9IaMS3lXeGV3Mt5ObyWKr2unM/AWrv2TCpWYNgDUeR22oF8wTPsmud8G3EZX3NphrtKnswrPmART6b5hCcyhVvZrKCIO5a3GMexxofsgUi150sGM4QRrMgy3absy/7snvVP8s7VrqzKZifezdhX+pDBDGV81k8I0J4BDGBPH9SuyPZADBBFzhw+5AM+ZxLfMI+5LGNdYAPa0YHObMe2dMhpOaMLeu7W6BzOUszhY8bwNZOYzhJ+ZhELmUMdmtOMDnSgM9vT0zecywCRoup33FPQXHdbOhkgBojibDqbsLCA+RoziTaWTwYInkRXbF1fUHzAQm6weJI9EMXXTDoxr8B5mzGZ9S2h7IHYA1E8XVlwfMA8rrKAkj0QxdO3dMnzDpBEjZiY45Vekj0QqaxcUqP4gEVcahEleyCKn8/ZhmU1XEY9RrG1pZQ9EClezqtxfMByLrSQMlDsgShePmLHIu3lw2v5pbaSPRApZP2PYn1JushiKuYMEMXKq7xRtGW9wWsWVDHvkXgISzHShxFFXFpPPqzWqZfKOTDsgSi2nilqfMBIhlhU2QOxB6LyV0l3xhZ5md0YbR9E9kCkcvds0eMDxvKchZU9EHsgKne9+aBWlvq+pZU9EKmcvVUr8QEjeNviKqYMEMXETbW25JstrmLbI/EQlmLgOzYpwgNMUqtgMu0tsWIRGPZAFEN31Vp8wDLfki57IPZAVK6W0Ymptbj8dkyhvmWWPRCp/Ayu1fiAad5QqFgyQBQDt9X6Gm63yIplj8RDWJKknALDHogkqQgMEEmSASJJMkAkSQaIJMkAkSTJAJEkGSCSJANEkmSASJIMEEmSDBBJkgEiSTJAJEkGiCTJAJEkyQCRJBkgkiQDRJJkgEiSDBBJkgwQSZIBIkkyQCRJBogkyQCRJMkAkSQZIJIkA0SSZIBIkgwQSZIMEEmSASJJMkAkSQaIJMkAkSTJAJEkGSCSJANEkmSASJJkgEiSDBBJkgEiSTJAJEkGiCRJBogkyQCRJBkgkiQDRJJkgEiSZIBIkgwQSZIBIkkyQCRJBogkSQaIJMkAkSQZIJIkA0SSZIBIkmSASJIMEEmSASJJMkAkSQaIJEkGiCTJAJEkGSCSJANEkmSASJJkgEiSDBBJkgEiSTJAJEkGiCWQJBkgkiQDRJJkgEiSDBBJkgwQSZIBIkkyQCRJBogkyQCRJMkAkSQZIJIkA0SSZIBIkgwQSZIMEEmSASJJMkAkSQaIJMkAkSTJAJEkGSCSJANEkmSASJIMEEmSDBBJkgEiSTJAJEkGiCTJAJEkyQCRJBkgkiQDRJJkgEiSDBBJkgwQSZIBIkkyQCRJBogkSQaIJMkAkSQZIJIkA0SSZIBIkmSASJIMEEmSASJJMkAkSQaIJEkGiCTJAJEkGSCSJANEkmSASJJkgEiSDBBJkgEi1b7dqFPL/9vdIssAkcrRoFpfwykWWTFUh8rEAZXWRGVnGZ2YWovLb8cU6ltmxSAw7IEodio4sVaXf5LxIXsg9kBUrr5jE5bVWjxNpr0llj0QqTxtxIG1tuyDjQ/FlAGimDi91pb8B4ur2PZIPISlmOjNB7Wy1PctrWITGPZAFFPnRWipkj0QKUQq6c7YIi+zG6OrfSuT7IFIZbfz/1/Rl/k340P2QOyBKB76MKKIS+vJhwaI7IFI8fC3oi7tSuND9kDsgSg+dueNIi1pN163nIp1D8QAUcx8xI5F2suH08dyKtYB4iEsxcwORbon/SDjQwaKPRDFzQS61fi5WPUYxdaWUvZApHjZgmNrvIzjjQ/JHoji6Fu6sKgG8zdiIh0so+yBWBLFT4caPgDxdONDsgeiuJpJJ+YVOG9zJrG+JZQ9EHsgiqf1a/Ce9FOND8keiOJsOpuwsID5GjOZ1pZP9kDsgSi+2nBUQfMdZXxI9kAUVT/zER/wOZOYwnzmsoyW1KEV7diYzmzLtmyc03LG0L2AtY9mm6zTzOFjRjOJSUxnCT+ziIXMAdahCRuzMZ3Znu3paFMq4j0QA0QR8iWDGcwHrMgyXSf2Y3/2oCLLdDvzXp6fYCfezTB2BR8ymBcYn/UTArRnAAPYk+Y2rAwQqfYs51lu4c285tmIk/g9bTNMcTcn5fk57uL3acYs4D7+wVd5b1kTfs0J9Pe5vjJApOKr5FEuZHJB8zbhbP5C0zRjZ9MurxsKG/EDLVJ+wns5jxk12MYtOJ+jsvaYpHAFiCfRFXLD6MVRBcYHLOBvdOGlNGNbsmdeS9s7ZXx8xS78rkbxARM4nq7cn9OhLyk8gWIPRKG1hL9ybRH+qNbhbC6nfooxd3FyHstJdQBrGAfXMDyq6sMdBZ3aVzR8z0F5/I2tz39YJ9Q9EANEofUFR/BJ0Za2J0NoUm3oVDrkvM/X4VvaJw0bzMAaPVUr1R+NP3EZDWz+MpXPC80O4/HQ9TgSeQhLIfUBfYsYH/Aq+6Z4eEl7uuW8hG7V4mNY0eMDlnIN/fnOHaBM/aGWpg2GAaJQGspuRTwwtNLbHJziPSD9cp5/p6Sfv+TgosfHSiPYztfllqkD6ZTjlL9gZwNEKiQ+DmFBLSz3dc6tQYAkTrmCY4secWv9j3141B2hDNXL+dLxP0RgazwHotD5gN1qJT5WepzDEn6exKY5zjkp4bvjrbX+C16Pf3G8u0PZ+R8dc3gK2/p8S+MQBoY9EIXaF+xfi/EBp/NTws+b0DKn+dZNiI9pXFDrlVjOidztDlF2NuDUHKY6J4TxUZ0BolBZzG9q8cAQwI/V/vTndho9cap/MKcE1VjBoLT3sCi6zst6cW47To/ElhggCpWLGF3r67iLUQk/b5PTXFUDZDZ3lKgeyxnIBHeLMtOKs7JM8dcUl5wbIFJGb3JDSb7XX53w89Z5B8jtzC1ZTWZzILPdNSJrCd8zmi+ZmXBD7J8yvhRgc06s8tPPfM1YxjCNpQaIlM5iTizRozye4OuEX9dcbFbl3w+UtC4TOcWdI4K+4FJ2oint6cHmtKIF+3AlPwDQPGMf5ALqA/O4jwF0oCWd2YbubEgT+nAuw0O0jV6FpdC4IWvHvnjO4MY1/55A1xzm+JwtVv1rFL8oeW2eZ393kAgZx995guUpxjTmRC6hFT+zcZrzaO35GriS61Lc+LrSDvyRw6kXSGDYA1EozebyEq7tsSq3FG6cw6PU61R5SdUTAVTn1BIeNFPNVHI12/JoyviAhdxCbz6nBb9JM/8xLGBPLk0bH/ARR9G7BGcLszNAFBJXMquEa/uxyhOJGtMm6/RtqlxUOSSA6nzL+e4ikbCcEziPJRmn+Yq+jEwbIAdxMO9kXc9IevOwASIB/MytJV7jY1X+nf0VuGunmMH4QCp0ZwEvq1Lpncb9OUz1E4ewLQ1TflV5lbdzWtNCjuF2A0SCB5hf4jW+UOV8X+usU6+dYnhA5wmXcZW7SejdxZ05Tvkd/5fyAvIOXJnz2ir5QyD9YQNEoVJZsvsq1vqRz9f8u1XWqddOMSywKj3IN+4qoTaFP+cx9X0pe76jcnjMyVorOCbhikIDRDH0ViCHhd4uKEDeD6xKS5LuX1HYXJxXP3oxH6YYmu+9HvM4OcBrZw0QhcC9gaz1nYICJMj7wu/jZ3eW0JqU90nt4rz15bUAH3djgChwy3gxkPWufV3VBlmnXT3FbH4MsFILecbdJbTuCuyN9n83QBRfw0p6Ae9aX7F41b+yv3e6RQj6HwCPuLuEVnDvb3mfMQaI4ur5wHo+qy+MbZp12tVTTAy4Vm8w1R0mlEYzJYZfLAwQBe6FwNY8LucAWf1s1G8DrtWKQO6DV3ZvB7r2/xggiqfvq1xOW2r590D+F3i9hrrLhNLHAfd/grm8wgBRjH/xpucdIDMCr9cHIXyot+CzQNe+nP8aIDJAwhogzULTA5lf5eoxhUfQN3kG86AbA0QBGxnguldfktsg65QNk+YI0nvuNKGzJPCvFpMMEMVRkN+nV/dAKrJOufrdC2G4ke8dd5rQmRf4m5RmGyCKn+lMC3Dtc/MOkCUhqNkId5vQWRj4J5gfyFoNEAVqSqBrX5wUD+lVhChAfvSBJqGzLPBPEMyeaYAoUMGeesw/QBaHomqT3HFCZp3AP0FLA0TxE+yNeYuT4iG9MB3CwldLhU6LwP+UtgpkrQaIDJAceiAGiDL/IW0Z8CdY3wCRAVJay1iUECTZomYhy0NRta/dcUKnW8Dr72GAKH5+CHj93+QYY7lOVxpT3HFCZ9tA116P7QwQxc/8gNf/UpX/L8Z0pTHPHSd0tg907VuteVZCaVXY8ApS0NfPX8FuwBVFmy4esavqBlAR4MW8Bwa03jrJN1BWuieohDp5OKYAXQJ/sZWq6x/gMwJGs02JAiORh7AU6x5INNkDCaNfB7bmbiWKj+oMEBkgBoiK4JgcnupcO84IbJsNEBkgBoiKYF2OD2S9bTnGAJGkaDsjh1tSi+8cGhkgiqdGlqAAjS1BKHUJoA+yGacFuMUGiAwQA0RF8jealHiN/1zzsjMDRAaIDJAI25CzSrq+A9kv0O01QBSo9S1BATawBKF1IVuW8LfnjoC31gBRoNpZggK0twSh1ZA7qt1uV1tuC/z3xwCRAWKAqIh+yR9Lsp7fcljg22qAyD+FVk1FdTV9an0d23FrCLbUAFGgNrcEBdjSEoRafR6r5bN7bXg2FJdSGCAK1FaWoADdLUHIbcy/avFMSAOeZqNQbKcBokB1LdkJx/LRjE4WIfQOrsUnVN1Ev5BspQGigP8YbmIR8rSNv7aRcA071spyT+Lk0Gyje6IC1tcS5GlnSxAJDRhCh6Ivdd9QnDw3QBQSfSxBnn5pCSKiLc8V+RHvO/B4qF4ja4AoYP0sQZ6/slYsOn7Bg0X8I7sFLwb07nMDRCG1jQ/myEtPWlqECPkVlxVpSe14mVah+zojBbwL7m0R8nCIJYiYC4rywqd1eCGEV98ZIArcvpYgDwdZgsi5m51quISGDGHbEG5ZHSoTB1Ta2iqxWbRhmWXISVfGW4QImkkfvqjB9/zHODQkgWEPRCGzHntahBwdZQkiaX1eqsG5vhtCEh+pok0K3JGWIMdf12MtQkR15kkaFDTn+ZwZ2q3yEJZCYD5tmG8ZstqTVyxChD3GwLz/wh7NgyF63I+HsBRCTTnYIuTgREsQaUdwUZ5z7Mt9oX5anD0QhcJ7PqAjq/ZMor5liLRKDuOpnKfelneLfCe7PRCVpZ3YxiJkcYbxEXl1eJDtc5y2Hc+GLD6qM0AUEqdYgoya8XuLUAYa83RO12M1rpVHMRogKlPH+0iTjE5lXYtQFjryWNYHItblIXpFYFsMEIVEE/5gEdJqytkWoWzsxvVZpvg7v47ElhggCo0/hOxJo+Gqjf2zcnJGxgOSx3J+RLbDq7AUIn/hWouQQgu+DN1zWFUzi+nHxynH7Mg7Bd5yWIrAsAei0DqXdSxCChcYH2WnIU/QIsXwVjwR2viozgBRiKzPnyxCNZuE+FEWKtym3JPiD/JDbByhbTBAFCp/9rt2NVfT0CKUpV9zWtKQ89knUlvgORCFzG3VfqnibXdeswhlawHbMnHNT9sxIuQ3i9YxQBRuy/gFn1mGVRoymi6WoYyNYCeWA9CIkWwd+h5HIg9hKWQquNEirHGu8VHmevOXVf/6e+jjI1Wg2ANR6ByaxwPnytmWfEIjy1DmltKHj+nH29SLQGAYIAq9H9iKn+yLMSwSj7NQTX1Gf0awWSR6HIk8hKUQasvVFoGLjY+Y2JpPIxEfqQLFHohCqJI9eT3WFdie9318u0LeAzFAFFIT6cGi2G59Ez5hC3cChTxAPISlkOrCxTHe+quND0UiUOyBKKSWsgOjYrnle/BKqN+ELXsgBohCbyy9WBi7rW7Lx2xo4ysCAeIhLIVYN66J3TZX8JjxoYgwQBRqp3FgzLb4Cvrb7IpMj8RDWAq1GXRnWmy29kCGePZDIQ4MeyCKlFY8EJvddHMeND4UIQaIQm/PmLxmqjGPp3xHnRTeHomHsBR6S+jHyLLfygc5xqaOvbmMYzKTmcxM5rOEn2hMI1qwHpvSme4B3x/kZbyKpG/YnhllvYXnxPCKM601gVf4iJFMYEXG6dqxC0cxIKCDRwaIIup19l714p1yNIDnI/AwbxXfCt5gCC/xdV5zdeR8TgrgfJkBosi6jL+W6ZZtxXDPfsTQlzzAA3xb4Nw78xAdDRAp1+9qBzG0DLerDR+ysc0bMyO5gmezHK7KZhPepoMBIuVmNj35qsy2qRFv0MemjZVPOZ//FGVJ3fiUigADxMt4FSEteYYmZbVFdbjb+IjZl6DT2aFI8QFjeSjQrTFAFCnduaustucijrZRY+RFunJLUS8GuTngL0AewlLEnFc2L7wdyL+98zw2lvFXrsrwF7YZranHHGaxNI+lNmJeCa/f8xyIIm8Fh/BcGWzHrrxMA5szJuZxCK+lHFOXvTmUXem06uelfMB/+Bc/5Ljkb9nIAJFyN5d+jIn4NmzDu166Gxtz2JdhKccczmVsnmL4Yv7NZUzJKZqaGiBSPr6mFzMj/Pk78j7tbMaYmM/ufJBi+Lrcn/F1BQu4nOtYkuWLyOgSbolXYaksbMrgCB/+acHzxkdsVHJcyvjowPAsb7tpwuWMYs+M05wU6LYZIIqonbk9op+8Ec+zjQ0YG//H0ymGbsDrdM1h7q68wrMpD3IB9OVkA0QqxAmcHsFPXY+H2NnGi413uCzlXvBY2lCo7kDGcg9dqg3fm+eoH+jWeQ5EEbacX0XueqwbOcOGi42F/IKJKYb/iRvyXtYK3mQI7/Ads2lDb47ngJJfBO5JdJWVuezMqAh93ku41EaLkQu4MsXQDfiK5pHcHk+iq6w058USXgVfUycZH7HyAzemHH52ROOjOgNEEbdhZJ6PdQi32Vyxcg0LUgxtyAlls4UGiCJvBx6KwI7cn0d8ZVSszOKOlMP3ppUBIoXHr7gi5J+wG4NpZEPFyqMsTDn8gDLaRgNEZeFcTgzxp9uEV1jXRoqZB9IM71dG2+hVWCoTS9mPV0P5yVrxHlvYQDHzZZr7PBozL8Lf270KS2WqPk+F8v7uJjxnfMTQ62mGdyyrP7oGiMrGOjxHm9DF2tO+cTCW3kwzvHVZbaUBojLSiaGhuqS3Dnexj80SS++k7ZEaIFJI9eSBEO3U13K8TRJLs5mWZsxiA0QKr9/w95B8knM4y+aIqYlpx8wyQKQwOz/gR1yvNJCrbIrY+tIAkaLqZvYI+BPszn3+csVY+rdlTmWOASKFWX2epluA69+BIRF+X6Jqbm7aMSv40ACRwi3IS3o343ma2QSxNj/DuGEGiBR2mwT09Kl2vBq6u1FUaisyjHvMAJHCrw8PlnwHX4cX6WTpY69xhnGf874BIoXfofytpOtrwNP8wrIryyHM6w0QKQouLOGtfHV5JPCrvxQO7TKOfZq3DBApCu6if4nWdB2/ttwCoGOW8WekeVeIASKFSn2eZtMSrOck/mSxtcrmWcaP4SQDRIqC9XmedWp5Hftyq4XWGhuwcZYp/h2aR+4YIFJGW/FYrb6PfDsep8Iyq4odsk5xMWdF/gV+BohiYQCX1dqyO/KCNw4qyd45THMDv2J6pLfSV9oqNo7h37Ww1HV4l+4WV0mm0iGnv6brcT3HRuabvK+0VWzdTe+iL7M+TxkfSqE9v8xpuln8li7ckvHhJ/ZApBCYRk++L+oS7+EEy6qUHuboPKZuyj4MYBu2pHmEeiAGiGJlBLsU8Z1wf+QfllRpLGIzphYwX1Na0GLVq2+bUwE04nkDRAqDOzmlSEvakxe99koZ3MZpRQujhgaIFAYncXcRltKFEaxrMZXBEnrweVGWNJUNQxkgnkRX7NzKTjVeRnOeMT6URQPuKtKf2Jkh3UIDRLFTn8dq+MaOejzO1hZSWe3MOUVZzgwDRAqL9jxTo1fOXs0Ai6icXM5eNVxCK86ga0i3znMgiqmbOaPAOY/hQcunnM3jQN4ssK88gOPZr0ZfdoodGAaIBMBRPFLAXD15N5BX5Sq6FnFY3hfiduMEBobu5cgGiLTmm2Evxuc5z7p8zCaWTnlaxmVczvIcp96Nc2t84MsAkWrZWHrl9WKfOjzDwZZNBXmXY5mcdQ87iPPpFdpt8DJeqcphgvzuJD/f+FDBdmYcV2R8M0033mJwiOMjVaDYA1Gs5f6M3l141TvPVUM/8geeTPmn+E9cEZL7zXPvgRggirl57JDT3cJt+CQkdwMryt7hVyluC6zgDk6MRI8jkYewFHPNeCyHq6oqeML4UI09wJ4p4qMpQyIRH9UZIIq9Hvwz6zRX5Ph2Bym9qzmeJdWGNuJF9ovoFnkISwIO54kMY/fj+Wqddyk/16V5rMnDDIxQYBggUjWz6c63aca1YgxtLZFq5A4GpRx+LA9EqsdhgEgpvMreafb+J/mN5VGNvM8uKQ5ewbpMYIMIB4jnQCQA9kzzoqkTjA/V0AwOSxkfcGak4iNVoNgDkQCYz7Z8kTSsE6My3volZTeIO1IOb8BUWkUsMOyBSCk15QHqJf163Gd8qIbGpH0D5t4Ri4/qDBBpjT6cm/DzWexiUVRD6R+iuHfkt81DWFIVS+jNp6v+3Z0PQ/9oCYXdLNqzKM24j+hZ4FJXsCKQx+p4CEvKoAEP0xiAhjxkfKjGnkwbH9Cl4KXeR2uO4EF+DHjrDBApwZZcBsBldLcYqrF3046pKPj82hwu5Cce5zjasSPvB7h1HsKSqh0e2J1lvJV0Ql0qxBZMTDOmPosLfL7BX7h2zb/rMZmNShgYBoiUxWSgk2VQjS2hUYa/qTNZr4BlfsnWVe4q2ZuXS9rjSO5FSUpieKg4fs74lXx6QQFyZsJNiccFun2eA5GkWguQTIYXsMTbebHKTy0CfkemASJJtWRFxrH5H3wax1kJPx++6ppBA0SSykyzjGNfZFpeS5vJb1iYMOS4gLfPAJGkWrJ+xmv5FnBFHsuaz/6MTxjSlT4GiCSVp4Z0zDj+Dt7IcUk/cxAjkoadH/hrzgwQSao1PTKOXcahjMthKV/Tl9eThm0egjcZGiCSVGt2yzJ+Fn0YnHGK5dzEdili5qIQ3IXhjYSSVGsm0znLtVhQh/25hO1TjJnPY9zImBRjtmBsAAHineiSVEK753ieYxv2oC9taUUFs5jJfxnBW8xJ84f8TfoH0uMwQCSpZF5g/6Iv8wxuDGRbDBBJKqk+1a6fqplevBPQqwYMEEkqqf/Si6VFW9oWvEPrgLbEF0pJUkn9gv8r2rI68Vpg8ZEqUOyBSFKtquQoHi3CcjbiLToHGhj2QCSpxH947+dXNV5KHz4MND6qM0AkqdY14HFOq9Gf6jN5k3ahC0YPYUlSSTzCGcwsYL4u3BXIfR/VA8MeiCQFYiDj+B3185qnDbcwNhTxYQ9EkgI2iRv5d049kV6cyhEB3fORSw/EAJGkklvMa7zA20xgeYqxrejNbhxCp9D1OAwQSQqJ+YznW6Yyn/k0phHr0ZFNsrxFxACRJEWMJ9ElSUVhgEiSDBBJkgEiSTJAJEkGiCRJBogkyQCRJBkgkiQDRJJkgEiSZIBIkgwQSZIBIkkyQCRJcQiQJYkDllgTSVI1i5MHLKnLvMQh86ySJKmaudUG1E0eNtcqSZIKCZAZVkmSVM3MFAEyPXHIF1ZJklRNtXSYXpeJiUMmWiVJUjUTqg2omzzsM6skSapmfLUuSbUeyLtWSZJUzXspeiCfUFl1yDQ+t06SpKT+x/eJAyr5tC7Tk/slr1kpSVLmZBjP9LrAm4lDH7NSkqTMyfDGymdhJQXIcL6yVpKkNb7i/eRBb64MkFdYUHVoJQ9YLUnSGg8kniyH+byyMkDmMiRxzK0+0ESStCYtbk8eNJh5qx/n/lDimFncZcUkSQDcXv0hVw8B1AGgHlNoX3VcWyawjlWTpNibwxb8kDhoKh1ZvroHspx/Jo79gUutmiSJS5LjA25g+doeCDRjMutXHV/Bx3S3cpIUa6PZnmWJg2bQifmw9pW287gpcYplHM1CaydJMbaI45PjA25cGR9reyDQgs9pmzjVKdXPvEuSYuMU7kweNI2uzFn5z3prBi5mOr9KnG4km9LDCkpSLD3AxdUHDmLk6n/WSRjxBrsmTlmfZxlgFSUpdl5jP5YkD3yX/mvvKUwMkC0ZSZPEqZvyCn2tpCTFynD2Wn2qY60F9Kz6+N26CSPHc2by9PPZixetpSTFyOvsUz0+4PTEp7fXSxr9CZsnX727lCfp6LkQSYqJBzg81VW4/+aviQPqVJukGe/Trfqcp/APGllXSSpri/hj9SuvAMbQl3nZAgTaM4yO1Qf34EFvLZSkMjaaYxmVasQU+jE1eWDdFBNOZQ9+rD54FNtz5urLfyVJZWU+l7JD6viYyT7V4yN1DwSgJy/RKtWItpzNyTSz1pJUNuZxB9cxPfXIGQxYe+9HLgECXXk51YEsgPU5lePobM0lKfK+4gFuY2a60VPYh89Tj6qTYanteTnV6fTVM/blCHZnS6svSZE0ntd5jOHJbxusamzqg1fZAwSacQdHZf4A7diZrdiCzVmXljSjgW0iSaG0hHnM5ie+YALjeJdp2WZ4mFOSr7zKPUAAjuU2mlp4SYqVRZzHjZknqZd1IaMYzNZ0spqSFBtvcSBDs01UN4cFjWdXDuRbKypJMfADx7Fb4kNLCu2BrDSRe1hI9+RHLUqSyshMruJoPsxt4jp5LboZJ/Fn2ltjSSo7U7mBuzKdNK9ZgADUpS/HMNB7CSWpTCzieR7iZZbmN1udAlfXjL3Yld3YyspLUmR9xpu8ySv59DtqHiCrtWFbtqALXWhNM9alqTeCSFJILWE+PzGPH5nIBCbyabqnl+Tm/wE02DgMiJvMoQAAACV0RVh0ZGF0ZTpjcmVhdGUAMjAyNC0wNi0xN1QxMDoyMDoyMyswMDowMAEQiIAAAAAldEVYdGRhdGU6bW9kaWZ5ADIwMjQtMDYtMTdUMTA6MjA6MjMrMDA6MDBwTTA8AAAAAElFTkSuQmCC;" vertex="1" parent="7">
                    <mxGeometry x="312" y="251" width="140" height="175" as="geometry"/>
                </mxCell>
            </root>
        </mxGraphModel>
    </diagram>
</mxfile>